{"glyphs":{"0":{"ha":722,"x_min":51,"x_max":671,"o":"m 361 -12 q 133 119 214 -12 q 51 486 51 250 q 133 853 51 722 q 361 985 214 985 q 590 853 508 985 q 671 486 671 722 q 590 119 671 250 q 361 -12 508 -12 m 267 486 q 290 252 267 326 q 361 178 313 178 q 433 252 410 178 q 456 486 456 326 q 433 720 456 646 q 361 794 410 794 q 290 720 313 794 q 267 486 267 646 z "},"1":{"ha":567,"x_min":43,"x_max":531,"o":"m 43 194 l 179 194 l 179 715 l 68 664 l 68 868 l 296 972 l 401 972 l 401 194 l 531 194 l 531 0 l 43 0 l 43 194 z "},"2":{"ha":618,"x_min":43,"x_max":563,"o":"m 43 121 l 263 465 q 321 581 300 524 q 342 685 342 638 q 316 766 342 738 q 242 794 290 794 q 65 717 165 794 l 65 918 q 299 985 186 985 q 487 910 417 985 q 557 711 557 836 q 433 358 557 551 l 328 193 l 563 193 l 563 0 l 43 0 l 43 121 z "},"3":{"ha":601,"x_min":54,"x_max":554,"o":"m 257 -12 q 54 31 156 -12 l 54 217 q 210 178 129 178 q 306 210 275 178 q 338 307 338 242 q 303 403 338 372 q 196 435 268 435 q 142 432 161 435 l 142 538 l 268 779 l 60 779 l 60 972 l 521 972 l 521 856 l 369 574 q 506 481 457 554 q 554 294 554 408 q 476 69 554 150 q 257 -12 397 -12 z "},"4":{"ha":693,"x_min":38,"x_max":657,"o":"m 38 290 l 228 972 l 449 972 l 272 357 l 390 357 l 442 638 l 585 638 l 585 363 l 657 363 l 657 172 l 585 172 l 585 0 l 364 0 l 364 172 l 38 172 l 38 290 z "},"5":{"ha":593,"x_min":61,"x_max":547,"o":"m 250 -12 q 61 24 158 -12 l 61 210 q 201 178 133 178 q 331 307 331 178 q 200 433 331 433 q 68 413 146 433 l 88 972 l 511 972 l 511 779 l 271 779 l 264 596 q 474 525 400 601 q 547 301 547 449 q 470 69 547 151 q 250 -12 393 -12 z "},"6":{"ha":688,"x_min":54,"x_max":643,"o":"m 358 -12 q 134 113 214 -12 q 54 467 54 238 q 142 851 54 718 q 393 985 229 985 q 592 940 489 985 l 592 761 q 418 806 492 806 q 292 751 335 806 q 243 578 250 697 q 315 632 274 613 q 406 651 357 651 q 529 610 475 651 q 613 496 583 569 q 643 326 643 422 q 608 147 643 224 q 509 29 574 71 q 358 -12 444 -12 m 271 326 q 292 207 271 249 q 353 165 313 165 q 414 207 393 165 q 435 326 435 249 q 414 446 435 404 q 353 488 393 488 q 292 446 313 488 q 271 326 271 404 z "},"7":{"ha":592,"x_min":38,"x_max":554,"o":"m 307 772 l 38 772 l 38 972 l 554 972 l 554 854 l 326 0 l 96 0 l 307 772 z "},"8":{"ha":697,"x_min":51,"x_max":646,"o":"m 349 -12 q 131 63 211 -12 q 51 269 51 139 q 158 503 51 425 q 74 714 74 579 q 148 911 74 838 q 349 985 222 985 q 549 911 474 985 q 624 714 624 838 q 539 501 624 581 q 618 404 590 464 q 646 269 646 344 q 566 63 646 139 q 349 -12 486 -12 m 268 289 q 290 192 268 226 q 349 157 311 157 q 408 192 386 157 q 429 289 429 226 q 408 386 429 351 q 349 421 386 421 q 290 386 311 421 q 268 289 268 351 m 275 699 q 294 610 275 642 q 349 578 314 578 q 403 610 383 578 q 422 699 422 642 q 403 789 422 757 q 349 821 383 821 q 294 789 314 821 q 275 699 275 757 z "},"9":{"ha":688,"x_min":44,"x_max":633,"o":"m 329 985 q 553 860 474 985 q 633 506 633 735 q 546 121 633 254 q 294 -12 458 -12 q 96 32 199 -12 l 96 211 q 269 167 196 167 q 395 221 353 167 q 444 394 438 275 q 372 340 414 360 q 282 321 331 321 q 158 362 213 321 q 74 476 104 403 q 44 646 44 550 q 79 825 44 749 q 178 943 114 901 q 329 985 243 985 m 253 646 q 274 526 253 568 q 335 485 294 485 q 396 526 375 485 q 417 646 417 568 q 396 765 417 724 q 335 807 375 807 q 274 765 294 807 q 253 646 253 724 z "},"\r":{"ha":207,"x_min":0,"x_max":0,"o":""}," ":{"ha":207,"x_min":0,"x_max":0,"o":""},"A":{"ha":810,"x_min":26,"x_max":783,"o":"m 304 972 l 506 972 l 783 0 l 543 0 l 510 146 l 300 146 l 267 0 l 26 0 l 304 972 m 481 332 l 404 661 l 328 332 l 481 332 z "},"Á":{"ha":822,"x_min":26,"x_max":783,"o":"m 304 972 l 506 972 l 783 0 l 543 0 l 510 146 l 300 146 l 267 0 l 26 0 l 304 972 m 481 332 l 404 661 l 328 332 l 481 332 m 399 1264 l 581 1264 l 482 1054 l 336 1054 l 399 1264 z "},"Ă":{"ha":822,"x_min":26,"x_max":783,"o":"m 304 972 l 506 972 l 783 0 l 543 0 l 510 146 l 300 146 l 267 0 l 26 0 l 304 972 m 367 1264 q 365 1240 365 1256 q 377 1190 365 1208 q 411 1171 389 1171 q 446 1190 433 1171 q 458 1240 458 1208 q 457 1264 458 1256 l 579 1264 q 583 1218 583 1242 q 537 1094 583 1140 q 411 1049 490 1049 q 286 1094 332 1049 q 240 1217 240 1139 q 244 1264 240 1239 l 367 1264 m 481 332 l 404 661 l 328 332 l 481 332 z "},"Ǎ":{"ha":822,"x_min":26,"x_max":783,"o":"m 304 972 l 506 972 l 783 0 l 543 0 l 510 146 l 300 146 l 267 0 l 26 0 l 304 972 m 358 1264 l 410 1179 l 461 1264 l 618 1264 l 490 1054 l 331 1054 l 204 1264 l 358 1264 m 481 332 l 404 661 l 328 332 l 481 332 z "},"Â":{"ha":822,"x_min":26,"x_max":783,"o":"m 304 972 l 506 972 l 783 0 l 543 0 l 510 146 l 300 146 l 267 0 l 26 0 l 304 972 m 331 1264 l 490 1264 l 618 1053 l 461 1053 l 410 1138 l 358 1053 l 204 1053 l 331 1264 m 481 332 l 404 661 l 328 332 l 481 332 z "},"Ä":{"ha":822,"x_min":26,"x_max":783,"o":"m 304 972 l 506 972 l 783 0 l 543 0 l 510 146 l 300 146 l 267 0 l 26 0 l 304 972 m 194 1156 q 222 1231 194 1203 q 293 1258 249 1258 q 364 1231 338 1258 q 390 1156 390 1203 q 364 1081 390 1108 q 293 1053 338 1053 q 222 1081 249 1053 q 194 1156 194 1108 m 481 332 l 404 661 l 328 332 l 481 332 m 432 1156 q 459 1231 432 1203 q 531 1258 486 1258 q 601 1231 575 1258 q 628 1156 628 1203 q 601 1081 628 1108 q 531 1053 575 1053 q 459 1081 486 1053 q 432 1156 432 1108 z "},"À":{"ha":822,"x_min":26,"x_max":783,"o":"m 304 972 l 506 972 l 783 0 l 543 0 l 510 146 l 300 146 l 267 0 l 26 0 l 304 972 m 424 1264 l 486 1054 l 342 1054 l 242 1264 l 424 1264 m 481 332 l 404 661 l 328 332 l 481 332 z "},"Ā":{"ha":822,"x_min":26,"x_max":783,"o":"m 304 972 l 506 972 l 783 0 l 543 0 l 510 146 l 300 146 l 267 0 l 26 0 l 304 972 m 249 1210 l 575 1210 l 575 1075 l 249 1075 l 249 1210 m 481 332 l 404 661 l 328 332 l 481 332 z "},"Ą":{"ha":810,"x_min":26,"x_max":788,"o":"m 304 972 l 506 972 l 783 0 q 737 -54 756 -21 q 718 -119 718 -87 q 730 -157 718 -143 q 763 -171 742 -171 q 788 -167 775 -171 l 788 -292 q 700 -306 744 -306 q 589 -268 631 -306 q 547 -167 547 -231 q 565 -81 547 -124 q 614 0 582 -37 l 543 0 l 510 146 l 300 146 l 267 0 l 26 0 l 304 972 m 481 332 l 404 661 l 328 332 l 481 332 z "},"Å":{"ha":822,"x_min":26,"x_max":783,"o":"m 293 936 q 245 995 263 960 q 228 1075 228 1031 q 279 1202 228 1153 q 411 1251 331 1251 q 543 1202 492 1251 q 594 1075 594 1153 q 574 990 594 1028 q 518 928 554 951 l 783 0 l 543 0 l 510 146 l 300 146 l 267 0 l 26 0 l 293 936 m 481 332 l 404 661 l 328 332 l 481 332 m 344 1075 q 363 1024 344 1043 q 411 1004 381 1004 q 460 1024 442 1004 q 478 1075 478 1043 q 460 1126 478 1107 q 411 1146 442 1146 q 363 1126 381 1146 q 344 1075 344 1107 z "},"Ã":{"ha":822,"x_min":26,"x_max":783,"o":"m 304 972 l 506 972 l 783 0 l 543 0 l 510 146 l 300 146 l 267 0 l 26 0 l 304 972 m 229 1065 q 226 1113 226 1082 q 253 1215 226 1179 q 331 1250 281 1250 q 383 1238 363 1250 q 424 1206 403 1226 q 457 1183 443 1183 q 478 1246 482 1183 l 593 1246 q 596 1200 596 1215 q 569 1099 596 1136 q 492 1061 543 1061 q 440 1074 461 1061 q 399 1107 419 1086 q 365 1129 379 1129 q 344 1065 340 1129 l 229 1065 m 481 332 l 404 661 l 328 332 l 481 332 z "},"Æ":{"ha":1014,"x_min":-4,"x_max":957,"o":"m 400 972 l 951 972 l 951 775 l 725 775 l 725 585 l 926 585 l 926 399 l 725 399 l 725 199 l 957 199 l 957 0 l 506 0 l 506 157 l 322 157 l 264 0 l -4 0 l 400 972 m 506 333 l 506 665 l 374 333 l 506 333 z "},"Ǽ":{"ha":1014,"x_min":-4,"x_max":957,"o":"m 400 972 l 951 972 l 951 775 l 725 775 l 725 585 l 926 585 l 926 399 l 725 399 l 725 199 l 957 199 l 957 0 l 506 0 l 506 157 l 322 157 l 264 0 l -4 0 l 400 972 m 506 333 l 506 665 l 374 333 l 506 333 m 586 1264 l 768 1264 l 668 1054 l 524 1054 l 586 1264 z "},"B":{"ha":746,"x_min":76,"x_max":696,"o":"m 76 972 l 419 972 q 610 907 543 972 q 676 722 676 842 q 643 588 676 643 q 546 504 610 533 q 657 414 618 476 q 696 263 696 351 q 624 69 696 139 q 426 0 553 0 l 76 0 l 76 972 m 356 168 q 468 289 468 168 q 356 408 468 408 l 303 408 l 303 168 l 356 168 m 350 576 q 457 690 457 576 q 350 804 457 804 l 303 804 l 303 576 l 350 576 z "},"C":{"ha":679,"x_min":49,"x_max":622,"o":"m 408 -12 q 144 119 239 -12 q 49 486 49 251 q 144 853 49 721 q 408 985 239 985 q 618 929 515 985 l 618 719 q 472 768 542 768 q 342 697 386 768 q 297 486 297 625 q 342 276 297 347 q 472 204 386 204 q 622 257 542 204 l 622 46 q 408 -12 522 -12 z "},"Ć":{"ha":679,"x_min":49,"x_max":622,"o":"m 408 -12 q 144 119 239 -12 q 49 486 49 251 q 144 853 49 721 q 408 985 239 985 q 618 929 515 985 l 618 719 q 472 768 542 768 q 342 697 386 768 q 297 486 297 625 q 342 276 297 347 q 472 204 386 204 q 622 257 542 204 l 622 46 q 408 -12 522 -12 m 383 1264 l 567 1264 l 467 1054 l 321 1054 l 383 1264 z "},"Č":{"ha":679,"x_min":49,"x_max":622,"o":"m 408 -12 q 144 119 239 -12 q 49 486 49 251 q 144 853 49 721 q 408 985 239 985 q 618 929 515 985 l 618 719 q 472 768 542 768 q 342 697 386 768 q 297 486 297 625 q 342 276 297 347 q 472 204 386 204 q 622 257 542 204 l 622 46 q 408 -12 522 -12 m 343 1264 l 394 1179 l 446 1264 l 603 1264 l 476 1054 l 315 1054 l 189 1264 l 343 1264 z "},"Ç":{"ha":679,"x_min":49,"x_max":622,"o":"m 333 -6 q 123 150 197 22 q 49 486 49 278 q 144 853 49 721 q 408 985 239 985 q 618 929 515 985 l 618 719 q 472 768 542 768 q 342 697 386 768 q 297 486 297 625 q 342 276 297 347 q 472 204 386 204 q 622 257 542 204 l 622 46 q 488 -6 560 10 l 456 -233 l 292 -233 l 333 -6 z "},"Ĉ":{"ha":679,"x_min":49,"x_max":622,"o":"m 408 -12 q 144 119 239 -12 q 49 486 49 251 q 144 853 49 721 q 408 985 239 985 q 618 929 515 985 l 618 719 q 472 768 542 768 q 342 697 386 768 q 297 486 297 625 q 342 276 297 347 q 472 204 386 204 q 622 257 542 204 l 622 46 q 408 -12 522 -12 m 315 1264 l 476 1264 l 603 1053 l 446 1053 l 394 1138 l 343 1053 l 189 1053 l 315 1264 z "},"Ċ":{"ha":679,"x_min":49,"x_max":622,"o":"m 408 -12 q 144 119 239 -12 q 49 486 49 251 q 144 853 49 721 q 408 985 239 985 q 618 929 515 985 l 618 719 q 472 768 542 768 q 342 697 386 768 q 297 486 297 625 q 342 276 297 347 q 472 204 386 204 q 622 257 542 204 l 622 46 q 408 -12 522 -12 m 288 1160 q 318 1242 288 1211 q 396 1274 349 1274 q 475 1242 444 1274 q 506 1160 506 1211 q 475 1076 506 1107 q 396 1044 444 1044 q 318 1076 349 1044 q 288 1160 288 1107 z "},"D":{"ha":814,"x_min":76,"x_max":765,"o":"m 76 972 l 369 972 q 665 849 564 972 q 765 486 765 725 q 665 124 765 247 q 372 0 565 0 l 76 0 l 76 972 m 358 217 q 485 278 447 217 q 522 486 522 339 q 485 694 522 633 q 358 756 447 756 l 314 756 l 314 217 l 358 217 z "},"Ð":{"ha":864,"x_min":39,"x_max":815,"o":"m 126 407 l 39 407 l 39 575 l 126 575 l 126 972 l 419 972 q 715 849 614 972 q 815 486 815 725 q 715 124 815 247 q 419 0 614 0 l 126 0 l 126 407 m 400 213 q 536 276 494 213 q 578 486 578 340 q 536 696 578 632 q 400 760 494 760 l 354 760 l 354 565 l 471 565 l 471 417 l 354 417 l 354 213 l 400 213 z "},"Ď":{"ha":814,"x_min":76,"x_max":765,"o":"m 76 972 l 369 972 q 665 849 564 972 q 765 486 765 725 q 665 124 765 247 q 372 0 565 0 l 76 0 l 76 972 m 314 1264 l 365 1179 l 417 1264 l 574 1264 l 446 1054 l 286 1054 l 160 1264 l 314 1264 m 358 217 q 485 278 447 217 q 522 486 522 339 q 485 694 522 633 q 358 756 447 756 l 314 756 l 314 217 l 358 217 z "},"Đ":{"ha":864,"x_min":39,"x_max":815,"o":"m 126 407 l 39 407 l 39 575 l 126 575 l 126 972 l 419 972 q 715 849 614 972 q 815 486 815 725 q 715 124 815 247 q 419 0 614 0 l 126 0 l 126 407 m 400 213 q 536 276 494 213 q 578 486 578 340 q 536 696 578 632 q 400 760 494 760 l 354 760 l 354 565 l 471 565 l 471 417 l 354 417 l 354 213 l 400 213 z "},"E":{"ha":615,"x_min":76,"x_max":558,"o":"m 76 972 l 554 972 l 554 775 l 317 775 l 317 585 l 529 585 l 529 399 l 317 399 l 317 199 l 558 199 l 558 0 l 76 0 l 76 972 z "},"É":{"ha":615,"x_min":76,"x_max":558,"o":"m 76 972 l 554 972 l 554 775 l 317 775 l 317 585 l 529 585 l 529 399 l 317 399 l 317 199 l 558 199 l 558 0 l 76 0 l 76 972 m 304 1264 l 486 1264 l 388 1054 l 242 1054 l 304 1264 z "},"Ĕ":{"ha":615,"x_min":76,"x_max":558,"o":"m 76 972 l 554 972 l 554 775 l 317 775 l 317 585 l 529 585 l 529 399 l 317 399 l 317 199 l 558 199 l 558 0 l 76 0 l 76 972 m 271 1264 q 269 1240 269 1256 q 282 1190 269 1208 q 317 1171 294 1171 q 351 1190 339 1171 q 363 1240 363 1208 q 361 1264 363 1256 l 485 1264 q 489 1218 489 1242 q 442 1094 489 1140 q 317 1049 396 1049 q 191 1094 238 1049 q 144 1218 144 1140 q 149 1264 144 1242 l 271 1264 z "},"Ě":{"ha":615,"x_min":76,"x_max":558,"o":"m 76 972 l 554 972 l 554 775 l 317 775 l 317 585 l 529 585 l 529 399 l 317 399 l 317 199 l 558 199 l 558 0 l 76 0 l 76 972 m 264 1264 l 315 1178 l 367 1264 l 524 1264 l 396 1054 l 236 1054 l 110 1264 l 264 1264 z "},"Ê":{"ha":615,"x_min":76,"x_max":558,"o":"m 76 972 l 554 972 l 554 775 l 317 775 l 317 585 l 529 585 l 529 399 l 317 399 l 317 199 l 558 199 l 558 0 l 76 0 l 76 972 m 236 1264 l 396 1264 l 524 1053 l 367 1053 l 315 1139 l 264 1053 l 110 1053 l 236 1264 z "},"Ë":{"ha":615,"x_min":76,"x_max":558,"o":"m 76 972 l 554 972 l 554 775 l 317 775 l 317 585 l 529 585 l 529 399 l 317 399 l 317 199 l 558 199 l 558 0 l 76 0 l 76 972 m 100 1156 q 126 1231 100 1203 q 197 1258 153 1258 q 269 1231 242 1258 q 296 1156 296 1203 q 269 1081 296 1108 q 197 1053 242 1053 q 126 1081 153 1053 q 100 1156 100 1108 m 338 1156 q 365 1231 338 1203 q 436 1258 392 1258 q 507 1231 481 1258 q 533 1156 533 1203 q 507 1081 533 1108 q 436 1053 481 1053 q 365 1081 392 1053 q 338 1156 338 1108 z "},"Ė":{"ha":615,"x_min":76,"x_max":558,"o":"m 76 972 l 554 972 l 554 775 l 317 775 l 317 585 l 529 585 l 529 399 l 317 399 l 317 199 l 558 199 l 558 0 l 76 0 l 76 972 m 207 1160 q 238 1242 207 1211 q 317 1274 268 1274 q 395 1242 364 1274 q 426 1160 426 1211 q 395 1076 426 1107 q 317 1044 364 1044 q 238 1076 268 1044 q 207 1160 207 1107 z "},"È":{"ha":615,"x_min":76,"x_max":558,"o":"m 76 972 l 554 972 l 554 775 l 317 775 l 317 585 l 529 585 l 529 399 l 317 399 l 317 199 l 558 199 l 558 0 l 76 0 l 76 972 m 329 1264 l 392 1054 l 246 1054 l 147 1264 l 329 1264 z "},"Ē":{"ha":615,"x_min":76,"x_max":558,"o":"m 76 972 l 554 972 l 554 775 l 317 775 l 317 585 l 529 585 l 529 399 l 317 399 l 317 199 l 558 199 l 558 0 l 76 0 l 76 972 m 153 1210 l 481 1210 l 481 1075 l 153 1075 l 153 1210 z "},"Ę":{"ha":615,"x_min":76,"x_max":564,"o":"m 76 972 l 554 972 l 554 775 l 317 775 l 317 585 l 529 585 l 529 399 l 317 399 l 317 199 l 558 199 l 558 1 l 560 0 q 513 -54 532 -21 q 494 -119 494 -87 q 506 -157 494 -143 q 539 -171 518 -171 q 564 -167 551 -171 l 564 -292 q 476 -306 521 -306 q 365 -268 407 -306 q 324 -167 324 -231 q 341 -81 324 -124 q 390 0 358 -37 l 76 0 l 76 972 z "},"Ẽ":{"ha":615,"x_min":76,"x_max":558,"o":"m 76 972 l 554 972 l 554 775 l 317 775 l 317 585 l 529 585 l 529 399 l 317 399 l 317 199 l 558 199 l 558 0 l 76 0 l 76 972 m 135 1065 q 132 1113 132 1082 q 159 1215 132 1179 q 236 1250 186 1250 q 287 1238 267 1250 q 328 1206 307 1226 q 345 1190 336 1196 q 363 1183 354 1183 q 383 1246 388 1183 l 499 1246 q 501 1200 501 1215 q 474 1099 501 1136 q 396 1061 447 1061 q 346 1073 365 1061 q 304 1107 326 1085 q 287 1123 296 1117 q 271 1129 278 1129 q 250 1065 246 1129 l 135 1065 z "},"Ə":{"ha":783,"x_min":43,"x_max":735,"o":"m 385 -12 q 203 44 281 -12 q 84 201 125 100 q 43 435 43 303 q 56 582 43 506 l 488 582 q 433 726 478 676 q 307 775 388 775 q 114 713 218 775 l 114 921 q 351 983 239 983 q 553 922 467 983 q 688 749 640 861 q 735 486 735 636 q 692 222 735 335 q 571 49 650 110 q 385 -12 492 -12 m 281 403 q 307 248 281 299 q 386 197 333 197 q 493 403 493 197 l 281 403 z "},"F":{"ha":585,"x_min":76,"x_max":544,"o":"m 76 972 l 544 972 l 544 753 l 314 753 l 314 533 l 524 533 l 524 321 l 317 321 l 317 0 l 76 0 l 76 972 z "},"G":{"ha":788,"x_min":49,"x_max":744,"o":"m 396 -12 q 138 117 228 -12 q 49 486 49 246 q 144 858 49 732 q 424 985 239 985 q 660 924 547 985 l 660 711 q 468 768 565 768 q 328 699 372 768 q 285 475 285 629 q 317 267 285 340 q 408 194 349 194 q 490 247 460 194 q 522 390 519 299 l 389 390 l 389 563 l 740 563 q 744 469 744 515 q 654 113 744 239 q 396 -12 564 -12 z "},"Ğ":{"ha":788,"x_min":49,"x_max":744,"o":"m 396 -12 q 138 117 228 -12 q 49 486 49 246 q 144 858 49 732 q 424 985 239 985 q 660 924 547 985 l 660 711 q 468 768 565 768 q 328 699 372 768 q 285 475 285 629 q 317 267 285 340 q 408 194 349 194 q 490 247 460 194 q 522 390 519 299 l 389 390 l 389 563 l 740 563 q 744 469 744 515 q 654 113 744 239 q 396 -12 564 -12 m 374 1264 q 372 1240 372 1256 q 384 1190 372 1208 q 418 1171 396 1171 q 452 1190 440 1171 q 464 1240 464 1208 q 463 1264 464 1256 l 586 1264 q 590 1218 590 1242 q 544 1094 590 1140 q 418 1049 497 1049 q 292 1094 339 1049 q 246 1218 246 1140 q 250 1264 246 1242 l 374 1264 z "},"Ǧ":{"ha":788,"x_min":49,"x_max":744,"o":"m 396 -12 q 138 117 228 -12 q 49 486 49 246 q 144 858 49 732 q 424 985 239 985 q 660 924 547 985 l 660 711 q 468 768 565 768 q 328 699 372 768 q 285 475 285 629 q 317 267 285 340 q 408 194 349 194 q 490 247 460 194 q 522 390 519 299 l 389 390 l 389 563 l 740 563 q 744 469 744 515 q 654 113 744 239 q 396 -12 564 -12 m 365 1264 l 417 1179 l 468 1264 l 625 1264 l 497 1054 l 338 1054 l 211 1264 l 365 1264 z "},"Ĝ":{"ha":788,"x_min":49,"x_max":744,"o":"m 396 -12 q 138 117 228 -12 q 49 486 49 246 q 144 858 49 732 q 424 985 239 985 q 660 924 547 985 l 660 711 q 468 768 565 768 q 328 699 372 768 q 285 475 285 629 q 317 267 285 340 q 408 194 349 194 q 490 247 460 194 q 522 390 519 299 l 389 390 l 389 563 l 740 563 q 744 469 744 515 q 654 113 744 239 q 396 -12 564 -12 m 338 1264 l 497 1264 l 625 1053 l 468 1053 l 417 1138 l 365 1053 l 211 1053 l 338 1264 z "},"Ģ":{"ha":788,"x_min":49,"x_max":744,"o":"m 396 -12 q 138 117 228 -12 q 49 486 49 246 q 144 858 49 732 q 424 985 239 985 q 660 924 547 985 l 660 711 q 468 768 565 768 q 328 699 372 768 q 285 475 285 629 q 317 267 285 340 q 408 194 349 194 q 490 247 460 194 q 522 390 519 299 l 389 390 l 389 563 l 740 563 q 744 469 744 515 q 654 113 744 239 q 396 -12 564 -12 m 346 -387 q 389 -247 385 -300 q 333 -219 354 -244 q 311 -156 311 -194 q 335 -90 311 -115 q 397 -64 360 -64 q 463 -95 439 -64 q 488 -179 488 -126 q 428 -387 488 -276 l 346 -387 z "},"Ġ":{"ha":788,"x_min":49,"x_max":744,"o":"m 396 -12 q 138 117 228 -12 q 49 486 49 246 q 144 858 49 732 q 424 985 239 985 q 660 924 547 985 l 660 711 q 468 768 565 768 q 328 699 372 768 q 285 475 285 629 q 317 267 285 340 q 408 194 349 194 q 490 247 460 194 q 522 390 519 299 l 389 390 l 389 563 l 740 563 q 744 469 744 515 q 654 113 744 239 q 396 -12 564 -12 m 308 1160 q 339 1242 308 1211 q 418 1274 369 1274 q 497 1242 467 1274 q 528 1160 528 1211 q 497 1076 528 1107 q 418 1044 467 1044 q 339 1076 369 1044 q 308 1160 308 1107 z "},"H":{"ha":815,"x_min":76,"x_max":739,"o":"m 499 379 l 317 379 l 317 0 l 76 0 l 76 972 l 317 972 l 317 606 l 499 606 l 499 972 l 739 972 l 739 0 l 499 0 l 499 379 z "},"Ħ":{"ha":903,"x_min":39,"x_max":863,"o":"m 539 375 l 364 375 l 364 0 l 122 0 l 122 697 l 39 697 l 39 850 l 122 850 l 122 972 l 364 972 l 364 843 l 539 843 l 539 972 l 779 972 l 779 850 l 863 850 l 863 697 l 779 697 l 779 0 l 539 0 l 539 375 m 539 574 l 539 704 l 364 704 l 364 574 l 539 574 z "},"Ĥ":{"ha":815,"x_min":76,"x_max":739,"o":"m 499 379 l 317 379 l 317 0 l 76 0 l 76 972 l 317 972 l 317 606 l 499 606 l 499 972 l 739 972 l 739 0 l 499 0 l 499 379 m 326 1264 l 488 1264 l 614 1053 l 458 1053 l 407 1138 l 356 1053 l 200 1053 l 326 1264 z "},"I":{"ha":571,"x_min":54,"x_max":515,"o":"m 54 201 l 165 201 l 165 771 l 63 771 l 63 972 l 507 972 l 507 771 l 406 771 l 406 201 l 515 201 l 515 0 l 54 0 l 54 201 z "},"Ĳ":{"ha":1129,"x_min":54,"x_max":1058,"o":"m 54 201 l 165 201 l 165 771 l 63 771 l 63 972 l 507 972 l 507 771 l 406 771 l 406 201 l 515 201 l 515 0 l 54 0 l 54 201 m 776 -12 q 608 17 696 -12 l 608 226 q 707 206 663 206 q 791 239 764 206 q 818 342 818 272 l 818 771 l 697 771 l 697 972 l 1058 972 l 1058 300 q 984 70 1058 153 q 776 -12 910 -12 z "},"Í":{"ha":571,"x_min":54,"x_max":515,"o":"m 54 201 l 165 201 l 165 771 l 63 771 l 63 972 l 507 972 l 507 771 l 406 771 l 406 201 l 515 201 l 515 0 l 54 0 l 54 201 m 272 1264 l 454 1264 l 356 1054 l 210 1054 l 272 1264 z "},"Ĭ":{"ha":571,"x_min":54,"x_max":515,"o":"m 54 201 l 165 201 l 165 771 l 63 771 l 63 972 l 507 972 l 507 771 l 406 771 l 406 201 l 515 201 l 515 0 l 54 0 l 54 201 m 240 1264 q 239 1240 239 1256 q 251 1190 239 1208 q 285 1171 263 1171 q 319 1190 307 1171 q 332 1240 332 1208 q 331 1264 332 1256 l 453 1264 q 457 1218 457 1242 q 410 1094 457 1140 q 285 1049 364 1049 q 160 1094 206 1049 q 114 1217 114 1139 q 118 1264 114 1239 l 240 1264 z "},"Î":{"ha":571,"x_min":54,"x_max":515,"o":"m 54 201 l 165 201 l 165 771 l 63 771 l 63 972 l 507 972 l 507 771 l 406 771 l 406 201 l 515 201 l 515 0 l 54 0 l 54 201 m 204 1264 l 364 1264 l 492 1053 l 335 1053 l 283 1138 l 232 1053 l 78 1053 l 204 1264 z "},"Ï":{"ha":571,"x_min":54,"x_max":515,"o":"m 54 201 l 165 201 l 165 771 l 63 771 l 63 972 l 507 972 l 507 771 l 406 771 l 406 201 l 515 201 l 515 0 l 54 0 l 54 201 m 68 1156 q 95 1231 68 1203 q 167 1258 122 1258 q 238 1231 211 1258 q 264 1156 264 1203 q 238 1081 264 1108 q 167 1053 211 1053 q 95 1081 122 1053 q 68 1156 68 1108 m 306 1156 q 333 1231 306 1203 q 404 1258 360 1258 q 475 1231 449 1258 q 501 1156 501 1203 q 475 1081 501 1108 q 404 1053 449 1053 q 333 1081 360 1053 q 306 1156 306 1108 z "},"İ":{"ha":571,"x_min":54,"x_max":515,"o":"m 54 201 l 165 201 l 165 771 l 63 771 l 63 972 l 507 972 l 507 771 l 406 771 l 406 201 l 515 201 l 515 0 l 54 0 l 54 201 m 176 1160 q 207 1242 176 1211 q 285 1274 238 1274 q 364 1242 333 1274 q 394 1160 394 1211 q 364 1076 394 1107 q 285 1044 333 1044 q 207 1076 238 1044 q 176 1160 176 1107 z "},"Ị":{"ha":571,"x_min":54,"x_max":515,"o":"m 54 201 l 165 201 l 165 771 l 63 771 l 63 972 l 507 972 l 507 771 l 406 771 l 406 201 l 515 201 l 515 0 l 54 0 l 54 201 z "},"Ì":{"ha":571,"x_min":54,"x_max":515,"o":"m 54 201 l 165 201 l 165 771 l 63 771 l 63 972 l 507 972 l 507 771 l 406 771 l 406 201 l 515 201 l 515 0 l 54 0 l 54 201 m 297 1264 l 360 1054 l 215 1054 l 115 1264 l 297 1264 z "},"Ī":{"ha":571,"x_min":54,"x_max":515,"o":"m 54 201 l 165 201 l 165 771 l 63 771 l 63 972 l 507 972 l 507 771 l 406 771 l 406 201 l 515 201 l 515 0 l 54 0 l 54 201 m 122 1210 l 449 1210 l 449 1075 l 122 1075 l 122 1210 z "},"Į":{"ha":571,"x_min":54,"x_max":515,"o":"m 54 201 l 165 201 l 165 771 l 63 771 l 63 972 l 507 972 l 507 771 l 406 771 l 406 201 l 515 201 l 515 0 l 396 0 q 349 -54 368 -21 q 331 -119 331 -87 q 342 -157 331 -143 q 375 -171 354 -171 q 400 -167 388 -171 l 400 -292 q 313 -306 357 -306 q 201 -268 243 -306 q 160 -167 160 -231 q 177 -81 160 -124 q 226 0 194 -37 l 54 0 l 54 201 z "},"Ĩ":{"ha":571,"x_min":54,"x_max":515,"o":"m 54 201 l 165 201 l 165 771 l 63 771 l 63 972 l 507 972 l 507 771 l 406 771 l 406 201 l 515 201 l 515 0 l 54 0 l 54 201 m 103 1065 q 100 1113 100 1082 q 127 1215 100 1179 q 204 1250 154 1250 q 256 1238 236 1250 q 297 1206 276 1226 q 331 1183 317 1183 q 351 1246 356 1183 l 467 1246 q 469 1200 469 1215 q 443 1099 469 1136 q 365 1061 417 1061 q 314 1074 335 1061 q 272 1107 293 1086 q 239 1129 253 1129 q 218 1065 214 1129 l 103 1065 z "},"J":{"ha":558,"x_min":38,"x_max":488,"o":"m 206 -12 q 38 17 125 -12 l 38 226 q 136 206 92 206 q 220 239 193 206 q 247 342 247 272 l 247 771 l 126 771 l 126 972 l 488 972 l 488 300 q 413 70 488 153 q 206 -12 339 -12 z "},"Ĵ":{"ha":558,"x_min":38,"x_max":514,"o":"m 206 -12 q 38 17 125 -12 l 38 226 q 136 206 92 206 q 220 239 193 206 q 247 342 247 272 l 247 771 l 126 771 l 126 972 l 488 972 l 488 300 q 413 70 488 153 q 206 -12 339 -12 m 226 1264 l 386 1264 l 514 1053 l 357 1053 l 306 1138 l 254 1053 l 100 1053 l 226 1264 z "},"K":{"ha":821,"x_min":76,"x_max":783,"o":"m 378 379 l 317 379 l 317 0 l 76 0 l 76 972 l 317 972 l 317 606 l 376 606 l 524 972 l 776 972 l 582 499 l 783 0 l 529 0 l 378 379 z "},"Ķ":{"ha":821,"x_min":76,"x_max":783,"o":"m 378 379 l 317 379 l 317 0 l 76 0 l 76 972 l 317 972 l 317 606 l 376 606 l 524 972 l 776 972 l 582 499 l 783 0 l 529 0 l 378 379 m 363 -387 q 406 -247 401 -300 q 349 -219 371 -244 q 328 -156 328 -194 q 352 -90 328 -115 q 414 -64 376 -64 q 480 -95 456 -64 q 504 -179 504 -126 q 444 -387 504 -276 l 363 -387 z "},"L":{"ha":575,"x_min":76,"x_max":549,"o":"m 76 972 l 317 972 l 317 226 l 549 226 l 549 0 l 76 0 l 76 972 z "},"Ĺ":{"ha":575,"x_min":76,"x_max":549,"o":"m 76 972 l 317 972 l 317 226 l 549 226 l 549 0 l 76 0 l 76 972 m 185 1264 l 367 1264 l 268 1054 l 122 1054 l 185 1264 z "},"Ľ":{"ha":631,"x_min":76,"x_max":590,"o":"m 76 972 l 317 972 l 317 226 l 549 226 l 549 0 l 76 0 l 76 972 m 429 972 l 590 972 l 535 701 l 404 701 l 429 972 z "},"Ļ":{"ha":575,"x_min":76,"x_max":549,"o":"m 76 972 l 317 972 l 317 226 l 549 226 l 549 0 l 76 0 l 76 972 m 257 -387 q 300 -247 296 -300 q 244 -219 265 -244 q 222 -156 222 -194 q 247 -90 222 -115 q 308 -64 271 -64 q 374 -95 350 -64 q 399 -179 399 -126 q 339 -387 399 -276 l 257 -387 z "},"Ŀ":{"ha":636,"x_min":76,"x_max":604,"o":"m 76 972 l 317 972 l 317 226 l 549 226 l 549 0 l 76 0 l 76 972 m 379 550 q 410 633 379 601 q 492 665 442 665 q 573 633 542 665 q 604 550 604 601 q 573 465 604 497 q 492 432 542 432 q 410 465 442 432 q 379 550 379 497 z "},"Ł":{"ha":635,"x_min":39,"x_max":599,"o":"m 128 344 l 39 296 l 39 483 l 128 532 l 128 972 l 368 972 l 368 665 l 517 747 l 517 558 l 368 476 l 368 226 l 599 226 l 599 0 l 128 0 l 128 344 z "},"M":{"ha":1017,"x_min":42,"x_max":975,"o":"m 142 972 l 308 972 l 508 506 l 708 972 l 875 972 l 975 0 l 735 0 l 692 465 l 575 188 l 440 188 l 324 464 l 282 0 l 42 0 l 142 972 z "},"N":{"ha":804,"x_min":76,"x_max":728,"o":"m 76 972 l 243 972 l 493 514 l 493 972 l 728 972 l 728 0 l 563 0 l 311 461 l 311 0 l 76 0 l 76 972 z "},"Ń":{"ha":804,"x_min":76,"x_max":728,"o":"m 76 972 l 243 972 l 493 514 l 493 972 l 728 972 l 728 0 l 563 0 l 311 461 l 311 0 l 76 0 l 76 972 m 382 1264 l 565 1264 l 465 1054 l 319 1054 l 382 1264 z "},"Ň":{"ha":804,"x_min":76,"x_max":728,"o":"m 76 972 l 243 972 l 493 514 l 493 972 l 728 972 l 728 0 l 563 0 l 311 461 l 311 0 l 76 0 l 76 972 m 342 1264 l 393 1179 l 444 1264 l 601 1264 l 475 1054 l 314 1054 l 188 1264 l 342 1264 z "},"Ņ":{"ha":804,"x_min":76,"x_max":728,"o":"m 76 972 l 243 972 l 493 514 l 493 972 l 728 972 l 728 0 l 563 0 l 311 461 l 311 0 l 76 0 l 76 972 m 358 -387 q 401 -247 397 -300 q 345 -219 367 -244 q 324 -156 324 -194 q 348 -90 324 -115 q 410 -64 372 -64 q 476 -95 451 -64 q 500 -179 500 -126 q 440 -387 500 -276 l 358 -387 z "},"Ñ":{"ha":804,"x_min":76,"x_max":728,"o":"m 76 972 l 243 972 l 493 514 l 493 972 l 728 972 l 728 0 l 563 0 l 311 461 l 311 0 l 76 0 l 76 972 m 214 1065 q 210 1115 210 1093 q 238 1215 210 1181 q 314 1250 265 1250 q 366 1238 346 1250 q 407 1206 386 1226 q 440 1183 426 1183 q 461 1246 465 1183 l 576 1246 q 581 1199 581 1221 q 553 1098 581 1135 q 475 1061 526 1061 q 425 1073 444 1061 q 383 1107 406 1085 q 366 1123 375 1117 q 350 1129 357 1129 q 329 1065 324 1129 l 214 1065 z "},"Ŋ":{"ha":804,"x_min":76,"x_max":728,"o":"m 76 972 l 243 972 l 493 514 l 493 972 l 728 972 l 728 -24 q 674 -221 728 -158 q 506 -283 621 -283 q 400 -269 456 -283 l 400 -90 q 444 -97 424 -97 q 490 -82 478 -97 q 503 -24 503 -67 l 503 110 l 311 461 l 311 0 l 76 0 l 76 972 z "},"O":{"ha":818,"x_min":49,"x_max":769,"o":"m 408 -12 q 143 119 238 -12 q 49 486 49 250 q 143 853 49 722 q 408 985 238 985 q 675 853 581 985 q 769 486 769 722 q 675 119 769 250 q 408 -12 581 -12 m 297 486 q 324 274 297 343 q 408 206 351 206 q 493 274 465 206 q 521 486 521 343 q 493 698 521 629 q 408 767 465 767 q 324 698 351 767 q 297 486 297 629 z "},"Ó":{"ha":818,"x_min":49,"x_max":769,"o":"m 408 -12 q 143 119 238 -12 q 49 486 49 250 q 143 853 49 722 q 408 985 238 985 q 675 853 581 985 q 769 486 769 722 q 675 119 769 250 q 408 -12 581 -12 m 297 486 q 324 274 297 343 q 408 206 351 206 q 493 274 465 206 q 521 486 521 343 q 493 698 521 629 q 408 767 465 767 q 324 698 351 767 q 297 486 297 629 m 396 1264 l 579 1264 l 479 1054 l 333 1054 l 396 1264 z "},"Ŏ":{"ha":818,"x_min":49,"x_max":769,"o":"m 408 -12 q 143 119 238 -12 q 49 486 49 250 q 143 853 49 722 q 408 985 238 985 q 675 853 581 985 q 769 486 769 722 q 675 119 769 250 q 408 -12 581 -12 m 364 1264 q 363 1240 363 1256 q 374 1190 363 1208 q 408 1171 386 1171 q 443 1190 431 1171 q 456 1240 456 1208 q 454 1264 456 1256 l 576 1264 q 581 1217 581 1239 q 535 1094 581 1139 q 408 1049 489 1049 q 283 1094 329 1049 q 238 1217 238 1139 q 242 1264 238 1239 l 364 1264 m 297 486 q 324 274 297 343 q 408 206 351 206 q 493 274 465 206 q 521 486 521 343 q 493 698 521 629 q 408 767 465 767 q 324 698 351 767 q 297 486 297 629 z "},"Ô":{"ha":818,"x_min":49,"x_max":769,"o":"m 408 -12 q 143 119 238 -12 q 49 486 49 250 q 143 853 49 722 q 408 985 238 985 q 675 853 581 985 q 769 486 769 722 q 675 119 769 250 q 408 -12 581 -12 m 328 1264 l 489 1264 l 615 1053 l 458 1053 l 408 1138 l 357 1053 l 201 1053 l 328 1264 m 297 486 q 324 274 297 343 q 408 206 351 206 q 493 274 465 206 q 521 486 521 343 q 493 698 521 629 q 408 767 465 767 q 324 698 351 767 q 297 486 297 629 z "},"Ö":{"ha":818,"x_min":49,"x_max":769,"o":"m 408 -12 q 143 119 238 -12 q 49 486 49 250 q 143 853 49 722 q 408 985 238 985 q 675 853 581 985 q 769 486 769 722 q 675 119 769 250 q 408 -12 581 -12 m 192 1156 q 219 1231 192 1203 q 290 1258 246 1258 q 362 1231 335 1258 q 389 1156 389 1203 q 362 1081 389 1108 q 290 1053 335 1053 q 219 1081 246 1053 q 192 1156 192 1108 m 297 486 q 324 274 297 343 q 408 206 351 206 q 493 274 465 206 q 521 486 521 343 q 493 698 521 629 q 408 767 465 767 q 324 698 351 767 q 297 486 297 629 m 429 1156 q 456 1231 429 1203 q 528 1258 483 1258 q 599 1231 572 1258 q 626 1156 626 1203 q 599 1081 626 1108 q 528 1053 572 1053 q 456 1081 483 1053 q 429 1156 429 1108 z "},"Ọ":{"ha":818,"x_min":49,"x_max":769,"o":"m 408 -12 q 143 119 238 -12 q 49 486 49 250 q 143 853 49 722 q 408 985 238 985 q 675 853 581 985 q 769 486 769 722 q 675 119 769 250 q 408 -12 581 -12 m 297 486 q 324 274 297 343 q 408 206 351 206 q 493 274 465 206 q 521 486 521 343 q 493 698 521 629 q 408 767 465 767 q 324 698 351 767 q 297 486 297 629 z "},"Ò":{"ha":818,"x_min":49,"x_max":769,"o":"m 408 -12 q 143 119 238 -12 q 49 486 49 250 q 143 853 49 722 q 408 985 238 985 q 675 853 581 985 q 769 486 769 722 q 675 119 769 250 q 408 -12 581 -12 m 422 1264 l 485 1054 l 339 1054 l 239 1264 l 422 1264 m 297 486 q 324 274 297 343 q 408 206 351 206 q 493 274 465 206 q 521 486 521 343 q 493 698 521 629 q 408 767 465 767 q 324 698 351 767 q 297 486 297 629 z "},"Ő":{"ha":818,"x_min":49,"x_max":769,"o":"m 408 -12 q 143 119 238 -12 q 49 486 49 250 q 143 853 49 722 q 408 985 238 985 q 675 853 581 985 q 769 486 769 722 q 675 119 769 250 q 408 -12 581 -12 m 283 1264 l 456 1264 l 379 1053 l 235 1053 l 283 1264 m 297 486 q 324 274 297 343 q 408 206 351 206 q 493 274 465 206 q 521 486 521 343 q 493 698 521 629 q 408 767 465 767 q 324 698 351 767 q 297 486 297 629 m 504 1264 l 675 1264 l 578 1053 l 436 1053 l 504 1264 z "},"Ō":{"ha":818,"x_min":49,"x_max":769,"o":"m 408 -12 q 143 119 238 -12 q 49 486 49 250 q 143 853 49 722 q 408 985 238 985 q 675 853 581 985 q 769 486 769 722 q 675 119 769 250 q 408 -12 581 -12 m 246 1210 l 572 1210 l 572 1075 l 246 1075 l 246 1210 m 297 486 q 324 274 297 343 q 408 206 351 206 q 493 274 465 206 q 521 486 521 343 q 493 698 521 629 q 408 767 465 767 q 324 698 351 767 q 297 486 297 629 z "},"Ǫ":{"ha":818,"x_min":49,"x_max":769,"o":"m 571 -292 q 483 -306 525 -306 q 372 -269 414 -306 q 331 -167 331 -232 q 389 -12 331 -86 q 138 126 226 -4 q 49 486 49 257 q 143 853 49 722 q 408 985 238 985 q 675 853 581 985 q 769 486 769 722 q 600 42 769 169 q 527 -36 553 6 q 501 -118 501 -78 q 513 -157 501 -143 q 546 -171 525 -171 q 571 -167 557 -171 l 571 -292 m 297 486 q 324 274 297 343 q 408 206 351 206 q 493 274 465 206 q 521 486 521 343 q 493 698 521 629 q 408 767 465 767 q 324 698 351 767 q 297 486 297 629 z "},"Ø":{"ha":818,"x_min":49,"x_max":769,"o":"m 161 94 q 49 486 49 229 q 143 853 49 722 q 408 985 238 985 q 524 967 474 985 l 578 1097 l 747 1097 l 656 878 q 740 715 711 814 q 769 486 769 615 q 675 119 769 250 q 408 -12 581 -12 q 294 6 344 -12 l 240 -125 l 71 -125 l 161 94 m 297 486 q 324 274 297 343 q 408 206 351 206 q 493 274 465 206 q 521 486 521 343 q 493 698 521 629 q 408 767 465 767 q 324 698 351 767 q 297 486 297 629 z "},"Ǿ":{"ha":818,"x_min":49,"x_max":769,"o":"m 161 94 q 49 486 49 229 q 143 853 49 722 q 408 985 238 985 q 524 967 474 985 l 578 1097 l 747 1097 l 656 878 q 740 715 711 814 q 769 486 769 615 q 675 119 769 250 q 408 -12 581 -12 q 294 6 344 -12 l 240 -125 l 71 -125 l 161 94 m 297 486 q 324 274 297 343 q 408 206 351 206 q 493 274 465 206 q 521 486 521 343 q 493 698 521 629 q 408 767 465 767 q 324 698 351 767 q 297 486 297 629 m 396 1264 l 579 1264 l 479 1054 l 333 1054 l 396 1264 z "},"Õ":{"ha":818,"x_min":49,"x_max":769,"o":"m 408 -12 q 143 119 238 -12 q 49 486 49 250 q 143 853 49 722 q 408 985 238 985 q 675 853 581 985 q 769 486 769 722 q 675 119 769 250 q 408 -12 581 -12 m 228 1065 q 224 1115 224 1093 q 251 1215 224 1181 q 328 1250 279 1250 q 380 1238 360 1250 q 421 1206 400 1226 q 454 1183 440 1183 q 475 1246 479 1183 l 590 1246 q 594 1199 594 1221 q 567 1098 594 1135 q 489 1061 540 1061 q 439 1073 458 1061 q 397 1107 419 1085 q 380 1123 389 1117 q 364 1129 371 1129 q 343 1065 338 1129 l 228 1065 m 297 486 q 324 274 297 343 q 408 206 351 206 q 493 274 465 206 q 521 486 521 343 q 493 698 521 629 q 408 767 465 767 q 324 698 351 767 q 297 486 297 629 z "},"Œ":{"ha":1001,"x_min":49,"x_max":944,"o":"m 422 -12 q 147 119 244 -12 q 49 486 49 250 q 147 853 49 722 q 422 985 244 985 q 535 972 476 985 l 939 972 l 939 775 l 719 775 l 719 585 l 914 585 l 914 399 l 719 399 l 719 199 l 944 199 l 944 0 l 535 0 q 422 -12 476 -12 m 297 486 q 331 271 297 336 q 442 206 365 206 q 497 213 465 206 l 497 760 q 442 767 465 767 q 331 701 365 767 q 297 486 297 636 z "},"P":{"ha":736,"x_min":76,"x_max":700,"o":"m 76 972 l 368 972 q 613 882 526 972 q 700 625 700 792 q 613 368 700 458 q 368 278 526 278 l 317 278 l 317 0 l 76 0 l 76 972 m 333 471 q 436 507 404 471 q 468 621 468 543 q 436 735 468 699 q 333 771 404 771 l 304 771 l 304 471 l 333 471 z "},"Þ":{"ha":736,"x_min":76,"x_max":700,"o":"m 76 972 l 317 972 l 317 835 l 368 835 q 613 744 526 835 q 700 488 700 654 q 613 230 700 321 q 368 139 526 139 l 317 139 l 317 0 l 76 0 l 76 972 m 333 336 q 436 372 404 336 q 468 488 468 408 q 436 601 468 565 q 333 636 404 636 l 304 636 l 304 336 l 333 336 z "},"Q":{"ha":818,"x_min":49,"x_max":769,"o":"m 506 -267 q 307 -62 307 -267 l 307 1 q 116 163 183 38 q 49 486 49 288 q 143 853 49 722 q 408 985 238 985 q 675 853 581 985 q 769 486 769 722 q 701 159 769 285 q 503 -1 632 33 l 503 -44 q 514 -89 503 -76 q 556 -101 525 -101 q 615 -89 589 -101 l 615 -253 q 506 -267 560 -267 m 297 486 q 324 274 297 343 q 408 206 351 206 q 493 274 465 206 q 521 486 521 343 q 493 698 521 629 q 408 767 465 767 q 324 698 351 767 q 297 486 297 629 z "},"R":{"ha":781,"x_min":76,"x_max":731,"o":"m 76 972 l 401 972 q 638 884 553 972 q 722 639 722 796 q 690 471 722 543 q 594 357 657 399 l 731 0 l 479 0 l 381 306 l 317 306 l 317 0 l 76 0 l 76 972 m 360 489 q 451 524 421 489 q 481 632 481 558 q 451 740 481 704 q 360 775 421 775 l 311 775 l 311 489 l 360 489 z "},"Ŕ":{"ha":781,"x_min":76,"x_max":731,"o":"m 76 972 l 401 972 q 638 884 553 972 q 722 639 722 796 q 690 471 722 543 q 594 357 657 399 l 731 0 l 479 0 l 381 306 l 317 306 l 317 0 l 76 0 l 76 972 m 344 1264 l 528 1264 l 428 1054 l 282 1054 l 344 1264 m 360 489 q 451 524 421 489 q 481 632 481 558 q 451 740 481 704 q 360 775 421 775 l 311 775 l 311 489 l 360 489 z "},"Ř":{"ha":781,"x_min":76,"x_max":731,"o":"m 76 972 l 401 972 q 638 884 553 972 q 722 639 722 796 q 690 471 722 543 q 594 357 657 399 l 731 0 l 479 0 l 381 306 l 317 306 l 317 0 l 76 0 l 76 972 m 306 1264 l 357 1178 l 408 1264 l 564 1264 l 438 1054 l 276 1054 l 150 1264 l 306 1264 m 360 489 q 451 524 421 489 q 481 632 481 558 q 451 740 481 704 q 360 775 421 775 l 311 775 l 311 489 l 360 489 z "},"Ŗ":{"ha":781,"x_min":76,"x_max":731,"o":"m 76 972 l 401 972 q 638 884 553 972 q 722 639 722 796 q 690 471 722 543 q 594 357 657 399 l 731 0 l 479 0 l 381 306 l 317 306 l 317 0 l 76 0 l 76 972 m 360 489 q 451 524 421 489 q 481 632 481 558 q 451 740 481 704 q 360 775 421 775 l 311 775 l 311 489 l 360 489 m 339 -387 q 382 -247 378 -300 q 326 -219 347 -244 q 304 -156 304 -194 q 328 -90 304 -115 q 390 -64 353 -64 q 456 -95 432 -64 q 481 -179 481 -126 q 421 -387 481 -276 l 339 -387 z "},"S":{"ha":660,"x_min":58,"x_max":608,"o":"m 325 -12 q 58 75 189 -12 l 58 293 q 285 196 189 196 q 350 217 328 196 q 372 276 372 238 q 344 349 372 322 q 254 413 315 376 q 156 476 194 446 q 89 563 117 507 q 61 701 61 618 q 97 853 61 789 q 197 951 133 917 q 342 985 261 985 q 583 914 463 985 l 583 699 q 477 756 529 735 q 382 776 425 776 q 319 756 340 776 q 297 697 297 736 q 326 624 297 653 q 417 561 356 596 q 515 494 478 525 q 581 410 553 464 q 608 275 608 356 q 573 124 608 189 q 473 23 538 58 q 325 -12 408 -12 z "},"Ś":{"ha":660,"x_min":58,"x_max":608,"o":"m 325 -12 q 58 75 189 -12 l 58 293 q 285 196 189 196 q 350 217 328 196 q 372 276 372 238 q 344 349 372 322 q 254 413 315 376 q 156 476 194 446 q 89 563 117 507 q 61 701 61 618 q 97 853 61 789 q 197 951 133 917 q 342 985 261 985 q 583 914 463 985 l 583 699 q 477 756 529 735 q 382 776 425 776 q 319 756 340 776 q 297 697 297 736 q 326 624 297 653 q 417 561 356 596 q 515 494 478 525 q 581 410 553 464 q 608 275 608 356 q 573 124 608 189 q 473 23 538 58 q 325 -12 408 -12 m 322 1264 l 506 1264 l 406 1054 l 260 1054 l 322 1264 z "},"Š":{"ha":660,"x_min":58,"x_max":608,"o":"m 325 -12 q 58 75 189 -12 l 58 293 q 285 196 189 196 q 350 217 328 196 q 372 276 372 238 q 344 349 372 322 q 254 413 315 376 q 156 476 194 446 q 89 563 117 507 q 61 701 61 618 q 97 853 61 789 q 197 951 133 917 q 342 985 261 985 q 583 914 463 985 l 583 699 q 477 756 529 735 q 382 776 425 776 q 319 756 340 776 q 297 697 297 736 q 326 624 297 653 q 417 561 356 596 q 515 494 478 525 q 581 410 553 464 q 608 275 608 356 q 573 124 608 189 q 473 23 538 58 q 325 -12 408 -12 m 283 1264 l 335 1179 l 386 1264 l 542 1264 l 415 1054 l 254 1054 l 128 1264 l 283 1264 z "},"Ş":{"ha":660,"x_min":58,"x_max":608,"o":"m 254 -7 q 58 75 154 11 l 58 293 q 285 196 189 196 q 350 217 328 196 q 372 276 372 238 q 344 349 372 322 q 254 413 315 376 q 156 476 194 446 q 89 563 117 507 q 61 701 61 618 q 97 853 61 789 q 197 951 133 917 q 342 985 261 985 q 583 914 463 985 l 583 699 q 477 756 529 735 q 382 776 425 776 q 319 756 340 776 q 297 697 297 736 q 326 624 297 653 q 417 561 356 596 q 515 494 478 525 q 581 410 553 464 q 608 275 608 356 q 555 95 608 169 q 410 -3 501 21 l 376 -233 l 213 -233 l 254 -7 z "},"Ŝ":{"ha":660,"x_min":58,"x_max":608,"o":"m 325 -12 q 58 75 189 -12 l 58 293 q 285 196 189 196 q 350 217 328 196 q 372 276 372 238 q 344 349 372 322 q 254 413 315 376 q 156 476 194 446 q 89 563 117 507 q 61 701 61 618 q 97 853 61 789 q 197 951 133 917 q 342 985 261 985 q 583 914 463 985 l 583 699 q 477 756 529 735 q 382 776 425 776 q 319 756 340 776 q 297 697 297 736 q 326 624 297 653 q 417 561 356 596 q 515 494 478 525 q 581 410 553 464 q 608 275 608 356 q 573 124 608 189 q 473 23 538 58 q 325 -12 408 -12 m 254 1264 l 415 1264 l 542 1053 l 386 1053 l 335 1138 l 283 1053 l 128 1053 l 254 1264 z "},"Ș":{"ha":660,"x_min":58,"x_max":608,"o":"m 325 -12 q 58 75 189 -12 l 58 293 q 285 196 189 196 q 350 217 328 196 q 372 276 372 238 q 344 349 372 322 q 254 413 315 376 q 156 476 194 446 q 89 563 117 507 q 61 701 61 618 q 97 853 61 789 q 197 951 133 917 q 342 985 261 985 q 583 914 463 985 l 583 699 q 477 756 529 735 q 382 776 425 776 q 319 756 340 776 q 297 697 297 736 q 326 624 297 653 q 417 561 356 596 q 515 494 478 525 q 581 410 553 464 q 608 275 608 356 q 573 124 608 189 q 473 23 538 58 q 325 -12 408 -12 m 274 -387 q 317 -247 313 -300 q 260 -219 282 -244 q 239 -156 239 -194 q 263 -90 239 -115 q 325 -64 288 -64 q 391 -95 367 -64 q 415 -179 415 -126 q 356 -387 415 -276 l 274 -387 z "},"ẞ":{"ha":824,"x_min":68,"x_max":776,"o":"m 497 -10 q 368 10 431 -10 l 368 203 q 440 188 404 188 q 513 220 489 188 q 536 321 536 253 q 510 421 536 389 q 428 453 485 453 q 383 449 408 453 l 383 554 l 494 786 l 407 786 q 308 668 308 786 l 308 0 l 68 0 l 68 675 q 140 897 68 821 q 349 972 211 972 l 721 972 l 721 847 l 603 597 q 731 495 686 571 q 776 304 776 419 q 703 74 776 157 q 497 -10 629 -10 z "},"T":{"ha":661,"x_min":32,"x_max":628,"o":"m 210 751 l 32 751 l 32 972 l 628 972 l 628 751 l 450 751 l 450 0 l 210 0 l 210 751 z "},"Ŧ":{"ha":665,"x_min":35,"x_max":631,"o":"m 96 536 l 213 536 l 213 757 l 35 757 l 35 972 l 631 972 l 631 757 l 453 757 l 453 536 l 569 536 l 569 347 l 453 347 l 453 0 l 213 0 l 213 347 l 96 347 l 96 536 z "},"Ť":{"ha":661,"x_min":32,"x_max":628,"o":"m 210 751 l 32 751 l 32 972 l 628 972 l 628 751 l 450 751 l 450 0 l 210 0 l 210 751 m 278 1264 l 329 1179 l 381 1264 l 538 1264 l 410 1054 l 250 1054 l 124 1264 l 278 1264 z "},"Ţ":{"ha":661,"x_min":32,"x_max":628,"o":"m 210 751 l 32 751 l 32 972 l 628 972 l 628 751 l 450 751 l 450 0 l 411 0 l 378 -233 l 214 -233 l 257 0 l 210 0 l 210 751 z "},"Ț":{"ha":661,"x_min":32,"x_max":628,"o":"m 210 751 l 32 751 l 32 972 l 628 972 l 628 751 l 450 751 l 450 0 l 210 0 l 210 751 m 276 -387 q 319 -247 315 -300 q 263 -219 285 -244 q 242 -156 242 -194 q 266 -90 242 -115 q 328 -64 290 -64 q 394 -95 369 -64 q 418 -179 418 -126 q 358 -387 418 -276 l 276 -387 z "},"U":{"ha":796,"x_min":68,"x_max":728,"o":"m 399 -12 q 153 78 239 -12 q 68 343 68 169 l 68 972 l 308 972 l 308 321 q 399 206 308 206 q 488 321 488 206 l 488 972 l 728 972 l 728 343 q 642 78 728 169 q 399 -12 557 -12 z "},"Ú":{"ha":796,"x_min":68,"x_max":728,"o":"m 399 -12 q 153 78 239 -12 q 68 343 68 169 l 68 972 l 308 972 l 308 321 q 399 206 308 206 q 488 321 488 206 l 488 972 l 728 972 l 728 343 q 642 78 728 169 q 399 -12 557 -12 m 385 1264 l 568 1264 l 468 1054 l 322 1054 l 385 1264 z "},"Ŭ":{"ha":796,"x_min":68,"x_max":728,"o":"m 399 -12 q 153 78 239 -12 q 68 343 68 169 l 68 972 l 308 972 l 308 321 q 399 206 308 206 q 488 321 488 206 l 488 972 l 728 972 l 728 343 q 642 78 728 169 q 399 -12 557 -12 m 353 1264 q 351 1240 351 1256 q 364 1190 351 1208 q 399 1171 376 1171 q 433 1190 421 1171 q 444 1240 444 1208 q 443 1264 444 1256 l 565 1264 q 569 1217 569 1239 q 524 1094 569 1139 q 399 1049 478 1049 q 272 1094 318 1049 q 226 1217 226 1139 q 231 1264 226 1239 l 353 1264 z "},"Û":{"ha":796,"x_min":68,"x_max":728,"o":"m 399 -12 q 153 78 239 -12 q 68 343 68 169 l 68 972 l 308 972 l 308 321 q 399 206 308 206 q 488 321 488 206 l 488 972 l 728 972 l 728 343 q 642 78 728 169 q 399 -12 557 -12 m 317 1264 l 478 1264 l 604 1053 l 449 1053 l 397 1138 l 346 1053 l 190 1053 l 317 1264 z "},"Ü":{"ha":796,"x_min":68,"x_max":728,"o":"m 399 -12 q 153 78 239 -12 q 68 343 68 169 l 68 972 l 308 972 l 308 321 q 399 206 308 206 q 488 321 488 206 l 488 972 l 728 972 l 728 343 q 642 78 728 169 q 399 -12 557 -12 m 181 1156 q 208 1231 181 1203 q 279 1258 235 1258 q 351 1231 324 1258 q 378 1156 378 1203 q 351 1081 378 1108 q 279 1053 324 1053 q 208 1081 235 1053 q 181 1156 181 1108 m 419 1156 q 446 1231 419 1203 q 517 1258 472 1258 q 588 1231 561 1258 q 615 1156 615 1203 q 588 1081 615 1108 q 517 1053 561 1053 q 446 1081 472 1053 q 419 1156 419 1108 z "},"Ụ":{"ha":796,"x_min":68,"x_max":728,"o":"m 399 -12 q 153 78 239 -12 q 68 343 68 169 l 68 972 l 308 972 l 308 321 q 399 206 308 206 q 488 321 488 206 l 488 972 l 728 972 l 728 343 q 642 78 728 169 q 399 -12 557 -12 z "},"Ù":{"ha":796,"x_min":68,"x_max":728,"o":"m 399 -12 q 153 78 239 -12 q 68 343 68 169 l 68 972 l 308 972 l 308 321 q 399 206 308 206 q 488 321 488 206 l 488 972 l 728 972 l 728 343 q 642 78 728 169 q 399 -12 557 -12 m 411 1264 l 474 1054 l 328 1054 l 228 1264 l 411 1264 z "},"Ű":{"ha":796,"x_min":68,"x_max":728,"o":"m 399 -12 q 153 78 239 -12 q 68 343 68 169 l 68 972 l 308 972 l 308 321 q 399 206 308 206 q 488 321 488 206 l 488 972 l 728 972 l 728 343 q 642 78 728 169 q 399 -12 557 -12 m 272 1264 l 444 1264 l 368 1053 l 224 1053 l 272 1264 m 493 1264 l 664 1264 l 567 1053 l 425 1053 l 493 1264 z "},"Ū":{"ha":796,"x_min":68,"x_max":728,"o":"m 399 -12 q 153 78 239 -12 q 68 343 68 169 l 68 972 l 308 972 l 308 321 q 399 206 308 206 q 488 321 488 206 l 488 972 l 728 972 l 728 343 q 642 78 728 169 q 399 -12 557 -12 m 235 1210 l 561 1210 l 561 1075 l 235 1075 l 235 1210 z "},"Ų":{"ha":796,"x_min":68,"x_max":728,"o":"m 561 -292 q 474 -306 518 -306 q 363 -269 404 -306 q 321 -167 321 -232 q 337 -88 321 -128 q 382 -12 353 -49 q 149 85 231 -7 q 68 343 68 176 l 68 972 l 308 972 l 308 321 q 399 206 308 206 q 488 321 488 206 l 488 972 l 728 972 l 728 343 q 693 157 728 235 q 594 39 658 79 q 520 -33 549 11 q 492 -119 492 -78 q 503 -158 492 -144 q 536 -171 515 -171 q 561 -167 547 -171 l 561 -292 z "},"Ů":{"ha":796,"x_min":68,"x_max":728,"o":"m 399 -12 q 153 76 239 -12 q 68 329 68 164 l 68 972 l 203 972 q 308 890 238 907 l 308 321 q 399 206 308 206 q 488 321 488 206 l 488 890 q 593 972 561 908 l 728 972 l 728 329 q 642 76 728 165 q 399 -12 557 -12 m 215 1075 q 267 1202 215 1153 q 399 1251 318 1251 q 530 1202 479 1251 q 581 1075 581 1153 q 530 948 581 997 q 399 899 479 899 q 267 948 318 899 q 215 1075 215 997 m 332 1075 q 350 1024 332 1043 q 399 1004 368 1004 q 447 1024 429 1004 q 464 1075 464 1043 q 447 1126 464 1107 q 399 1146 429 1146 q 350 1126 368 1146 q 332 1075 332 1107 z "},"Ũ":{"ha":796,"x_min":68,"x_max":728,"o":"m 399 -12 q 153 78 239 -12 q 68 343 68 169 l 68 972 l 308 972 l 308 321 q 399 206 308 206 q 488 321 488 206 l 488 972 l 728 972 l 728 343 q 642 78 728 169 q 399 -12 557 -12 m 217 1065 q 213 1115 213 1093 q 240 1215 213 1181 q 317 1250 268 1250 q 369 1238 349 1250 q 410 1206 389 1226 q 443 1183 429 1183 q 464 1246 468 1183 l 579 1246 q 583 1199 583 1221 q 556 1098 583 1135 q 478 1061 529 1061 q 428 1073 447 1061 q 386 1107 408 1085 q 369 1123 378 1117 q 353 1129 360 1129 q 332 1065 326 1129 l 217 1065 z "},"V":{"ha":807,"x_min":26,"x_max":781,"o":"m 26 972 l 276 972 l 404 401 l 531 972 l 781 972 l 507 0 l 299 0 l 26 972 z "},"W":{"ha":1185,"x_min":31,"x_max":1156,"o":"m 31 972 l 278 972 l 396 429 l 492 801 l 694 801 l 790 429 l 908 972 l 1156 972 l 928 0 l 721 0 l 593 456 l 465 0 l 258 0 l 31 972 z "},"Ẃ":{"ha":1185,"x_min":31,"x_max":1156,"o":"m 31 972 l 278 972 l 396 429 l 492 801 l 694 801 l 790 429 l 908 972 l 1156 972 l 928 0 l 721 0 l 593 456 l 465 0 l 258 0 l 31 972 m 581 1264 l 763 1264 l 663 1054 l 518 1054 l 581 1264 z "},"Ŵ":{"ha":1185,"x_min":31,"x_max":1156,"o":"m 31 972 l 278 972 l 396 429 l 492 801 l 694 801 l 790 429 l 908 972 l 1156 972 l 928 0 l 721 0 l 593 456 l 465 0 l 258 0 l 31 972 m 513 1264 l 672 1264 l 800 1053 l 643 1053 l 592 1139 l 540 1053 l 385 1053 l 513 1264 z "},"Ẅ":{"ha":1185,"x_min":31,"x_max":1156,"o":"m 31 972 l 278 972 l 396 429 l 492 801 l 694 801 l 790 429 l 908 972 l 1156 972 l 928 0 l 721 0 l 593 456 l 465 0 l 258 0 l 31 972 m 376 1156 q 403 1231 376 1203 q 474 1258 429 1258 q 545 1231 518 1258 q 572 1156 572 1203 q 545 1081 572 1108 q 474 1053 518 1053 q 403 1081 429 1053 q 376 1156 376 1108 m 614 1156 q 640 1231 614 1203 q 711 1258 667 1258 q 783 1231 756 1258 q 810 1156 810 1203 q 783 1081 810 1108 q 711 1053 756 1053 q 640 1081 667 1053 q 614 1156 614 1108 z "},"Ẁ":{"ha":1185,"x_min":31,"x_max":1156,"o":"m 31 972 l 278 972 l 396 429 l 492 801 l 694 801 l 790 429 l 908 972 l 1156 972 l 928 0 l 721 0 l 593 456 l 465 0 l 258 0 l 31 972 m 606 1264 l 668 1054 l 522 1054 l 422 1264 l 606 1264 z "},"X":{"ha":828,"x_min":39,"x_max":789,"o":"m 263 499 l 51 972 l 297 972 l 417 689 l 532 972 l 776 972 l 572 499 l 789 0 l 542 0 l 417 308 l 288 0 l 39 0 l 263 499 z "},"Y":{"ha":757,"x_min":13,"x_max":744,"o":"m 258 363 l 13 972 l 267 972 l 379 607 l 492 972 l 744 972 l 499 365 l 499 0 l 258 0 l 258 363 z "},"Ý":{"ha":757,"x_min":13,"x_max":744,"o":"m 258 363 l 13 972 l 267 972 l 379 607 l 492 972 l 744 972 l 499 365 l 499 0 l 258 0 l 258 363 m 367 1264 l 549 1264 l 449 1054 l 304 1054 l 367 1264 z "},"Ŷ":{"ha":757,"x_min":13,"x_max":744,"o":"m 258 363 l 13 972 l 267 972 l 379 607 l 492 972 l 744 972 l 499 365 l 499 0 l 258 0 l 258 363 m 299 1264 l 458 1264 l 586 1053 l 429 1053 l 378 1139 l 326 1053 l 172 1053 l 299 1264 z "},"Ÿ":{"ha":757,"x_min":13,"x_max":744,"o":"m 258 363 l 13 972 l 267 972 l 379 607 l 492 972 l 744 972 l 499 365 l 499 0 l 258 0 l 258 363 m 163 1156 q 189 1231 163 1203 q 260 1258 215 1258 q 331 1231 304 1258 q 358 1156 358 1203 q 331 1081 358 1108 q 260 1053 304 1053 q 189 1081 215 1053 q 163 1156 163 1108 m 400 1156 q 426 1231 400 1203 q 497 1258 453 1258 q 569 1231 542 1258 q 596 1156 596 1203 q 569 1081 596 1108 q 497 1053 542 1053 q 426 1081 453 1053 q 400 1156 400 1108 z "},"Ỳ":{"ha":757,"x_min":13,"x_max":744,"o":"m 258 363 l 13 972 l 267 972 l 379 607 l 492 972 l 744 972 l 499 365 l 499 0 l 258 0 l 258 363 m 392 1264 l 454 1054 l 308 1054 l 210 1264 l 392 1264 z "},"Ȳ":{"ha":757,"x_min":13,"x_max":744,"o":"m 258 363 l 13 972 l 267 972 l 379 607 l 492 972 l 744 972 l 499 365 l 499 0 l 258 0 l 258 363 m 215 1210 l 542 1210 l 542 1075 l 215 1075 l 215 1210 z "},"Ỹ":{"ha":757,"x_min":13,"x_max":744,"o":"m 258 363 l 13 972 l 267 972 l 379 607 l 492 972 l 744 972 l 499 365 l 499 0 l 258 0 l 258 363 m 197 1065 q 194 1113 194 1082 q 222 1215 194 1179 q 299 1250 249 1250 q 349 1238 329 1250 q 390 1206 369 1226 q 408 1190 399 1196 q 425 1183 417 1183 q 446 1246 450 1183 l 561 1246 q 564 1200 564 1215 q 537 1099 564 1136 q 458 1061 510 1061 q 408 1073 428 1061 q 367 1107 389 1085 q 349 1123 358 1117 q 333 1129 340 1129 q 313 1065 307 1129 l 197 1065 z "},"Z":{"ha":643,"x_min":54,"x_max":592,"o":"m 54 124 l 306 760 l 60 760 l 60 972 l 581 972 l 581 849 l 329 213 l 592 213 l 592 0 l 54 0 l 54 124 z "},"Ź":{"ha":643,"x_min":54,"x_max":592,"o":"m 54 124 l 306 760 l 60 760 l 60 972 l 581 972 l 581 849 l 329 213 l 592 213 l 592 0 l 54 0 l 54 124 m 308 1264 l 490 1264 l 392 1054 l 246 1054 l 308 1264 z "},"Ž":{"ha":643,"x_min":54,"x_max":592,"o":"m 54 124 l 306 760 l 60 760 l 60 972 l 581 972 l 581 849 l 329 213 l 592 213 l 592 0 l 54 0 l 54 124 m 268 1264 l 319 1179 l 371 1264 l 528 1264 l 400 1054 l 240 1054 l 114 1264 l 268 1264 z "},"Ż":{"ha":643,"x_min":54,"x_max":592,"o":"m 54 124 l 306 760 l 60 760 l 60 972 l 581 972 l 581 849 l 329 213 l 592 213 l 592 0 l 54 0 l 54 124 m 211 1160 q 242 1242 211 1211 q 321 1274 274 1274 q 400 1242 369 1274 q 431 1160 431 1211 q 400 1076 431 1107 q 321 1044 369 1044 q 242 1076 274 1044 q 211 1160 211 1107 z "},"a":{"ha":696,"x_min":40,"x_max":626,"o":"m 285 -11 q 106 88 171 -11 q 40 358 40 186 q 106 629 40 531 q 285 728 171 728 q 457 639 392 728 l 518 717 l 626 717 l 626 0 l 517 0 l 457 78 q 285 -11 392 -11 m 257 358 q 276 220 257 263 q 335 178 294 178 q 393 220 375 178 q 411 358 411 263 q 393 497 411 454 q 335 540 375 540 q 276 497 294 540 q 257 358 257 454 z "},"á":{"ha":696,"x_min":40,"x_max":626,"o":"m 285 -11 q 106 88 171 -11 q 40 358 40 186 q 106 629 40 531 q 285 728 171 728 q 457 639 392 728 l 518 717 l 626 717 l 626 0 l 517 0 l 457 78 q 285 -11 392 -11 m 257 358 q 276 220 257 263 q 335 178 294 178 q 393 220 375 178 q 411 358 411 263 q 393 497 411 454 q 335 540 375 540 q 276 497 294 540 q 257 358 257 454 m 325 1015 l 500 1015 l 401 811 l 263 811 l 325 1015 z "},"ă":{"ha":696,"x_min":40,"x_max":626,"o":"m 285 -11 q 106 88 171 -11 q 40 358 40 186 q 106 629 40 531 q 285 728 171 728 q 457 639 392 728 l 518 717 l 626 717 l 626 0 l 517 0 l 457 78 q 285 -11 392 -11 m 300 1015 q 299 993 299 1007 q 343 926 299 926 q 380 949 368 926 q 388 1015 392 971 l 508 1015 q 513 971 513 993 q 468 849 513 893 q 343 806 424 806 q 219 849 264 806 q 174 969 174 892 q 178 1015 174 990 l 300 1015 m 257 358 q 276 220 257 263 q 335 178 294 178 q 393 220 375 178 q 411 358 411 263 q 393 497 411 454 q 335 540 375 540 q 276 497 294 540 q 257 358 257 454 z "},"ǎ":{"ha":696,"x_min":40,"x_max":626,"o":"m 285 -11 q 106 88 171 -11 q 40 358 40 186 q 106 629 40 531 q 285 728 171 728 q 457 639 392 728 l 518 717 l 626 717 l 626 0 l 517 0 l 457 78 q 285 -11 392 -11 m 292 1015 l 343 926 l 393 1015 l 539 1015 l 411 811 l 274 811 l 146 1015 l 292 1015 m 257 358 q 276 220 257 263 q 335 178 294 178 q 393 220 375 178 q 411 358 411 263 q 393 497 411 454 q 335 540 375 540 q 276 497 294 540 q 257 358 257 454 z "},"â":{"ha":696,"x_min":40,"x_max":626,"o":"m 285 -11 q 106 88 171 -11 q 40 358 40 186 q 106 629 40 531 q 285 728 171 728 q 457 639 392 728 l 518 717 l 626 717 l 626 0 l 517 0 l 457 78 q 285 -11 392 -11 m 275 1015 l 411 1015 l 540 811 l 394 811 l 343 900 l 292 811 l 147 811 l 275 1015 m 257 358 q 276 220 257 263 q 335 178 294 178 q 393 220 375 178 q 411 358 411 263 q 393 497 411 454 q 335 540 375 540 q 276 497 294 540 q 257 358 257 454 z "},"ä":{"ha":696,"x_min":40,"x_max":626,"o":"m 285 -11 q 106 88 171 -11 q 40 358 40 186 q 106 629 40 531 q 285 728 171 728 q 457 639 392 728 l 518 717 l 626 717 l 626 0 l 517 0 l 457 78 q 285 -11 392 -11 m 135 910 q 161 983 135 956 q 231 1011 188 1011 q 301 983 275 1011 q 328 910 328 956 q 301 835 328 863 q 231 807 275 807 q 161 835 188 807 q 135 910 135 863 m 257 358 q 276 220 257 263 q 335 178 294 178 q 393 220 375 178 q 411 358 411 263 q 393 497 411 454 q 335 540 375 540 q 276 497 294 540 q 257 358 257 454 m 358 910 q 385 983 358 956 q 456 1011 411 1011 q 525 983 499 1011 q 551 910 551 956 q 525 835 551 863 q 456 807 499 807 q 385 835 411 807 q 358 910 358 863 z "},"à":{"ha":696,"x_min":40,"x_max":626,"o":"m 285 -11 q 106 88 171 -11 q 40 358 40 186 q 106 629 40 531 q 285 728 171 728 q 457 639 392 728 l 518 717 l 626 717 l 626 0 l 517 0 l 457 78 q 285 -11 392 -11 m 361 1015 l 424 811 l 285 811 l 186 1015 l 361 1015 m 257 358 q 276 220 257 263 q 335 178 294 178 q 393 220 375 178 q 411 358 411 263 q 393 497 411 454 q 335 540 375 540 q 276 497 294 540 q 257 358 257 454 z "},"ā":{"ha":696,"x_min":40,"x_max":626,"o":"m 285 -11 q 106 88 171 -11 q 40 358 40 186 q 106 629 40 531 q 285 728 171 728 q 457 639 392 728 l 518 717 l 626 717 l 626 0 l 517 0 l 457 78 q 285 -11 392 -11 m 186 960 l 500 960 l 500 832 l 186 832 l 186 960 m 257 358 q 276 220 257 263 q 335 178 294 178 q 393 220 375 178 q 411 358 411 263 q 393 497 411 454 q 335 540 375 540 q 276 497 294 540 q 257 358 257 454 z "},"ą":{"ha":696,"x_min":40,"x_max":629,"o":"m 285 -11 q 106 88 171 -11 q 40 358 40 186 q 106 629 40 531 q 285 728 171 728 q 457 639 392 728 l 518 717 l 626 717 l 626 0 q 578 -51 596 -22 q 560 -108 560 -79 q 571 -145 560 -132 q 601 -158 582 -158 q 629 -151 613 -158 l 629 -278 q 544 -292 578 -292 q 440 -255 479 -292 q 401 -153 401 -218 q 425 -53 401 -101 q 492 33 449 -4 l 457 78 q 285 -11 392 -11 m 257 358 q 276 220 257 263 q 335 178 294 178 q 393 220 375 178 q 411 358 411 263 q 393 497 411 454 q 335 540 375 540 q 276 497 294 540 q 257 358 257 454 z "},"å":{"ha":696,"x_min":40,"x_max":626,"o":"m 285 -11 q 106 88 171 -11 q 40 358 40 186 q 106 629 40 531 q 285 728 171 728 q 457 639 392 728 l 518 717 l 626 717 l 626 0 l 517 0 l 457 78 q 285 -11 392 -11 m 164 953 q 214 1078 164 1029 q 343 1126 264 1126 q 472 1078 422 1126 q 522 953 522 1029 q 472 826 522 875 q 343 778 422 778 q 214 826 264 778 q 164 953 164 875 m 257 358 q 276 220 257 263 q 335 178 294 178 q 393 220 375 178 q 411 358 411 263 q 393 497 411 454 q 335 540 375 540 q 276 497 294 540 q 257 358 257 454 m 275 953 q 294 899 275 919 q 343 879 313 879 q 392 899 374 879 q 411 953 411 919 q 392 1005 411 985 q 343 1025 374 1025 q 294 1005 313 1025 q 275 953 275 985 z "},"ã":{"ha":696,"x_min":40,"x_max":626,"o":"m 285 -11 q 106 88 171 -11 q 40 358 40 186 q 106 629 40 531 q 285 728 171 728 q 457 639 392 728 l 518 717 l 626 717 l 626 0 l 517 0 l 457 78 q 285 -11 392 -11 m 161 822 q 157 871 157 847 q 185 972 157 936 q 264 1007 214 1007 q 315 995 293 1007 q 357 964 336 983 q 369 954 360 961 q 384 944 378 947 q 397 940 390 940 q 418 1003 421 940 l 525 1003 q 528 960 528 972 q 500 855 528 892 q 422 818 472 818 q 372 830 393 818 q 329 861 350 842 q 317 871 326 864 q 302 881 308 878 q 289 885 296 885 q 269 822 264 885 l 161 822 m 257 358 q 276 220 257 263 q 335 178 294 178 q 393 220 375 178 q 411 358 411 263 q 393 497 411 454 q 335 540 375 540 q 276 497 294 540 q 257 358 257 454 z "},"æ":{"ha":1050,"x_min":40,"x_max":1024,"o":"m 285 -11 q 106 88 171 -11 q 40 358 40 186 q 106 629 40 531 q 285 728 171 728 q 450 647 389 728 l 472 717 l 579 717 l 601 644 q 768 728 669 728 q 903 685 844 728 q 992 565 961 642 q 1024 393 1024 489 q 1013 276 1024 331 l 661 276 q 705 187 669 218 q 801 156 740 156 q 969 201 878 156 l 969 31 q 797 -11 886 -11 q 601 74 674 -11 l 575 0 l 472 0 l 450 69 q 285 -11 386 -11 m 256 358 q 274 221 256 264 q 335 178 293 178 q 394 221 375 178 q 413 358 413 264 q 394 497 413 453 q 335 540 375 540 q 275 497 294 540 q 256 358 256 454 m 818 425 q 793 525 814 490 q 738 560 772 560 q 660 425 668 560 l 818 425 z "},"ǽ":{"ha":1067,"x_min":40,"x_max":1024,"o":"m 285 -11 q 106 88 171 -11 q 40 358 40 186 q 106 629 40 531 q 285 728 171 728 q 450 647 389 728 l 472 717 l 579 717 l 601 644 q 768 728 669 728 q 903 685 844 728 q 992 565 961 642 q 1024 393 1024 489 q 1013 276 1024 331 l 661 276 q 705 187 669 218 q 801 156 740 156 q 969 201 878 156 l 969 31 q 797 -11 886 -11 q 601 74 674 -11 l 575 0 l 472 0 l 450 69 q 285 -11 386 -11 m 256 358 q 274 221 256 264 q 335 178 293 178 q 394 221 375 178 q 413 358 413 264 q 394 497 413 453 q 335 540 375 540 q 275 497 294 540 q 256 358 256 454 m 508 1015 l 683 1015 l 585 811 l 446 811 l 508 1015 m 818 425 q 793 525 814 490 q 738 560 772 560 q 660 425 668 560 l 818 425 z "},"b":{"ha":696,"x_min":69,"x_max":654,"o":"m 410 -11 q 239 78 304 -11 l 179 0 l 69 0 l 69 972 l 292 972 l 292 685 q 415 728 346 728 q 590 628 526 728 q 654 358 654 529 q 589 88 654 186 q 410 -11 524 -11 m 285 358 q 303 220 285 263 q 361 178 321 178 q 420 221 401 178 q 439 358 439 264 q 420 497 439 453 q 361 540 401 540 q 303 497 321 540 q 285 358 285 454 z "},"c":{"ha":519,"x_min":40,"x_max":474,"o":"m 319 -12 q 115 86 189 -12 q 40 358 40 185 q 114 631 40 532 q 317 729 188 729 q 469 688 399 729 l 469 514 q 381 540 426 540 q 288 496 318 540 q 257 358 257 451 q 288 221 257 265 q 381 176 318 176 q 474 206 428 176 l 474 31 q 319 -12 401 -12 z "},"ć":{"ha":519,"x_min":40,"x_max":474,"o":"m 319 -12 q 115 86 189 -12 q 40 358 40 185 q 114 631 40 532 q 317 729 188 729 q 469 688 399 729 l 469 514 q 381 540 426 540 q 288 496 318 540 q 257 358 257 451 q 288 221 257 265 q 381 176 318 176 q 474 206 428 176 l 474 31 q 319 -12 401 -12 m 272 1015 l 447 1015 l 347 811 l 210 811 l 272 1015 z "},"č":{"ha":519,"x_min":40,"x_max":486,"o":"m 319 -12 q 115 86 189 -12 q 40 358 40 185 q 114 631 40 532 q 317 729 188 729 q 469 688 399 729 l 469 514 q 381 540 426 540 q 288 496 318 540 q 257 358 257 451 q 288 221 257 265 q 381 176 318 176 q 474 206 428 176 l 474 31 q 319 -12 401 -12 m 238 1015 l 289 926 l 339 1015 l 486 1015 l 357 811 l 221 811 l 93 1015 l 238 1015 z "},"ç":{"ha":519,"x_min":40,"x_max":474,"o":"m 246 -4 q 94 117 147 22 q 40 358 40 211 q 114 631 40 532 q 317 729 188 729 q 469 688 399 729 l 469 514 q 381 540 426 540 q 288 496 318 540 q 257 358 257 451 q 288 221 257 265 q 381 176 318 176 q 474 206 428 176 l 474 31 q 397 -3 436 7 l 365 -228 l 201 -228 l 246 -4 z "},"ĉ":{"ha":519,"x_min":40,"x_max":486,"o":"m 319 -12 q 115 86 189 -12 q 40 358 40 185 q 114 631 40 532 q 317 729 188 729 q 469 688 399 729 l 469 514 q 381 540 426 540 q 288 496 318 540 q 257 358 257 451 q 288 221 257 265 q 381 176 318 176 q 474 206 428 176 l 474 31 q 319 -12 401 -12 m 221 1015 l 358 1015 l 486 811 l 340 811 l 289 900 l 238 811 l 93 811 l 221 1015 z "},"ċ":{"ha":519,"x_min":40,"x_max":474,"o":"m 319 -12 q 115 86 189 -12 q 40 358 40 185 q 114 631 40 532 q 317 729 188 729 q 469 688 399 729 l 469 514 q 381 540 426 540 q 288 496 318 540 q 257 358 257 451 q 288 221 257 265 q 381 176 318 176 q 474 206 428 176 l 474 31 q 319 -12 401 -12 m 181 900 q 210 983 181 951 q 289 1014 240 1014 q 368 983 338 1014 q 399 900 399 951 q 368 817 399 849 q 289 786 338 786 q 210 817 240 786 q 181 900 181 849 z "},"d":{"ha":696,"x_min":40,"x_max":626,"o":"m 285 -11 q 106 88 171 -11 q 40 358 40 186 q 104 628 40 529 q 279 728 168 728 q 404 683 351 728 l 404 972 l 626 972 l 626 0 l 517 0 l 457 78 q 285 -11 392 -11 m 257 358 q 276 220 257 263 q 335 178 294 178 q 393 220 375 178 q 411 358 411 263 q 393 497 411 454 q 335 540 375 540 q 276 497 294 540 q 257 358 257 454 z "},"ð":{"ha":675,"x_min":40,"x_max":626,"o":"m 335 -12 q 119 84 197 -12 q 40 349 40 181 q 71 531 40 451 q 156 653 101 610 q 282 697 211 697 q 379 675 332 697 q 346 779 360 746 l 181 753 l 181 876 l 296 894 q 226 1015 267 953 l 460 1015 q 506 929 483 976 l 621 947 l 621 824 l 553 813 q 626 406 626 611 q 335 -12 626 -12 m 256 350 q 274 219 256 260 q 333 178 293 178 q 392 219 374 178 q 411 350 411 260 q 392 481 411 440 q 333 522 374 522 q 274 481 293 522 q 256 350 256 440 z "},"ď":{"ha":772,"x_min":39,"x_max":854,"o":"m 283 -11 q 104 88 169 -11 q 39 358 39 186 q 103 628 39 529 q 278 728 167 728 q 403 683 350 728 l 403 972 l 625 972 l 625 0 l 515 0 l 456 78 q 283 -11 390 -11 m 256 358 q 274 220 256 263 q 333 178 293 178 q 392 220 374 178 q 410 358 410 263 q 392 497 410 454 q 333 540 374 540 q 274 497 293 540 q 256 358 256 454 m 701 972 l 854 972 l 800 718 l 681 718 l 701 972 z "},"đ":{"ha":703,"x_min":40,"x_max":706,"o":"m 288 899 l 411 899 l 411 972 l 625 972 l 625 900 l 706 900 l 706 774 l 625 774 l 625 0 l 515 0 l 456 76 q 285 -11 392 -11 q 106 87 171 -11 q 40 354 40 185 q 103 621 40 524 q 278 718 167 718 q 411 668 357 718 l 411 776 l 288 776 l 288 899 m 256 354 q 274 217 256 260 q 333 174 293 174 q 392 217 374 174 q 411 354 411 260 q 392 491 411 449 q 333 533 374 533 q 274 491 293 533 q 256 354 256 449 z "},"e":{"ha":629,"x_min":40,"x_max":603,"o":"m 354 -12 q 124 86 208 -12 q 40 356 40 185 q 75 551 40 467 q 173 683 110 636 q 319 729 236 729 q 468 685 404 729 q 567 562 532 640 q 603 385 603 483 q 593 276 603 329 l 246 276 q 288 186 253 217 q 385 156 324 156 q 551 199 461 156 l 551 32 q 354 -12 453 -12 m 404 425 q 379 526 400 490 q 324 561 358 561 q 244 425 253 561 l 404 425 z "},"é":{"ha":654,"x_min":40,"x_max":603,"o":"m 354 -12 q 124 86 208 -12 q 40 356 40 185 q 75 551 40 467 q 173 683 110 636 q 319 729 236 729 q 468 685 404 729 q 567 562 532 640 q 603 385 603 483 q 593 276 603 329 l 246 276 q 288 186 253 217 q 385 156 324 156 q 551 199 461 156 l 551 32 q 354 -12 453 -12 m 307 1015 l 482 1015 l 383 811 l 244 811 l 307 1015 m 404 425 q 379 526 400 490 q 324 561 358 561 q 244 425 253 561 l 404 425 z "},"ĕ":{"ha":654,"x_min":40,"x_max":603,"o":"m 354 -12 q 124 86 208 -12 q 40 356 40 185 q 75 551 40 467 q 173 683 110 636 q 319 729 236 729 q 468 685 404 729 q 567 562 532 640 q 603 385 603 483 q 593 276 603 329 l 246 276 q 288 186 253 217 q 385 156 324 156 q 551 199 461 156 l 551 32 q 354 -12 453 -12 m 281 1015 q 279 994 279 1008 q 325 926 279 926 q 368 1015 376 926 l 490 1015 q 494 971 494 993 q 450 849 494 893 q 325 806 406 806 q 200 849 244 806 q 156 971 156 892 q 158 1015 156 1000 l 281 1015 m 404 425 q 379 526 400 490 q 324 561 358 561 q 244 425 253 561 l 404 425 z "},"ě":{"ha":654,"x_min":40,"x_max":603,"o":"m 354 -12 q 124 86 208 -12 q 40 356 40 185 q 75 551 40 467 q 173 683 110 636 q 319 729 236 729 q 468 685 404 729 q 567 562 532 640 q 603 385 603 483 q 593 276 603 329 l 246 276 q 288 186 253 217 q 385 156 324 156 q 551 199 461 156 l 551 32 q 354 -12 453 -12 m 272 1015 l 324 925 l 375 1015 l 521 1015 l 392 811 l 256 811 l 128 1015 l 272 1015 m 404 425 q 379 526 400 490 q 324 561 358 561 q 244 425 253 561 l 404 425 z "},"ê":{"ha":654,"x_min":40,"x_max":603,"o":"m 354 -12 q 124 86 208 -12 q 40 356 40 185 q 75 551 40 467 q 173 683 110 636 q 319 729 236 729 q 468 685 404 729 q 567 562 532 640 q 603 385 603 483 q 593 276 603 329 l 246 276 q 288 186 253 217 q 385 156 324 156 q 551 199 461 156 l 551 32 q 354 -12 453 -12 m 256 1015 l 393 1015 l 521 811 l 375 811 l 325 900 l 274 811 l 128 811 l 256 1015 m 404 425 q 379 526 400 490 q 324 561 358 561 q 244 425 253 561 l 404 425 z "},"ë":{"ha":654,"x_min":40,"x_max":603,"o":"m 354 -12 q 124 86 208 -12 q 40 356 40 185 q 75 551 40 467 q 173 683 110 636 q 319 729 236 729 q 468 685 404 729 q 567 562 532 640 q 603 385 603 483 q 593 276 603 329 l 246 276 q 288 186 253 217 q 385 156 324 156 q 551 199 461 156 l 551 32 q 354 -12 453 -12 m 115 910 q 142 983 115 956 q 213 1011 168 1011 q 283 983 256 1011 q 310 910 310 956 q 283 835 310 864 q 213 807 256 807 q 142 835 168 807 q 115 910 115 863 m 404 425 q 379 526 400 490 q 324 561 358 561 q 244 425 253 561 l 404 425 m 340 910 q 367 983 340 956 q 436 1011 393 1011 q 507 983 481 1011 q 533 910 533 956 q 507 835 533 863 q 436 807 481 807 q 367 835 393 807 q 340 910 340 863 z "},"ė":{"ha":654,"x_min":40,"x_max":603,"o":"m 354 -12 q 124 86 208 -12 q 40 356 40 185 q 75 551 40 467 q 173 683 110 636 q 319 729 236 729 q 468 685 404 729 q 567 562 532 640 q 603 385 603 483 q 593 276 603 329 l 246 276 q 288 186 253 217 q 385 156 324 156 q 551 199 461 156 l 551 32 q 354 -12 453 -12 m 215 900 q 245 983 215 951 q 325 1014 275 1014 q 403 983 374 1014 q 433 900 433 951 q 403 817 433 849 q 325 786 374 786 q 245 817 275 786 q 215 900 215 849 m 404 425 q 379 526 400 490 q 324 561 358 561 q 244 425 253 561 l 404 425 z "},"è":{"ha":654,"x_min":40,"x_max":603,"o":"m 354 -12 q 124 86 208 -12 q 40 356 40 185 q 75 551 40 467 q 173 683 110 636 q 319 729 236 729 q 468 685 404 729 q 567 562 532 640 q 603 385 603 483 q 593 276 603 329 l 246 276 q 288 186 253 217 q 385 156 324 156 q 551 199 461 156 l 551 32 q 354 -12 453 -12 m 342 1015 l 404 811 l 265 811 l 167 1015 l 342 1015 m 404 425 q 379 526 400 490 q 324 561 358 561 q 244 425 253 561 l 404 425 z "},"ē":{"ha":654,"x_min":40,"x_max":603,"o":"m 354 -12 q 124 86 208 -12 q 40 356 40 185 q 75 551 40 467 q 173 683 110 636 q 319 729 236 729 q 468 685 404 729 q 567 562 532 640 q 603 385 603 483 q 593 276 603 329 l 246 276 q 288 186 253 217 q 385 156 324 156 q 551 199 461 156 l 551 32 q 354 -12 453 -12 m 167 960 l 482 960 l 482 832 l 167 832 l 167 960 m 404 425 q 379 526 400 490 q 324 561 358 561 q 244 425 253 561 l 404 425 z "},"ę":{"ha":638,"x_min":40,"x_max":611,"o":"m 540 -278 q 456 -292 489 -292 q 351 -255 390 -292 q 313 -151 313 -218 q 354 -12 313 -78 q 122 87 204 -10 q 40 356 40 183 q 76 553 40 468 q 176 683 111 638 q 326 729 240 729 q 476 684 411 729 q 576 560 540 639 q 611 382 611 482 q 601 276 611 326 l 253 276 q 393 156 268 156 q 558 204 476 156 l 558 32 q 471 -107 471 -33 q 482 -144 471 -131 q 511 -157 493 -157 q 540 -150 526 -157 l 540 -278 m 406 425 q 382 526 403 490 q 328 561 361 561 q 274 526 294 561 q 253 425 254 492 l 406 425 z "},"ẽ":{"ha":654,"x_min":40,"x_max":603,"o":"m 354 -12 q 124 86 208 -12 q 40 356 40 185 q 75 551 40 467 q 173 683 110 636 q 319 729 236 729 q 468 685 404 729 q 567 562 532 640 q 603 385 603 483 q 593 276 603 329 l 246 276 q 288 186 253 217 q 385 156 324 156 q 551 199 461 156 l 551 32 q 354 -12 453 -12 m 143 822 q 139 871 139 850 q 167 972 139 936 q 244 1007 194 1007 q 296 995 275 1007 q 340 963 317 983 q 360 947 350 953 q 378 940 369 940 q 399 1003 403 940 l 507 1003 q 510 960 510 972 q 481 855 510 892 q 403 818 453 818 q 353 828 372 818 q 308 861 335 839 q 271 885 285 885 q 253 869 258 885 q 250 822 247 853 l 143 822 m 404 425 q 379 526 400 490 q 324 561 358 561 q 244 425 253 561 l 404 425 z "},"ə":{"ha":629,"x_min":26,"x_max":589,"o":"m 275 729 q 505 631 421 729 q 589 361 589 532 q 554 165 589 250 q 456 34 519 81 q 310 -12 393 -12 q 161 32 225 -12 q 62 155 97 76 q 26 332 26 233 q 36 440 26 388 l 383 440 q 341 531 376 500 q 244 561 306 561 q 78 518 168 561 l 78 685 q 275 729 176 729 m 225 292 q 250 191 229 226 q 306 156 271 156 q 385 292 376 156 l 225 292 z "},"f":{"ha":504,"x_min":38,"x_max":471,"o":"m 126 781 q 185 963 126 900 q 353 1026 243 1026 q 471 1007 411 1026 l 471 836 q 414 849 440 849 q 349 767 349 849 l 349 715 l 469 715 l 469 524 l 349 524 l 349 0 l 126 0 l 126 524 l 38 524 l 38 717 l 126 717 l 126 781 z "},"g":{"ha":696,"x_min":40,"x_max":626,"o":"m 300 -283 q 103 -240 200 -283 l 103 -56 q 268 -101 190 -101 q 380 -66 340 -101 q 419 35 419 -31 l 419 54 q 278 -4 361 -4 q 104 94 168 -4 q 40 363 40 193 q 106 631 40 533 q 285 728 171 728 q 383 705 339 728 q 458 639 426 682 l 517 717 l 626 717 l 626 49 q 538 -194 626 -104 q 300 -283 450 -283 m 257 363 q 276 224 257 267 q 335 181 294 181 q 393 224 375 181 q 411 363 411 267 q 393 501 411 458 q 335 543 375 543 q 276 501 294 543 q 257 363 257 458 z "},"ğ":{"ha":696,"x_min":40,"x_max":626,"o":"m 300 -283 q 103 -240 200 -283 l 103 -56 q 268 -101 190 -101 q 380 -66 340 -101 q 419 35 419 -31 l 419 54 q 278 -4 361 -4 q 104 94 168 -4 q 40 363 40 193 q 106 631 40 533 q 285 728 171 728 q 383 705 339 728 q 458 639 426 682 l 517 717 l 626 717 l 626 49 q 538 -194 626 -104 q 300 -283 450 -283 m 300 1015 q 299 993 299 1007 q 343 926 299 926 q 380 949 368 926 q 388 1015 392 971 l 508 1015 q 513 971 513 993 q 468 849 513 893 q 343 806 424 806 q 219 849 264 806 q 174 969 174 892 q 178 1015 174 990 l 300 1015 m 257 363 q 276 224 257 267 q 335 181 294 181 q 393 224 375 181 q 411 363 411 267 q 393 501 411 458 q 335 543 375 543 q 276 501 294 543 q 257 363 257 458 z "},"ǧ":{"ha":696,"x_min":40,"x_max":626,"o":"m 300 -283 q 103 -240 200 -283 l 103 -56 q 268 -101 190 -101 q 380 -66 340 -101 q 419 35 419 -31 l 419 54 q 278 -4 361 -4 q 104 94 168 -4 q 40 363 40 193 q 106 631 40 533 q 285 728 171 728 q 383 705 339 728 q 458 639 426 682 l 517 717 l 626 717 l 626 49 q 538 -194 626 -104 q 300 -283 450 -283 m 292 1015 l 343 926 l 393 1015 l 539 1015 l 411 811 l 274 811 l 146 1015 l 292 1015 m 257 363 q 276 224 257 267 q 335 181 294 181 q 393 224 375 181 q 411 363 411 267 q 393 501 411 458 q 335 543 375 543 q 276 501 294 543 q 257 363 257 458 z "},"ĝ":{"ha":696,"x_min":40,"x_max":626,"o":"m 300 -283 q 103 -240 200 -283 l 103 -56 q 268 -101 190 -101 q 380 -66 340 -101 q 419 35 419 -31 l 419 54 q 278 -4 361 -4 q 104 94 168 -4 q 40 363 40 193 q 106 631 40 533 q 285 728 171 728 q 383 705 339 728 q 458 639 426 682 l 517 717 l 626 717 l 626 49 q 538 -194 626 -104 q 300 -283 450 -283 m 275 1015 l 411 1015 l 540 811 l 394 811 l 343 900 l 292 811 l 147 811 l 275 1015 m 257 363 q 276 224 257 267 q 335 181 294 181 q 393 224 375 181 q 411 363 411 267 q 393 501 411 458 q 335 543 375 543 q 276 501 294 543 q 257 363 257 458 z "},"ģ":{"ha":696,"x_min":40,"x_max":626,"o":"m 300 -283 q 103 -240 200 -283 l 103 -56 q 268 -101 190 -101 q 380 -66 340 -101 q 419 35 419 -31 l 419 54 q 278 -4 361 -4 q 104 94 168 -4 q 40 363 40 193 q 106 631 40 533 q 285 728 171 728 q 383 705 339 728 q 458 639 426 682 l 517 717 l 626 717 l 626 49 q 538 -194 626 -104 q 300 -283 450 -283 m 254 906 q 315 1115 254 1001 l 397 1115 q 353 975 358 1026 q 410 947 388 972 q 432 883 432 921 q 408 816 432 842 q 346 790 383 790 q 279 822 304 790 q 254 906 254 853 m 257 363 q 276 224 257 267 q 335 181 294 181 q 393 224 375 181 q 411 363 411 267 q 393 501 411 458 q 335 543 375 543 q 276 501 294 543 q 257 363 257 458 z "},"ġ":{"ha":696,"x_min":40,"x_max":626,"o":"m 300 -283 q 103 -240 200 -283 l 103 -56 q 268 -101 190 -101 q 380 -66 340 -101 q 419 35 419 -31 l 419 54 q 278 -4 361 -4 q 104 94 168 -4 q 40 363 40 193 q 106 631 40 533 q 285 728 171 728 q 383 705 339 728 q 458 639 426 682 l 517 717 l 626 717 l 626 49 q 538 -194 626 -104 q 300 -283 450 -283 m 233 900 q 264 983 233 951 q 343 1014 294 1014 q 422 983 392 1014 q 453 900 453 951 q 422 817 453 849 q 343 786 392 786 q 264 817 294 786 q 233 900 233 849 m 257 363 q 276 224 257 267 q 335 181 294 181 q 393 224 375 181 q 411 363 411 267 q 393 501 411 458 q 335 543 375 543 q 276 501 294 543 q 257 363 257 458 z "},"h":{"ha":710,"x_min":69,"x_max":649,"o":"m 69 972 l 292 972 l 292 688 q 425 729 349 729 q 587 660 525 729 q 649 479 649 590 l 649 0 l 428 0 l 428 451 q 410 517 428 494 q 360 540 392 540 q 309 517 326 540 q 292 451 292 494 l 292 0 l 69 0 l 69 972 z "},"ħ":{"ha":717,"x_min":-3,"x_max":657,"o":"m 76 774 l -3 774 l -3 900 l 76 900 l 76 972 l 299 972 l 299 899 l 421 899 l 421 776 l 299 776 l 299 681 q 428 719 354 719 q 594 651 531 719 q 657 471 657 583 l 657 0 l 435 0 l 435 442 q 417 508 435 485 q 367 531 399 531 q 299 442 299 531 l 299 0 l 76 0 l 76 774 z "},"ĥ":{"ha":710,"x_min":-28,"x_max":649,"o":"m 69 972 l 292 972 l 292 688 q 425 729 349 729 q 587 660 525 729 q 649 479 649 590 l 649 0 l 428 0 l 428 451 q 410 517 428 494 q 360 540 392 540 q 309 517 326 540 q 292 451 292 494 l 292 0 l 69 0 l 69 972 m 99 1264 l 260 1264 l 386 1053 l 231 1053 l 179 1139 l 128 1053 l -28 1053 l 99 1264 z "},"i":{"ha":421,"x_min":38,"x_max":358,"o":"m 129 525 l 38 525 l 38 717 l 351 717 l 351 0 l 129 0 l 129 525 m 110 921 q 144 1015 110 979 q 235 1050 179 1050 q 324 1015 290 1050 q 358 921 358 979 q 324 827 358 863 q 235 792 290 792 q 144 827 179 792 q 110 921 110 863 z "},"ı":{"ha":421,"x_min":38,"x_max":351,"o":"m 129 525 l 38 525 l 38 717 l 351 717 l 351 0 l 129 0 l 129 525 z "},"í":{"ha":421,"x_min":38,"x_max":381,"o":"m 129 525 l 38 525 l 38 717 l 351 717 l 351 0 l 129 0 l 129 525 m 204 1015 l 381 1015 l 299 811 l 161 811 l 204 1015 z "},"ĭ":{"ha":421,"x_min":38,"x_max":394,"o":"m 129 525 l 38 525 l 38 717 l 351 717 l 351 0 l 129 0 l 129 525 m 199 1015 q 235 926 192 926 q 265 949 256 926 q 269 1015 274 971 l 392 1015 q 394 971 394 1000 q 353 849 394 893 q 235 806 311 806 q 116 849 158 806 q 74 969 74 892 q 78 1015 74 990 l 199 1015 z "},"î":{"ha":421,"x_min":38,"x_max":431,"o":"m 129 525 l 38 525 l 38 717 l 351 717 l 351 0 l 129 0 l 129 525 m 167 1015 l 303 1015 l 431 811 l 286 811 l 235 900 l 183 811 l 38 811 l 167 1015 z "},"ï":{"ha":421,"x_min":32,"x_max":436,"o":"m 129 525 l 38 525 l 38 717 l 351 717 l 351 0 l 129 0 l 129 525 m 32 910 q 58 983 32 956 q 128 1011 85 1011 q 197 983 171 1011 q 222 910 222 956 q 197 835 222 863 q 128 807 171 807 q 58 835 85 807 q 32 910 32 863 m 247 910 q 273 983 247 956 q 342 1011 299 1011 q 410 983 385 1011 q 436 910 436 956 q 410 835 436 863 q 342 807 385 807 q 273 835 299 807 q 247 910 247 863 z "},"ị":{"ha":421,"x_min":38,"x_max":358,"o":"m 129 525 l 38 525 l 38 717 l 351 717 l 351 0 l 129 0 l 129 525 m 110 921 q 144 1015 110 979 q 235 1050 179 1050 q 324 1015 290 1050 q 358 921 358 979 q 324 827 358 863 q 235 792 290 792 q 144 827 179 792 q 110 921 110 863 m 131 -215 q 161 -133 131 -164 q 240 -101 192 -101 q 319 -133 289 -101 q 349 -215 349 -164 q 319 -298 349 -267 q 240 -329 289 -329 q 161 -298 192 -329 q 131 -215 131 -267 z "},"ì":{"ha":421,"x_min":38,"x_max":351,"o":"m 129 525 l 38 525 l 38 717 l 351 717 l 351 0 l 129 0 l 129 525 m 264 1015 l 308 811 l 169 811 l 88 1015 l 264 1015 z "},"ĳ":{"ha":850,"x_min":38,"x_max":788,"o":"m 129 525 l 38 525 l 38 717 l 351 717 l 351 0 l 129 0 l 129 525 m 110 921 q 144 1015 110 979 q 235 1050 179 1050 q 324 1015 290 1050 q 358 921 358 979 q 324 827 358 863 q 235 792 290 792 q 144 827 179 792 q 110 921 110 863 m 432 -90 q 486 -97 460 -97 q 543 -79 526 -97 q 560 -15 560 -61 l 560 525 l 467 525 l 467 717 l 782 717 l 782 -24 q 726 -222 782 -160 q 547 -283 669 -283 q 432 -269 492 -283 l 432 -90 m 540 921 q 574 1015 540 979 q 664 1050 608 1050 q 753 1015 719 1050 q 788 921 788 979 q 753 827 788 863 q 664 792 719 792 q 574 827 608 792 q 540 921 540 863 z "},"ī":{"ha":421,"x_min":38,"x_max":379,"o":"m 129 525 l 38 525 l 38 717 l 351 717 l 351 0 l 129 0 l 129 525 m 89 960 l 379 960 l 379 832 l 89 832 l 89 960 z "},"į":{"ha":421,"x_min":38,"x_max":358,"o":"m 129 525 l 38 525 l 38 717 l 351 717 l 351 0 q 313 -50 328 -22 q 299 -108 299 -78 q 308 -145 299 -132 q 332 -158 317 -158 q 356 -151 342 -158 l 356 -276 q 274 -290 314 -290 q 176 -254 211 -290 q 140 -153 140 -218 q 192 0 140 -71 l 129 0 l 129 525 m 110 921 q 144 1015 110 979 q 235 1050 179 1050 q 324 1015 290 1050 q 358 921 358 979 q 324 827 358 863 q 235 792 290 792 q 144 827 179 792 q 110 921 110 863 z "},"ĩ":{"ha":421,"x_min":38,"x_max":413,"o":"m 129 525 l 38 525 l 38 717 l 351 717 l 351 0 l 129 0 l 129 525 m 58 822 q 56 871 56 839 q 82 972 56 936 q 157 1007 108 1007 q 204 996 185 1007 q 247 964 224 985 q 285 942 272 942 q 306 1003 310 942 l 410 1003 q 413 954 413 986 q 386 853 413 889 q 313 818 360 818 q 265 829 285 818 q 221 861 244 840 q 183 883 196 883 q 166 868 171 883 q 163 822 161 853 l 58 822 z "},"j":{"ha":429,"x_min":11,"x_max":367,"o":"m 126 -283 q 11 -269 71 -283 l 11 -90 q 65 -97 42 -97 q 122 -79 106 -97 q 139 -15 139 -61 l 139 525 l 46 525 l 46 717 l 361 717 l 361 -24 q 305 -222 361 -160 q 126 -283 249 -283 m 119 921 q 153 1015 119 979 q 243 1050 188 1050 q 333 1015 299 1050 q 367 921 367 979 q 333 827 367 863 q 243 792 299 792 q 153 827 188 792 q 119 921 119 863 z "},"ȷ":{"ha":429,"x_min":11,"x_max":361,"o":"m 126 -283 q 11 -269 71 -283 l 11 -90 q 65 -97 42 -97 q 122 -79 106 -97 q 139 -15 139 -61 l 139 525 l 46 525 l 46 717 l 361 717 l 361 -24 q 305 -222 361 -160 q 126 -283 249 -283 z "},"ĵ":{"ha":429,"x_min":11,"x_max":440,"o":"m 126 -283 q 11 -269 71 -283 l 11 -90 q 65 -97 42 -97 q 122 -79 106 -97 q 139 -15 139 -61 l 139 525 l 46 525 l 46 717 l 361 717 l 361 -24 q 305 -222 361 -160 q 126 -283 249 -283 m 175 1015 l 311 1015 l 440 811 l 294 811 l 243 901 l 192 811 l 46 811 l 175 1015 z "},"k":{"ha":715,"x_min":69,"x_max":683,"o":"m 335 276 l 292 276 l 292 0 l 69 0 l 69 972 l 292 972 l 292 463 l 338 463 l 439 717 l 674 717 l 519 369 l 683 0 l 446 0 l 335 276 z "},"ķ":{"ha":715,"x_min":69,"x_max":683,"o":"m 335 276 l 292 276 l 292 0 l 69 0 l 69 972 l 292 972 l 292 463 l 338 463 l 439 717 l 674 717 l 519 369 l 683 0 l 446 0 l 335 276 m 314 -387 q 357 -247 353 -300 q 301 -219 322 -244 q 279 -156 279 -194 q 303 -90 279 -115 q 365 -64 328 -64 q 431 -95 407 -64 q 456 -179 456 -126 q 396 -387 456 -276 l 314 -387 z "},"ĸ":{"ha":715,"x_min":69,"x_max":683,"o":"m 335 276 l 292 276 l 292 0 l 69 0 l 69 717 l 292 717 l 292 463 l 338 463 l 439 717 l 674 717 l 519 369 l 683 0 l 446 0 l 335 276 z "},"l":{"ha":433,"x_min":63,"x_max":400,"o":"m 278 -8 q 116 49 169 -8 q 63 225 63 107 l 63 972 l 285 972 l 285 244 q 299 195 285 210 q 344 181 313 181 q 400 189 374 181 l 400 7 q 278 -8 336 -8 z "},"ĺ":{"ha":433,"x_min":63,"x_max":400,"o":"m 278 -8 q 116 49 169 -8 q 63 225 63 107 l 63 972 l 285 972 l 285 244 q 299 195 285 210 q 344 181 313 181 q 400 189 374 181 l 400 7 q 278 -8 336 -8 m 160 1264 l 343 1264 l 243 1054 l 97 1054 l 160 1264 z "},"ľ":{"ha":499,"x_min":63,"x_max":532,"o":"m 278 -8 q 116 49 169 -8 q 63 225 63 107 l 63 972 l 285 972 l 285 244 q 299 195 285 210 q 344 181 313 181 q 400 189 374 181 l 400 7 q 278 -8 336 -8 m 379 972 l 532 972 l 478 718 l 358 718 l 379 972 z "},"ļ":{"ha":433,"x_min":63,"x_max":400,"o":"m 278 -8 q 116 49 169 -8 q 63 225 63 107 l 63 972 l 285 972 l 285 244 q 299 195 285 210 q 344 181 313 181 q 400 189 374 181 l 400 7 q 278 -8 336 -8 m 203 -387 q 246 -247 242 -300 q 190 -219 211 -244 q 168 -156 168 -194 q 192 -90 168 -115 q 254 -64 217 -64 q 320 -95 296 -64 q 344 -179 344 -126 q 285 -387 344 -276 l 203 -387 z "},"ŀ":{"ha":586,"x_min":63,"x_max":563,"o":"m 278 -8 q 116 49 169 -8 q 63 225 63 107 l 63 972 l 285 972 l 285 244 q 299 195 285 210 q 344 181 313 181 q 400 189 374 181 l 400 7 q 278 -8 336 -8 m 338 496 q 369 581 338 549 q 450 613 400 613 q 531 581 500 613 q 563 496 563 549 q 531 410 563 443 q 450 378 500 378 q 369 410 400 378 q 338 496 338 443 z "},"ł":{"ha":503,"x_min":35,"x_max":454,"o":"m 332 -8 q 170 49 224 -8 q 117 225 117 107 l 117 343 l 35 303 l 35 481 l 117 521 l 117 972 l 339 972 l 339 632 l 446 685 l 446 507 l 339 454 l 339 244 q 353 195 339 210 q 399 181 367 181 q 454 189 428 181 l 454 7 q 332 -8 390 -8 z "},"m":{"ha":1047,"x_min":69,"x_max":986,"o":"m 69 717 l 178 717 l 238 642 q 310 707 267 685 q 410 729 354 729 q 510 707 465 729 q 582 642 554 685 q 761 729 649 729 q 924 660 863 729 q 986 479 986 592 l 986 0 l 765 0 l 765 451 q 748 517 765 494 q 699 540 731 540 q 648 517 665 540 q 631 451 631 494 l 631 0 l 425 0 l 425 451 q 408 517 425 494 q 358 540 390 540 q 308 517 325 540 q 292 451 292 494 l 292 0 l 69 0 l 69 717 z "},"n":{"ha":710,"x_min":69,"x_max":649,"o":"m 69 717 l 178 717 l 239 639 q 421 729 306 729 q 586 661 524 729 q 649 479 649 593 l 649 0 l 428 0 l 428 451 q 410 517 428 494 q 360 540 392 540 q 309 517 326 540 q 292 451 292 494 l 292 0 l 69 0 l 69 717 z "},"ń":{"ha":710,"x_min":69,"x_max":649,"o":"m 69 717 l 178 717 l 239 639 q 421 729 306 729 q 586 661 524 729 q 649 479 649 593 l 649 0 l 428 0 l 428 451 q 410 517 428 494 q 360 540 392 540 q 309 517 326 540 q 292 451 292 494 l 292 0 l 69 0 l 69 717 m 344 1015 l 519 1015 l 421 811 l 282 811 l 344 1015 z "},"ŉ":{"ha":710,"x_min":-182,"x_max":649,"o":"m 69 717 l 178 717 l 239 639 q 421 729 306 729 q 586 661 524 729 q 649 479 649 593 l 649 0 l 428 0 l 428 451 q 410 517 428 494 q 360 540 392 540 q 309 517 326 540 q 292 451 292 494 l 292 0 l 69 0 l 69 717 m -182 940 q -156 1013 -182 985 q -87 1042 -129 1042 q -15 1008 -42 1042 q 13 915 13 974 q -54 685 13 808 l -144 685 q -96 839 -100 782 q -158 869 -135 842 q -182 940 -182 897 z "},"ň":{"ha":710,"x_min":69,"x_max":649,"o":"m 69 717 l 178 717 l 239 639 q 421 729 306 729 q 586 661 524 729 q 649 479 649 593 l 649 0 l 428 0 l 428 451 q 410 517 428 494 q 360 540 392 540 q 309 517 326 540 q 292 451 292 494 l 292 0 l 69 0 l 69 717 m 311 1015 l 363 926 l 413 1015 l 558 1015 l 431 811 l 293 811 l 165 1015 l 311 1015 z "},"ņ":{"ha":710,"x_min":69,"x_max":649,"o":"m 69 717 l 178 717 l 239 639 q 421 729 306 729 q 586 661 524 729 q 649 479 649 593 l 649 0 l 428 0 l 428 451 q 410 517 428 494 q 360 540 392 540 q 309 517 326 540 q 292 451 292 494 l 292 0 l 69 0 l 69 717 m 306 -387 q 349 -247 344 -300 q 292 -219 314 -244 q 271 -156 271 -194 q 295 -90 271 -115 q 357 -64 319 -64 q 423 -95 399 -64 q 447 -179 447 -126 q 388 -387 447 -276 l 306 -387 z "},"ñ":{"ha":710,"x_min":69,"x_max":649,"o":"m 69 717 l 178 717 l 239 639 q 421 729 306 729 q 586 661 524 729 q 649 479 649 593 l 649 0 l 428 0 l 428 451 q 410 517 428 494 q 360 540 392 540 q 309 517 326 540 q 292 451 292 494 l 292 0 l 69 0 l 69 717 m 181 822 q 176 871 176 847 q 205 972 176 936 q 283 1007 233 1007 q 334 995 313 1007 q 376 964 356 983 q 388 954 379 961 q 403 944 397 947 q 417 940 410 940 q 438 1003 442 940 l 544 1003 q 547 960 547 972 q 519 855 547 892 q 442 818 492 818 q 391 830 413 818 q 349 861 369 842 q 337 871 346 864 q 322 881 328 878 q 308 885 315 885 q 289 822 283 885 l 181 822 z "},"ŋ":{"ha":710,"x_min":69,"x_max":649,"o":"m 433 -283 q 322 -268 376 -283 l 322 -90 q 369 -99 353 -99 q 414 -81 400 -99 q 428 -24 428 -62 l 428 451 q 410 517 428 494 q 360 540 392 540 q 309 517 326 540 q 292 451 292 494 l 292 0 l 69 0 l 69 717 l 178 717 l 239 639 q 421 729 306 729 q 586 660 524 729 q 649 479 649 592 l 649 -44 q 594 -223 649 -162 q 433 -283 540 -283 z "},"o":{"ha":667,"x_min":40,"x_max":626,"o":"m 333 -12 q 118 86 196 -12 q 40 358 40 185 q 118 631 40 532 q 333 729 196 729 q 549 631 471 729 q 626 358 626 532 q 549 86 626 185 q 333 -12 471 -12 m 256 358 q 274 221 256 264 q 333 178 293 178 q 392 221 374 178 q 411 358 411 264 q 392 497 411 453 q 333 540 374 540 q 274 497 293 540 q 256 358 256 453 z "},"ó":{"ha":667,"x_min":40,"x_max":626,"o":"m 333 -12 q 118 86 196 -12 q 40 358 40 185 q 118 631 40 532 q 333 729 196 729 q 549 631 471 729 q 626 358 626 532 q 549 86 626 185 q 333 -12 471 -12 m 315 1015 l 490 1015 l 392 811 l 253 811 l 315 1015 m 256 358 q 274 221 256 264 q 333 178 293 178 q 392 221 374 178 q 411 358 411 264 q 392 497 411 453 q 333 540 374 540 q 274 497 293 540 q 256 358 256 453 z "},"ŏ":{"ha":667,"x_min":40,"x_max":626,"o":"m 333 -12 q 118 86 196 -12 q 40 358 40 185 q 118 631 40 532 q 333 729 196 729 q 549 631 471 729 q 626 358 626 532 q 549 86 626 185 q 333 -12 471 -12 m 290 1015 q 289 993 289 1007 q 333 926 289 926 q 378 990 378 926 q 376 1015 378 1007 l 499 1015 q 503 971 503 993 q 458 849 503 893 q 333 806 414 806 q 209 849 254 806 q 164 969 164 892 q 168 1015 164 990 l 290 1015 m 256 358 q 274 221 256 264 q 333 178 293 178 q 392 221 374 178 q 411 358 411 264 q 392 497 411 453 q 333 540 374 540 q 274 497 293 540 q 256 358 256 453 z "},"ô":{"ha":667,"x_min":40,"x_max":626,"o":"m 333 -12 q 118 86 196 -12 q 40 358 40 185 q 118 631 40 532 q 333 729 196 729 q 549 631 471 729 q 626 358 626 532 q 549 86 626 185 q 333 -12 471 -12 m 265 1015 l 401 1015 l 531 811 l 383 811 l 333 900 l 282 811 l 138 811 l 265 1015 m 256 358 q 274 221 256 264 q 333 178 293 178 q 392 221 374 178 q 411 358 411 264 q 392 497 411 453 q 333 540 374 540 q 274 497 293 540 q 256 358 256 453 z "},"ö":{"ha":667,"x_min":40,"x_max":626,"o":"m 333 -12 q 118 86 196 -12 q 40 358 40 185 q 118 631 40 532 q 333 729 196 729 q 549 631 471 729 q 626 358 626 532 q 549 86 626 185 q 333 -12 471 -12 m 125 910 q 151 983 125 956 q 221 1011 178 1011 q 292 983 265 1011 q 318 910 318 956 q 292 835 318 863 q 221 807 265 807 q 151 835 178 807 q 125 910 125 863 m 256 358 q 274 221 256 264 q 333 178 293 178 q 392 221 374 178 q 411 358 411 264 q 392 497 411 453 q 333 540 374 540 q 274 497 293 540 q 256 358 256 453 m 349 910 q 375 983 349 956 q 446 1011 401 1011 q 515 983 489 1011 q 542 910 542 956 q 515 835 542 863 q 446 807 489 807 q 375 835 401 807 q 349 910 349 863 z "},"ọ":{"ha":667,"x_min":40,"x_max":626,"o":"m 333 -12 q 118 86 196 -12 q 40 358 40 185 q 118 631 40 532 q 333 729 196 729 q 549 631 471 729 q 626 358 626 532 q 549 86 626 185 q 333 -12 471 -12 m 256 358 q 274 221 256 264 q 333 178 293 178 q 392 221 374 178 q 411 358 411 264 q 392 497 411 453 q 333 540 374 540 q 274 497 293 540 q 256 358 256 453 z "},"ò":{"ha":667,"x_min":40,"x_max":626,"o":"m 333 -12 q 118 86 196 -12 q 40 358 40 185 q 118 631 40 532 q 333 729 196 729 q 549 631 471 729 q 626 358 626 532 q 549 86 626 185 q 333 -12 471 -12 m 351 1015 l 414 811 l 275 811 l 176 1015 l 351 1015 m 256 358 q 274 221 256 264 q 333 178 293 178 q 392 221 374 178 q 411 358 411 264 q 392 497 411 453 q 333 540 374 540 q 274 497 293 540 q 256 358 256 453 z "},"ő":{"ha":667,"x_min":40,"x_max":626,"o":"m 333 -12 q 118 86 196 -12 q 40 358 40 185 q 118 631 40 532 q 333 729 196 729 q 549 631 471 729 q 626 358 626 532 q 549 86 626 185 q 333 -12 471 -12 m 210 1015 l 375 1015 l 294 811 l 158 811 l 210 1015 m 256 358 q 274 221 256 264 q 333 178 293 178 q 392 221 374 178 q 411 358 411 264 q 392 497 411 453 q 333 540 374 540 q 274 497 293 540 q 256 358 256 453 m 422 1015 l 588 1015 l 488 811 l 351 811 l 422 1015 z "},"ō":{"ha":667,"x_min":40,"x_max":626,"o":"m 333 -12 q 118 86 196 -12 q 40 358 40 185 q 118 631 40 532 q 333 729 196 729 q 549 631 471 729 q 626 358 626 532 q 549 86 626 185 q 333 -12 471 -12 m 176 960 l 490 960 l 490 832 l 176 832 l 176 960 m 256 358 q 274 221 256 264 q 333 178 293 178 q 392 221 374 178 q 411 358 411 264 q 392 497 411 453 q 333 540 374 540 q 274 497 293 540 q 256 358 256 453 z "},"ǫ":{"ha":667,"x_min":40,"x_max":626,"o":"m 478 -275 q 390 -289 432 -289 q 288 -253 325 -289 q 250 -153 250 -218 q 297 -11 250 -75 q 108 99 176 1 q 40 358 40 197 q 118 631 40 532 q 333 729 196 729 q 549 631 471 729 q 626 358 626 532 q 593 164 626 246 q 496 38 560 82 q 433 -31 457 10 q 408 -108 408 -71 q 419 -145 408 -132 q 450 -158 431 -158 q 478 -151 461 -158 l 478 -275 m 256 358 q 274 221 256 264 q 333 178 293 178 q 392 221 374 178 q 411 358 411 264 q 392 497 411 453 q 333 540 374 540 q 274 497 293 540 q 256 358 256 453 z "},"ø":{"ha":667,"x_min":40,"x_max":626,"o":"m 136 65 q 65 188 90 114 q 40 358 40 263 q 118 631 40 532 q 333 729 196 729 q 410 721 375 729 l 444 804 l 593 804 l 531 651 q 601 529 576 604 q 626 358 626 454 q 549 86 626 185 q 333 -12 471 -12 q 256 -3 290 -12 l 221 -86 l 74 -86 l 136 65 m 256 358 q 274 221 256 264 q 333 178 293 178 q 392 221 374 178 q 411 358 411 264 q 392 497 411 453 q 333 540 374 540 q 274 497 293 540 q 256 358 256 453 z "},"ǿ":{"ha":667,"x_min":40,"x_max":626,"o":"m 136 65 q 65 188 90 114 q 40 358 40 263 q 118 631 40 532 q 333 729 196 729 q 410 721 375 729 l 444 804 l 593 804 l 531 651 q 601 529 576 604 q 626 358 626 454 q 549 86 626 185 q 333 -12 471 -12 q 256 -3 290 -12 l 221 -86 l 74 -86 l 136 65 m 315 1015 l 490 1015 l 392 811 l 253 811 l 315 1015 m 256 358 q 274 221 256 264 q 333 178 293 178 q 392 221 374 178 q 411 358 411 264 q 392 497 411 453 q 333 540 374 540 q 274 497 293 540 q 256 358 256 453 z "},"õ":{"ha":667,"x_min":40,"x_max":626,"o":"m 333 -12 q 118 86 196 -12 q 40 358 40 185 q 118 631 40 532 q 333 729 196 729 q 549 631 471 729 q 626 358 626 532 q 549 86 626 185 q 333 -12 471 -12 m 151 822 q 147 871 147 847 q 176 972 147 936 q 254 1007 204 1007 q 305 995 283 1007 q 347 964 326 983 q 359 954 350 961 q 374 944 368 947 q 388 940 381 940 q 408 1003 411 940 l 515 1003 q 518 960 518 972 q 490 855 518 892 q 413 818 463 818 q 362 830 383 818 q 319 861 340 842 q 308 871 317 864 q 292 881 299 878 q 279 885 286 885 q 260 822 254 885 l 151 822 m 256 358 q 274 221 256 264 q 333 178 293 178 q 392 221 374 178 q 411 358 411 264 q 392 497 411 453 q 333 540 374 540 q 274 497 293 540 q 256 358 256 453 z "},"œ":{"ha":992,"x_min":40,"x_max":965,"o":"m 313 -12 q 113 86 185 -12 q 40 358 40 185 q 113 631 40 532 q 313 729 185 729 q 507 638 436 729 q 700 729 583 729 q 845 683 785 729 q 935 560 906 638 q 965 388 965 483 q 956 276 965 329 l 614 276 q 657 187 621 218 q 753 156 693 156 q 914 201 826 156 l 914 29 q 729 -12 822 -12 q 510 82 592 -12 q 313 -12 436 -12 m 256 358 q 274 221 256 264 q 333 178 293 178 q 394 221 375 178 q 413 358 413 264 q 393 497 413 454 q 333 540 374 540 q 274 497 293 540 q 256 358 256 453 m 763 425 q 739 525 758 489 q 689 561 719 561 q 635 526 656 561 q 613 425 615 490 l 763 425 z "},"p":{"ha":696,"x_min":69,"x_max":656,"o":"m 411 728 q 590 629 525 728 q 656 358 656 531 q 592 88 656 188 q 417 -11 528 -11 q 292 33 344 -11 l 292 -256 l 69 -256 l 69 717 l 179 717 l 239 639 q 411 728 304 728 m 285 358 q 303 219 285 263 q 361 176 321 176 q 420 219 401 176 q 439 358 439 263 q 420 497 439 454 q 361 539 401 539 q 303 497 321 539 q 285 358 285 454 z "},"þ":{"ha":696,"x_min":69,"x_max":654,"o":"m 69 972 l 292 972 l 292 685 q 417 728 346 728 q 590 628 525 728 q 654 358 654 529 q 590 88 654 188 q 417 -11 525 -11 q 292 32 346 -11 l 292 -260 l 69 -260 l 69 972 m 285 358 q 303 220 285 263 q 361 178 321 178 q 420 221 401 178 q 439 358 439 264 q 420 497 439 453 q 361 540 401 540 q 303 497 321 540 q 285 358 285 454 z "},"q":{"ha":696,"x_min":42,"x_max":626,"o":"m 286 728 q 457 639 392 728 l 517 717 l 626 717 l 626 -256 l 404 -256 l 404 32 q 281 -11 350 -11 q 106 88 169 -11 q 42 358 42 188 q 107 629 42 531 q 286 728 172 728 m 257 358 q 276 220 257 264 q 335 176 294 176 q 393 219 375 176 q 411 358 411 263 q 393 497 411 454 q 335 539 375 539 q 276 496 294 539 q 257 358 257 453 z "},"r":{"ha":475,"x_min":69,"x_max":447,"o":"m 69 717 l 179 717 l 232 646 q 381 726 288 726 q 447 715 411 726 l 447 508 q 386 518 418 518 q 315 488 338 518 q 292 396 292 458 l 292 0 l 69 0 l 69 717 z "},"ŕ":{"ha":475,"x_min":69,"x_max":447,"o":"m 69 717 l 179 717 l 232 646 q 381 726 288 726 q 447 715 411 726 l 447 508 q 386 518 418 518 q 315 488 338 518 q 292 396 292 458 l 292 0 l 69 0 l 69 717 m 236 1015 l 411 1015 l 313 811 l 174 811 l 236 1015 z "},"ř":{"ha":475,"x_min":57,"x_max":450,"o":"m 69 717 l 179 717 l 232 646 q 381 726 288 726 q 447 715 411 726 l 447 508 q 386 518 418 518 q 315 488 338 518 q 292 396 292 458 l 292 0 l 69 0 l 69 717 m 201 1015 l 253 926 l 304 1015 l 450 1015 l 321 811 l 185 811 l 57 1015 l 201 1015 z "},"ŗ":{"ha":475,"x_min":69,"x_max":447,"o":"m 69 717 l 179 717 l 232 646 q 381 726 288 726 q 447 715 411 726 l 447 508 q 386 518 418 518 q 315 488 338 518 q 292 396 292 458 l 292 0 l 69 0 l 69 717 m 126 -387 q 169 -247 165 -300 q 113 -219 135 -244 q 92 -156 92 -194 q 116 -90 92 -115 q 178 -64 140 -64 q 244 -95 219 -64 q 268 -179 268 -126 q 208 -387 268 -276 l 126 -387 z "},"s":{"ha":547,"x_min":50,"x_max":499,"o":"m 267 -12 q 154 2 211 -12 q 50 42 97 17 l 50 231 q 225 163 153 163 q 271 176 256 163 q 286 215 286 190 q 267 259 286 243 q 206 294 247 275 q 128 337 160 315 q 75 400 97 358 q 53 508 53 442 q 114 671 53 613 q 285 729 175 729 q 482 683 390 729 l 482 499 q 326 556 390 556 q 281 542 297 556 q 265 503 265 528 q 285 459 265 475 q 346 424 304 443 q 423 381 392 403 q 476 317 454 360 q 499 208 499 275 q 438 47 499 106 q 267 -12 376 -12 z "},"ś":{"ha":547,"x_min":50,"x_max":499,"o":"m 267 -12 q 154 2 211 -12 q 50 42 97 17 l 50 231 q 225 163 153 163 q 271 176 256 163 q 286 215 286 190 q 267 259 286 243 q 206 294 247 275 q 128 337 160 315 q 75 400 97 358 q 53 508 53 442 q 114 671 53 613 q 285 729 175 729 q 482 683 390 729 l 482 499 q 326 556 390 556 q 281 542 297 556 q 265 503 265 528 q 285 459 265 475 q 346 424 304 443 q 423 381 392 403 q 476 317 454 360 q 499 208 499 275 q 438 47 499 106 q 267 -12 376 -12 m 257 1015 l 432 1015 l 333 811 l 194 811 l 257 1015 z "},"š":{"ha":547,"x_min":50,"x_max":499,"o":"m 267 -12 q 154 2 211 -12 q 50 42 97 17 l 50 231 q 225 163 153 163 q 271 176 256 163 q 286 215 286 190 q 267 259 286 243 q 206 294 247 275 q 128 337 160 315 q 75 400 97 358 q 53 508 53 442 q 114 671 53 613 q 285 729 175 729 q 482 683 390 729 l 482 499 q 326 556 390 556 q 281 542 297 556 q 265 503 265 528 q 285 459 265 475 q 346 424 304 443 q 423 381 392 403 q 476 317 454 360 q 499 208 499 275 q 438 47 499 106 q 267 -12 376 -12 m 222 1015 l 274 926 l 324 1015 l 471 1015 l 342 811 l 206 811 l 78 1015 l 222 1015 z "},"ş":{"ha":547,"x_min":50,"x_max":499,"o":"m 201 -7 q 50 42 122 3 l 50 231 q 225 163 153 163 q 271 176 256 163 q 286 215 286 190 q 267 259 286 243 q 206 294 247 275 q 128 337 160 315 q 75 400 97 358 q 53 508 53 442 q 114 671 53 613 q 285 729 175 729 q 482 683 390 729 l 482 499 q 326 556 390 556 q 281 542 297 556 q 265 503 265 528 q 285 459 265 475 q 346 424 304 443 q 423 381 392 403 q 476 317 454 360 q 499 208 499 275 q 460 74 499 128 q 353 -1 422 19 l 321 -228 l 157 -228 l 201 -7 z "},"ŝ":{"ha":547,"x_min":50,"x_max":499,"o":"m 267 -12 q 154 2 211 -12 q 50 42 97 17 l 50 231 q 225 163 153 163 q 271 176 256 163 q 286 215 286 190 q 267 259 286 243 q 206 294 247 275 q 128 337 160 315 q 75 400 97 358 q 53 508 53 442 q 114 671 53 613 q 285 729 175 729 q 482 683 390 729 l 482 499 q 326 556 390 556 q 281 542 297 556 q 265 503 265 528 q 285 459 265 475 q 346 424 304 443 q 423 381 392 403 q 476 317 454 360 q 499 208 499 275 q 438 47 499 106 q 267 -12 376 -12 m 206 1015 l 343 1015 l 471 811 l 325 811 l 275 900 l 224 811 l 78 811 l 206 1015 z "},"ș":{"ha":547,"x_min":50,"x_max":499,"o":"m 267 -12 q 154 2 211 -12 q 50 42 97 17 l 50 231 q 225 163 153 163 q 271 176 256 163 q 286 215 286 190 q 267 259 286 243 q 206 294 247 275 q 128 337 160 315 q 75 400 97 358 q 53 508 53 442 q 114 671 53 613 q 285 729 175 729 q 482 683 390 729 l 482 499 q 326 556 390 556 q 281 542 297 556 q 265 503 265 528 q 285 459 265 475 q 346 424 304 443 q 423 381 392 403 q 476 317 454 360 q 499 208 499 275 q 438 47 499 106 q 267 -12 376 -12 m 219 -387 q 263 -247 258 -300 q 206 -219 228 -244 q 185 -156 185 -194 q 209 -90 185 -115 q 271 -64 233 -64 q 337 -95 313 -64 q 361 -179 361 -126 q 301 -387 361 -276 l 219 -387 z "},"ß":{"ha":714,"x_min":69,"x_max":667,"o":"m 69 682 q 148 903 69 822 q 364 985 226 985 q 570 910 492 985 q 649 713 649 835 q 622 588 649 643 q 547 501 596 533 q 635 408 604 471 q 667 261 667 346 q 599 65 667 135 q 413 -4 532 -4 q 333 3 368 -4 l 333 164 q 360 163 343 163 q 427 191 406 163 q 449 283 449 219 q 428 376 449 347 q 365 406 408 406 l 342 406 l 342 576 l 367 576 q 419 605 401 576 q 436 693 436 633 q 419 781 436 753 q 364 808 401 808 q 292 704 292 808 l 292 0 l 69 0 l 69 682 z "},"ſ":{"ha":404,"x_min":38,"x_max":471,"o":"m 126 781 q 185 963 126 900 q 353 1026 243 1026 q 471 1008 411 1026 l 471 835 q 414 849 442 849 q 349 767 349 849 l 349 0 l 126 0 l 126 524 l 38 524 l 38 717 l 126 717 l 126 781 z "},"t":{"ha":526,"x_min":35,"x_max":481,"o":"m 346 -8 q 180 49 236 -8 q 124 219 124 107 l 124 524 l 35 524 l 35 619 l 249 890 l 346 890 l 346 717 l 476 717 l 476 533 l 346 533 l 346 253 q 413 179 346 179 q 481 197 450 179 l 481 13 q 346 -8 406 -8 z "},"ŧ":{"ha":535,"x_min":39,"x_max":485,"o":"m 350 -8 q 184 49 240 -8 q 128 219 128 107 l 128 310 l 39 310 l 39 458 l 128 458 l 128 556 l 39 556 l 39 644 l 258 890 l 350 890 l 350 717 l 479 717 l 479 556 l 350 556 l 350 458 l 468 458 l 468 314 l 350 314 l 350 236 q 417 163 350 163 q 485 179 451 163 l 485 14 q 350 -8 417 -8 z "},"ť":{"ha":542,"x_min":35,"x_max":581,"o":"m 346 -8 q 180 49 236 -8 q 124 219 124 107 l 124 524 l 35 524 l 35 619 l 249 890 l 346 890 l 346 717 l 476 717 l 476 533 l 346 533 l 346 253 q 413 179 346 179 q 481 197 450 179 l 481 13 q 346 -8 406 -8 m 419 972 l 581 972 l 526 760 l 400 760 l 419 972 z "},"ţ":{"ha":526,"x_min":35,"x_max":481,"o":"m 260 3 q 158 77 193 22 q 124 219 124 132 l 124 524 l 35 524 l 35 619 l 249 890 l 346 890 l 346 717 l 476 717 l 476 533 l 346 533 l 346 253 q 413 179 346 179 q 481 197 450 179 l 481 13 q 410 -3 439 1 l 378 -228 l 214 -228 l 260 3 z "},"ț":{"ha":526,"x_min":35,"x_max":481,"o":"m 346 -8 q 180 49 236 -8 q 124 219 124 107 l 124 524 l 35 524 l 35 619 l 249 890 l 346 890 l 346 717 l 476 717 l 476 533 l 346 533 l 346 253 q 413 179 346 179 q 481 197 450 179 l 481 13 q 346 -8 406 -8 m 278 -387 q 321 -247 317 -300 q 265 -219 286 -244 q 243 -156 243 -194 q 267 -90 243 -115 q 329 -64 292 -64 q 395 -95 371 -64 q 419 -179 419 -126 q 360 -387 419 -276 l 278 -387 z "},"u":{"ha":697,"x_min":60,"x_max":638,"o":"m 350 -12 q 136 63 213 -12 q 60 278 60 138 l 60 717 l 282 717 l 282 268 q 349 178 282 178 q 415 268 415 178 l 415 717 l 638 717 l 638 278 q 562 63 638 139 q 350 -12 486 -12 z "},"ú":{"ha":697,"x_min":60,"x_max":638,"o":"m 350 -12 q 136 63 213 -12 q 60 278 60 138 l 60 717 l 282 717 l 282 268 q 349 178 282 178 q 415 268 415 178 l 415 717 l 638 717 l 638 278 q 562 63 638 139 q 350 -12 486 -12 m 331 1015 l 506 1015 l 407 811 l 268 811 l 331 1015 z "},"ŭ":{"ha":697,"x_min":60,"x_max":638,"o":"m 350 -12 q 136 63 213 -12 q 60 278 60 138 l 60 717 l 282 717 l 282 268 q 349 178 282 178 q 415 268 415 178 l 415 717 l 638 717 l 638 278 q 562 63 638 139 q 350 -12 486 -12 m 306 1015 q 304 993 304 1007 q 349 926 304 926 q 385 949 374 926 q 393 1015 397 971 l 514 1015 q 518 971 518 993 q 474 849 518 893 q 349 806 429 806 q 224 849 269 806 q 179 969 179 892 q 183 1015 179 990 l 306 1015 z "},"û":{"ha":697,"x_min":60,"x_max":638,"o":"m 350 -12 q 136 63 213 -12 q 60 278 60 138 l 60 717 l 282 717 l 282 268 q 349 178 282 178 q 415 268 415 178 l 415 717 l 638 717 l 638 278 q 562 63 638 139 q 350 -12 486 -12 m 281 1015 l 417 1015 l 546 811 l 400 811 l 349 900 l 297 811 l 153 811 l 281 1015 z "},"ü":{"ha":697,"x_min":60,"x_max":638,"o":"m 350 -12 q 136 63 213 -12 q 60 278 60 138 l 60 717 l 282 717 l 282 268 q 349 178 282 178 q 415 268 415 178 l 415 717 l 638 717 l 638 278 q 562 63 638 139 q 350 -12 486 -12 m 140 910 q 167 983 140 956 q 238 1011 193 1011 q 307 983 281 1011 q 333 910 333 956 q 307 835 333 863 q 238 807 281 807 q 167 835 193 807 q 140 910 140 863 m 364 910 q 390 983 364 956 q 461 1011 417 1011 q 531 983 504 1011 q 557 910 557 956 q 531 835 557 863 q 461 807 504 807 q 390 835 417 807 q 364 910 364 863 z "},"ụ":{"ha":697,"x_min":60,"x_max":638,"o":"m 350 -12 q 136 63 213 -12 q 60 278 60 138 l 60 717 l 282 717 l 282 268 q 349 178 282 178 q 415 268 415 178 l 415 717 l 638 717 l 638 278 q 562 63 638 139 q 350 -12 486 -12 z "},"ù":{"ha":697,"x_min":60,"x_max":638,"o":"m 350 -12 q 136 63 213 -12 q 60 278 60 138 l 60 717 l 282 717 l 282 268 q 349 178 282 178 q 415 268 415 178 l 415 717 l 638 717 l 638 278 q 562 63 638 139 q 350 -12 486 -12 m 367 1015 l 429 811 l 290 811 l 192 1015 l 367 1015 z "},"ű":{"ha":697,"x_min":60,"x_max":638,"o":"m 350 -12 q 136 63 213 -12 q 60 278 60 138 l 60 717 l 282 717 l 282 268 q 349 178 282 178 q 415 268 415 178 l 415 717 l 638 717 l 638 278 q 562 63 638 139 q 350 -12 486 -12 m 225 1015 l 390 1015 l 310 811 l 174 811 l 225 1015 m 439 1015 l 603 1015 l 503 811 l 368 811 l 439 1015 z "},"ū":{"ha":697,"x_min":60,"x_max":638,"o":"m 350 -12 q 136 63 213 -12 q 60 278 60 138 l 60 717 l 282 717 l 282 268 q 349 178 282 178 q 415 268 415 178 l 415 717 l 638 717 l 638 278 q 562 63 638 139 q 350 -12 486 -12 m 192 960 l 506 960 l 506 832 l 192 832 l 192 960 z "},"ų":{"ha":697,"x_min":60,"x_max":638,"o":"m 519 -275 q 431 -290 475 -290 q 329 -254 367 -290 q 292 -153 292 -218 q 329 -12 292 -78 q 130 69 200 -7 q 60 278 60 146 l 60 717 l 282 717 l 282 268 q 299 201 282 224 q 349 178 317 178 q 398 201 381 178 q 415 268 415 224 l 415 717 l 638 717 l 638 278 q 613 138 638 194 q 532 39 588 81 q 471 -31 493 8 q 449 -108 449 -69 q 460 -145 449 -132 q 490 -158 471 -158 q 519 -151 501 -158 l 519 -275 z "},"ů":{"ha":697,"x_min":60,"x_max":638,"o":"m 350 -12 q 136 63 213 -12 q 60 278 60 138 l 60 717 l 282 717 l 282 268 q 349 178 282 178 q 415 268 415 178 l 415 717 l 638 717 l 638 278 q 562 63 638 139 q 350 -12 486 -12 m 169 953 q 220 1078 169 1029 q 349 1126 271 1126 q 478 1078 428 1126 q 528 953 528 1029 q 478 826 528 875 q 349 778 428 778 q 220 827 271 778 q 169 953 169 876 m 281 953 q 299 899 281 919 q 349 879 318 879 q 399 899 381 879 q 418 953 418 919 q 399 1005 418 985 q 349 1025 379 1025 q 299 1005 318 1025 q 281 953 281 985 z "},"ũ":{"ha":697,"x_min":60,"x_max":638,"o":"m 350 -12 q 136 63 213 -12 q 60 278 60 138 l 60 717 l 282 717 l 282 268 q 349 178 282 178 q 415 268 415 178 l 415 717 l 638 717 l 638 278 q 562 63 638 139 q 350 -12 486 -12 m 167 822 q 163 871 163 847 q 191 972 163 936 q 269 1007 219 1007 q 320 995 299 1007 q 363 964 342 983 q 374 954 365 961 q 390 944 383 947 q 403 940 396 940 q 424 1003 428 940 l 531 1003 q 533 960 533 972 q 506 855 533 892 q 428 818 478 818 q 377 830 399 818 q 335 861 356 842 q 323 871 332 864 q 308 881 314 878 q 294 885 301 885 q 275 822 269 885 l 167 822 z "},"v":{"ha":665,"x_min":18,"x_max":647,"o":"m 18 717 l 247 717 l 333 343 l 418 717 l 647 717 l 421 0 l 243 0 l 18 717 z "},"w":{"ha":947,"x_min":22,"x_max":925,"o":"m 22 717 l 243 717 l 319 358 l 397 606 l 550 606 l 628 363 l 703 717 l 925 717 l 744 0 l 578 0 l 474 317 l 369 0 l 203 0 l 22 717 z "},"ẃ":{"ha":960,"x_min":22,"x_max":925,"o":"m 22 717 l 243 717 l 319 358 l 397 606 l 550 606 l 628 363 l 703 717 l 925 717 l 744 0 l 578 0 l 474 317 l 369 0 l 203 0 l 22 717 m 463 1015 l 638 1015 l 539 811 l 400 811 l 463 1015 z "},"ŵ":{"ha":960,"x_min":22,"x_max":925,"o":"m 22 717 l 243 717 l 319 358 l 397 606 l 550 606 l 628 363 l 703 717 l 925 717 l 744 0 l 578 0 l 474 317 l 369 0 l 203 0 l 22 717 m 411 1015 l 549 1015 l 676 811 l 531 811 l 481 900 l 429 811 l 283 811 l 411 1015 z "},"ẅ":{"ha":960,"x_min":22,"x_max":925,"o":"m 22 717 l 243 717 l 319 358 l 397 606 l 550 606 l 628 363 l 703 717 l 925 717 l 744 0 l 578 0 l 474 317 l 369 0 l 203 0 l 22 717 m 271 910 q 297 983 271 956 q 368 1011 324 1011 q 439 983 413 1011 q 465 910 465 956 q 439 835 465 863 q 368 807 413 807 q 297 835 324 807 q 271 910 271 863 m 496 910 q 522 983 496 956 q 592 1011 549 1011 q 663 983 636 1011 q 689 910 689 956 q 663 835 689 863 q 592 807 636 807 q 522 835 549 807 q 496 910 496 863 z "},"ẁ":{"ha":960,"x_min":22,"x_max":925,"o":"m 22 717 l 243 717 l 319 358 l 397 606 l 550 606 l 628 363 l 703 717 l 925 717 l 744 0 l 578 0 l 474 317 l 369 0 l 203 0 l 22 717 m 497 1015 l 560 811 l 422 811 l 322 1015 l 497 1015 z "},"x":{"ha":693,"x_min":33,"x_max":660,"o":"m 201 365 l 42 717 l 263 717 l 347 525 l 431 717 l 651 717 l 490 365 l 660 0 l 432 0 l 346 203 l 260 0 l 33 0 l 201 365 z "},"y":{"ha":667,"x_min":18,"x_max":649,"o":"m 226 24 l 18 717 l 246 717 l 336 342 l 421 717 l 649 717 l 365 -256 l 129 -256 l 226 24 z "},"ý":{"ha":667,"x_min":18,"x_max":649,"o":"m 226 24 l 18 717 l 246 717 l 336 342 l 421 717 l 649 717 l 365 -256 l 129 -256 l 226 24 m 315 1015 l 490 1015 l 392 811 l 253 811 l 315 1015 z "},"ŷ":{"ha":667,"x_min":18,"x_max":649,"o":"m 226 24 l 18 717 l 246 717 l 336 342 l 421 717 l 649 717 l 365 -256 l 129 -256 l 226 24 m 265 1015 l 401 1015 l 529 811 l 383 811 l 333 900 l 282 811 l 136 811 l 265 1015 z "},"ÿ":{"ha":667,"x_min":18,"x_max":649,"o":"m 226 24 l 18 717 l 246 717 l 336 342 l 421 717 l 649 717 l 365 -256 l 129 -256 l 226 24 m 124 910 q 151 983 124 956 q 221 1011 178 1011 q 292 983 265 1011 q 318 910 318 956 q 292 835 318 863 q 221 807 265 807 q 151 835 178 807 q 124 910 124 864 m 349 910 q 375 983 349 956 q 444 1011 401 1011 q 515 983 489 1011 q 542 910 542 956 q 515 835 542 863 q 444 807 489 807 q 375 835 401 807 q 349 910 349 863 z "},"ỳ":{"ha":667,"x_min":18,"x_max":649,"o":"m 226 24 l 18 717 l 246 717 l 336 342 l 421 717 l 649 717 l 365 -256 l 129 -256 l 226 24 m 350 1015 l 413 811 l 275 811 l 175 1015 l 350 1015 z "},"ȳ":{"ha":667,"x_min":18,"x_max":649,"o":"m 226 24 l 18 717 l 246 717 l 336 342 l 421 717 l 649 717 l 365 -256 l 129 -256 l 226 24 m 176 960 l 490 960 l 490 832 l 176 832 l 176 960 z "},"ỹ":{"ha":667,"x_min":18,"x_max":649,"o":"m 226 24 l 18 717 l 246 717 l 336 342 l 421 717 l 649 717 l 365 -256 l 129 -256 l 226 24 m 151 822 q 147 871 147 847 q 176 972 147 936 q 254 1007 204 1007 q 305 995 283 1007 q 347 964 326 983 q 359 954 350 961 q 374 944 368 947 q 388 940 381 940 q 408 1003 411 940 l 515 1003 q 518 960 518 972 q 490 855 518 892 q 411 818 461 818 q 362 828 381 818 q 317 861 343 839 q 279 885 293 885 q 261 869 267 885 q 258 822 256 853 l 151 822 z "},"z":{"ha":542,"x_min":46,"x_max":497,"o":"m 46 117 l 238 531 l 53 531 l 53 717 l 490 717 l 490 601 l 300 186 l 497 186 l 497 0 l 46 0 l 46 117 z "},"ź":{"ha":542,"x_min":46,"x_max":497,"o":"m 46 117 l 238 531 l 53 531 l 53 717 l 490 717 l 490 601 l 300 186 l 497 186 l 497 0 l 46 0 l 46 117 m 254 1015 l 429 1015 l 331 811 l 192 811 l 254 1015 z "},"ž":{"ha":542,"x_min":46,"x_max":497,"o":"m 46 117 l 238 531 l 53 531 l 53 717 l 490 717 l 490 601 l 300 186 l 497 186 l 497 0 l 46 0 l 46 117 m 221 1015 l 272 926 l 322 1015 l 468 1015 l 340 811 l 203 811 l 75 1015 l 221 1015 z "},"ż":{"ha":542,"x_min":46,"x_max":497,"o":"m 46 117 l 238 531 l 53 531 l 53 717 l 490 717 l 490 601 l 300 186 l 497 186 l 497 0 l 46 0 l 46 117 m 163 900 q 193 983 163 951 q 272 1014 224 1014 q 351 983 321 1014 q 382 900 382 951 q 351 817 382 849 q 272 786 321 786 q 193 817 224 786 q 163 900 163 849 z "},"ﬁ":{"ha":888,"x_min":38,"x_max":832,"o":"m 597 526 l 349 526 l 349 0 l 126 0 l 126 524 l 38 524 l 38 717 l 126 717 l 126 781 q 183 964 126 901 q 346 1026 239 1026 q 461 1007 400 1026 l 461 838 q 408 849 431 849 q 363 830 378 849 q 349 771 349 811 l 349 717 l 818 717 l 818 0 l 597 0 l 597 526 m 583 921 q 617 1015 583 979 q 707 1050 651 1050 q 798 1015 764 1050 q 832 921 832 979 q 798 827 832 863 q 707 792 764 792 q 617 827 651 792 q 583 921 583 863 z "},"ﬂ":{"ha":950,"x_min":38,"x_max":918,"o":"m 38 717 l 133 717 l 133 756 q 213 957 133 888 q 442 1026 292 1026 q 616 1007 522 1026 q 801 951 710 988 l 801 244 q 816 195 801 210 q 863 181 831 181 q 918 189 889 181 l 918 7 q 794 -8 854 -8 q 633 49 686 -8 q 579 225 579 107 l 579 829 q 469 849 519 849 q 383 826 410 849 q 356 751 356 803 l 356 715 l 467 715 l 467 524 l 356 524 l 356 0 l 133 0 l 133 524 l 38 524 l 38 717 z "},"ª":{"ha":456,"x_min":28,"x_max":407,"o":"m 199 503 q 74 567 121 503 q 28 740 28 631 q 74 914 28 850 q 199 978 121 978 q 311 935 271 978 l 335 972 l 407 972 l 407 508 l 335 508 l 310 550 q 199 503 265 503 m 168 740 q 180 653 168 681 q 217 625 192 625 q 256 653 243 625 q 268 740 268 681 q 256 828 268 800 q 217 856 243 856 q 180 828 192 856 q 168 740 168 800 z "},"º":{"ha":436,"x_min":28,"x_max":408,"o":"m 217 504 q 78 568 129 504 q 28 742 28 632 q 78 915 28 851 q 217 979 129 979 q 356 915 304 979 q 408 742 408 851 q 356 568 408 632 q 217 504 304 504 m 168 742 q 180 654 168 682 q 217 626 192 626 q 256 654 243 626 q 268 742 268 682 q 256 829 268 801 q 217 857 243 857 q 180 829 192 857 q 168 742 168 801 z "},"А":{"ha":810,"x_min":26,"x_max":783,"o":"m 304 972 l 506 972 l 783 0 l 543 0 l 510 146 l 300 146 l 267 0 l 26 0 l 304 972 m 481 332 l 404 661 l 328 332 l 481 332 z "},"Б":{"ha":742,"x_min":76,"x_max":697,"o":"m 76 972 l 640 972 l 640 782 l 314 782 l 314 614 l 383 614 q 616 534 535 614 q 697 307 697 454 q 616 80 697 160 q 383 0 535 0 l 76 0 l 76 972 m 346 181 q 468 310 468 181 q 346 439 468 439 l 311 439 l 311 181 l 346 181 z "},"В":{"ha":746,"x_min":76,"x_max":696,"o":"m 76 972 l 419 972 q 610 907 543 972 q 676 722 676 842 q 643 588 676 643 q 546 504 610 533 q 657 414 618 476 q 696 263 696 351 q 624 69 696 139 q 426 0 553 0 l 76 0 l 76 972 m 356 168 q 468 289 468 168 q 356 408 468 408 l 303 408 l 303 168 l 356 168 m 350 576 q 457 690 457 576 q 350 804 457 804 l 303 804 l 303 576 l 350 576 z "},"Г":{"ha":581,"x_min":76,"x_max":551,"o":"m 76 972 l 551 972 l 551 750 l 317 750 l 317 0 l 76 0 l 76 972 z "},"Ѓ":{"ha":581,"x_min":76,"x_max":551,"o":"m 76 972 l 551 972 l 551 750 l 317 750 l 317 0 l 76 0 l 76 972 m 299 1264 l 482 1264 l 382 1054 l 236 1054 l 299 1264 z "},"Ґ":{"ha":594,"x_min":76,"x_max":565,"o":"m 76 972 l 343 972 l 343 1172 l 565 1172 l 565 750 l 317 750 l 317 0 l 76 0 l 76 972 z "},"Д":{"ha":928,"x_min":39,"x_max":886,"o":"m 39 217 l 67 217 q 119 232 100 217 q 147 284 138 247 q 160 389 157 321 l 186 972 l 782 972 l 782 217 l 886 217 l 886 -194 l 661 -194 l 661 0 l 264 0 l 264 -194 l 39 -194 l 39 217 m 550 204 l 550 763 l 413 763 l 399 375 q 388 272 396 311 q 365 204 381 232 l 550 204 z "},"Е":{"ha":615,"x_min":76,"x_max":558,"o":"m 76 972 l 554 972 l 554 775 l 317 775 l 317 585 l 529 585 l 529 399 l 317 399 l 317 199 l 558 199 l 558 0 l 76 0 l 76 972 z "},"Ѐ":{"ha":615,"x_min":76,"x_max":558,"o":"m 76 972 l 554 972 l 554 775 l 317 775 l 317 585 l 529 585 l 529 399 l 317 399 l 317 199 l 558 199 l 558 0 l 76 0 l 76 972 m 329 1264 l 392 1054 l 246 1054 l 147 1264 l 329 1264 z "},"Ё":{"ha":615,"x_min":76,"x_max":558,"o":"m 76 972 l 554 972 l 554 775 l 317 775 l 317 585 l 529 585 l 529 399 l 317 399 l 317 199 l 558 199 l 558 0 l 76 0 l 76 972 m 100 1156 q 126 1231 100 1203 q 197 1258 153 1258 q 269 1231 242 1258 q 296 1156 296 1203 q 269 1081 296 1108 q 197 1053 242 1053 q 126 1081 153 1053 q 100 1156 100 1108 m 338 1156 q 365 1231 338 1203 q 436 1258 392 1258 q 507 1231 481 1258 q 533 1156 533 1203 q 507 1081 533 1108 q 436 1053 481 1053 q 365 1081 392 1053 q 338 1156 338 1108 z "},"Ж":{"ha":1208,"x_min":38,"x_max":1185,"o":"m 240 499 l 44 972 l 297 972 l 444 606 l 494 606 l 494 972 l 729 972 l 729 606 l 778 606 l 925 972 l 1178 972 l 983 499 l 1185 0 l 931 0 l 779 379 l 729 379 l 729 0 l 494 0 l 494 379 l 443 379 l 292 0 l 38 0 l 240 499 z "},"З":{"ha":658,"x_min":53,"x_max":606,"o":"m 307 -11 q 53 47 182 -11 l 53 256 q 242 201 149 201 q 361 299 361 201 q 244 396 361 396 l 139 396 l 139 585 l 235 585 q 349 678 349 585 q 232 771 349 771 q 57 722 146 771 l 57 929 q 301 983 181 983 q 513 915 438 983 q 588 724 588 847 q 558 591 588 647 q 474 503 529 535 q 571 408 536 472 q 606 257 606 344 q 528 58 606 128 q 307 -11 451 -11 z "},"И":{"ha":804,"x_min":76,"x_max":728,"o":"m 76 972 l 315 972 l 315 521 l 574 972 l 728 972 l 728 0 l 489 0 l 489 457 l 231 0 l 76 0 l 76 972 z "},"Й":{"ha":804,"x_min":76,"x_max":728,"o":"m 76 972 l 315 972 l 315 521 l 574 972 l 728 972 l 728 0 l 489 0 l 489 457 l 231 0 l 76 0 l 76 972 m 360 1264 q 358 1240 358 1256 q 371 1190 358 1208 q 406 1171 383 1171 q 440 1190 428 1171 q 451 1240 451 1208 q 450 1264 451 1256 l 572 1264 q 576 1217 576 1239 q 531 1094 576 1139 q 406 1049 485 1049 q 279 1094 325 1049 q 233 1217 233 1139 q 238 1264 233 1239 l 360 1264 z "},"Ѝ":{"ha":804,"x_min":76,"x_max":728,"o":"m 76 972 l 315 972 l 315 521 l 574 972 l 728 972 l 728 0 l 489 0 l 489 457 l 231 0 l 76 0 l 76 972 m 418 1264 l 481 1054 l 335 1054 l 235 1264 l 418 1264 z "},"К":{"ha":821,"x_min":76,"x_max":783,"o":"m 378 379 l 317 379 l 317 0 l 76 0 l 76 972 l 317 972 l 317 606 l 376 606 l 524 972 l 776 972 l 582 499 l 783 0 l 529 0 l 378 379 z "},"Ќ":{"ha":821,"x_min":76,"x_max":783,"o":"m 378 379 l 317 379 l 317 0 l 76 0 l 76 972 l 317 972 l 317 606 l 376 606 l 524 972 l 776 972 l 582 499 l 783 0 l 529 0 l 378 379 m 388 1264 l 569 1264 l 469 1054 l 325 1054 l 388 1264 z "},"Л":{"ha":850,"x_min":39,"x_max":774,"o":"m 533 756 l 394 756 l 375 260 q 121 -4 367 -4 q 39 3 88 -4 l 39 213 q 63 211 47 211 q 119 231 103 211 q 139 300 136 251 l 167 972 l 774 972 l 774 0 l 533 0 l 533 756 z "},"М":{"ha":1017,"x_min":42,"x_max":975,"o":"m 142 972 l 308 972 l 508 506 l 708 972 l 875 972 l 975 0 l 735 0 l 692 465 l 575 188 l 440 188 l 324 464 l 282 0 l 42 0 l 142 972 z "},"Н":{"ha":815,"x_min":76,"x_max":739,"o":"m 499 379 l 317 379 l 317 0 l 76 0 l 76 972 l 317 972 l 317 606 l 499 606 l 499 972 l 739 972 l 739 0 l 499 0 l 499 379 z "},"О":{"ha":818,"x_min":49,"x_max":769,"o":"m 408 -12 q 143 119 238 -12 q 49 486 49 250 q 143 853 49 722 q 408 985 238 985 q 675 853 581 985 q 769 486 769 722 q 675 119 769 250 q 408 -12 581 -12 m 297 486 q 324 274 297 343 q 408 206 351 206 q 493 274 465 206 q 521 486 521 343 q 493 698 521 629 q 408 767 465 767 q 324 698 351 767 q 297 486 297 629 z "},"П":{"ha":815,"x_min":76,"x_max":739,"o":"m 76 972 l 739 972 l 739 0 l 499 0 l 499 756 l 317 756 l 317 0 l 76 0 l 76 972 z "},"Р":{"ha":736,"x_min":76,"x_max":700,"o":"m 76 972 l 368 972 q 613 882 526 972 q 700 625 700 792 q 613 368 700 458 q 368 278 526 278 l 317 278 l 317 0 l 76 0 l 76 972 m 333 471 q 436 507 404 471 q 468 621 468 543 q 436 735 468 699 q 333 771 404 771 l 304 771 l 304 471 l 333 471 z "},"С":{"ha":679,"x_min":49,"x_max":622,"o":"m 408 -12 q 144 119 239 -12 q 49 486 49 251 q 144 853 49 721 q 408 985 239 985 q 618 929 515 985 l 618 719 q 472 768 542 768 q 342 697 386 768 q 297 486 297 625 q 342 276 297 347 q 472 204 386 204 q 622 257 542 204 l 622 46 q 408 -12 522 -12 z "},"Т":{"ha":661,"x_min":32,"x_max":628,"o":"m 210 751 l 32 751 l 32 972 l 628 972 l 628 751 l 450 751 l 450 0 l 210 0 l 210 751 z "},"У":{"ha":768,"x_min":13,"x_max":747,"o":"m 268 265 l 13 972 l 267 972 l 388 560 l 493 972 l 747 972 l 425 0 l 168 0 l 268 265 z "},"Ў":{"ha":768,"x_min":13,"x_max":747,"o":"m 268 265 l 13 972 l 267 972 l 388 560 l 493 972 l 747 972 l 425 0 l 168 0 l 268 265 m 335 1264 q 333 1240 333 1256 q 346 1190 333 1208 q 381 1171 358 1171 q 415 1190 403 1171 q 426 1240 426 1208 q 425 1264 426 1256 l 547 1264 q 551 1217 551 1239 q 506 1094 551 1139 q 381 1049 460 1049 q 254 1094 300 1049 q 208 1217 208 1139 q 213 1264 208 1239 l 335 1264 z "},"Ф":{"ha":999,"x_min":42,"x_max":957,"o":"m 381 64 q 132 190 222 78 q 42 486 42 301 q 133 783 42 671 q 382 908 224 894 l 382 1051 l 618 1051 l 618 908 q 867 783 776 894 q 957 486 957 671 q 867 190 957 301 q 618 64 776 78 l 618 -79 l 381 -79 l 381 64 m 274 486 q 304 328 274 385 q 393 264 335 272 l 393 708 q 304 644 335 700 q 274 486 274 588 m 607 264 q 695 330 665 274 q 725 486 725 386 q 695 642 725 586 q 607 708 665 699 l 607 264 z "},"Х":{"ha":828,"x_min":39,"x_max":789,"o":"m 263 499 l 51 972 l 297 972 l 417 689 l 532 972 l 776 972 l 572 499 l 789 0 l 542 0 l 417 308 l 288 0 l 39 0 l 263 499 z "},"Ч":{"ha":769,"x_min":49,"x_max":693,"o":"m 313 290 q 119 367 190 290 q 49 575 49 444 l 49 972 l 290 972 l 290 603 q 371 510 290 510 q 453 529 407 510 l 453 972 l 693 972 l 693 0 l 453 0 l 453 317 q 313 290 383 290 z "},"Ц":{"ha":888,"x_min":76,"x_max":846,"o":"m 621 0 l 76 0 l 76 972 l 317 972 l 317 217 l 499 217 l 499 972 l 739 972 l 739 217 l 846 217 l 846 -194 l 621 -194 l 621 0 z "},"Ш":{"ha":1192,"x_min":76,"x_max":1115,"o":"m 76 972 l 317 972 l 317 217 l 482 217 l 482 972 l 710 972 l 710 217 l 875 217 l 875 972 l 1115 972 l 1115 0 l 76 0 l 76 972 z "},"Щ":{"ha":1263,"x_min":76,"x_max":1221,"o":"m 996 0 l 76 0 l 76 972 l 317 972 l 317 217 l 482 217 l 482 972 l 710 972 l 710 217 l 875 217 l 875 972 l 1115 972 l 1115 217 l 1221 217 l 1221 -194 l 996 -194 l 996 0 z "},"Џ":{"ha":815,"x_min":76,"x_max":739,"o":"m 76 972 l 317 972 l 317 217 l 499 217 l 499 972 l 739 972 l 739 0 l 521 0 l 521 -194 l 294 -194 l 294 0 l 76 0 l 76 972 z "},"Ь":{"ha":726,"x_min":76,"x_max":690,"o":"m 76 972 l 317 972 l 317 671 l 356 671 q 604 584 518 671 q 690 336 690 497 q 604 87 690 174 q 356 0 518 0 l 76 0 l 76 972 m 332 196 q 430 230 399 196 q 461 338 461 264 q 430 446 461 411 q 332 481 399 481 l 306 481 l 306 196 l 332 196 z "},"Ы":{"ha":1119,"x_min":76,"x_max":1043,"o":"m 76 972 l 317 972 l 317 671 l 356 671 q 604 584 518 671 q 690 336 690 497 q 604 87 690 174 q 356 0 518 0 l 76 0 l 76 972 m 332 196 q 430 230 399 196 q 461 338 461 264 q 430 446 461 411 q 332 481 399 481 l 306 481 l 306 196 l 332 196 m 803 972 l 1043 972 l 1043 0 l 803 0 l 803 972 z "},"Ъ":{"ha":824,"x_min":38,"x_max":788,"o":"m 174 768 l 38 768 l 38 972 l 414 972 l 414 671 l 453 671 q 701 584 615 671 q 788 336 788 497 q 701 87 788 174 q 453 0 615 0 l 174 0 l 174 768 m 429 196 q 526 229 494 196 q 558 338 558 263 q 526 447 558 413 q 429 481 494 481 l 403 481 l 403 196 l 429 196 z "},"Љ":{"ha":1183,"x_min":39,"x_max":1147,"o":"m 533 756 l 394 756 l 375 260 q 124 -3 365 -3 q 39 4 90 -3 l 39 214 q 64 213 49 213 q 122 233 106 213 q 140 300 138 253 l 167 972 l 774 972 l 774 671 l 813 671 q 1061 584 975 671 q 1147 336 1147 497 q 1061 87 1147 174 q 813 0 975 0 l 533 0 l 533 756 m 789 196 q 887 230 856 196 q 918 338 918 264 q 887 446 918 411 q 789 481 856 481 l 763 481 l 763 196 l 789 196 z "},"Њ":{"ha":1149,"x_min":76,"x_max":1113,"o":"m 76 972 l 317 972 l 317 606 l 499 606 l 499 972 l 739 972 l 739 671 l 778 671 q 1026 584 940 671 q 1113 335 1113 497 q 1026 87 1113 174 q 778 0 940 0 l 499 0 l 499 379 l 317 379 l 317 0 l 76 0 l 76 972 m 756 196 q 852 229 821 196 q 883 338 883 263 q 852 447 883 413 q 756 481 821 481 l 728 481 l 728 196 l 756 196 z "},"Ѕ":{"ha":660,"x_min":58,"x_max":608,"o":"m 325 -12 q 58 75 189 -12 l 58 293 q 285 196 189 196 q 350 217 328 196 q 372 276 372 238 q 344 349 372 322 q 254 413 315 376 q 156 476 194 446 q 89 563 117 507 q 61 701 61 618 q 97 853 61 789 q 197 951 133 917 q 342 985 261 985 q 583 914 463 985 l 583 699 q 477 756 529 735 q 382 776 425 776 q 319 756 340 776 q 297 697 297 736 q 326 624 297 653 q 417 561 356 596 q 515 494 478 525 q 581 410 553 464 q 608 275 608 356 q 573 124 608 189 q 473 23 538 58 q 325 -12 408 -12 z "},"Є":{"ha":675,"x_min":49,"x_max":621,"o":"m 410 -12 q 143 119 238 -12 q 49 486 49 250 q 92 753 49 640 q 215 925 135 865 q 408 985 296 985 q 617 929 517 985 l 617 719 q 463 768 539 768 q 347 720 390 768 q 294 583 303 672 l 511 583 l 511 397 l 293 397 q 343 254 300 304 q 464 204 386 204 q 621 256 543 204 l 621 46 q 410 -12 521 -12 z "},"Э":{"ha":675,"x_min":54,"x_max":626,"o":"m 265 -12 q 54 46 154 -12 l 54 256 q 211 204 132 204 q 332 254 289 204 q 382 397 375 304 l 164 397 l 164 583 l 381 583 q 328 720 372 672 q 213 768 285 768 q 58 719 136 768 l 58 929 q 267 985 158 985 q 460 925 379 985 q 583 753 540 865 q 626 486 626 640 q 532 119 626 250 q 265 -12 438 -12 z "},"І":{"ha":571,"x_min":54,"x_max":515,"o":"m 54 201 l 165 201 l 165 771 l 63 771 l 63 972 l 507 972 l 507 771 l 406 771 l 406 201 l 515 201 l 515 0 l 54 0 l 54 201 z "},"Ї":{"ha":571,"x_min":54,"x_max":515,"o":"m 54 201 l 165 201 l 165 771 l 63 771 l 63 972 l 507 972 l 507 771 l 406 771 l 406 201 l 515 201 l 515 0 l 54 0 l 54 201 m 68 1156 q 95 1231 68 1203 q 167 1258 122 1258 q 238 1231 211 1258 q 264 1156 264 1203 q 238 1081 264 1108 q 167 1053 211 1053 q 95 1081 122 1053 q 68 1156 68 1108 m 306 1156 q 333 1231 306 1203 q 404 1258 360 1258 q 475 1231 449 1258 q 501 1156 501 1203 q 475 1081 501 1108 q 404 1053 449 1053 q 333 1081 360 1053 q 306 1156 306 1108 z "},"Ј":{"ha":558,"x_min":38,"x_max":488,"o":"m 206 -12 q 38 17 125 -12 l 38 226 q 136 206 92 206 q 220 239 193 206 q 247 342 247 272 l 247 771 l 126 771 l 126 972 l 488 972 l 488 300 q 413 70 488 153 q 206 -12 339 -12 z "},"Ћ":{"ha":857,"x_min":32,"x_max":810,"o":"m 574 297 q 556 369 574 346 q 499 392 538 392 q 438 381 474 392 l 438 0 l 200 0 l 200 751 l 32 751 l 32 972 l 681 972 l 681 757 l 438 757 l 438 567 q 563 589 499 589 q 742 515 675 589 q 810 314 810 440 l 810 0 l 574 0 l 574 297 z "},"Ю":{"ha":1115,"x_min":76,"x_max":1068,"o":"m 717 -12 q 481 90 571 -12 q 372 378 392 192 l 317 378 l 317 0 l 76 0 l 76 972 l 317 972 l 317 604 l 374 604 q 485 886 396 788 q 717 985 574 985 q 976 853 883 985 q 1068 486 1068 722 q 976 119 1068 250 q 717 -12 883 -12 m 603 486 q 631 274 603 343 q 715 206 658 206 q 828 486 828 206 q 715 767 828 767 q 631 698 658 767 q 603 486 603 629 z "},"Я":{"ha":783,"x_min":53,"x_max":707,"o":"m 467 306 l 404 306 l 307 0 l 53 0 l 185 360 q 94 473 125 401 q 63 638 63 544 q 144 883 63 793 q 376 972 226 972 l 707 972 l 707 0 l 467 0 l 467 306 m 303 632 q 329 526 303 561 q 415 490 356 490 l 472 490 l 472 775 l 415 775 q 329 740 356 775 q 303 632 303 704 z "},"Ђ":{"ha":865,"x_min":32,"x_max":826,"o":"m 497 174 q 522 171 514 171 q 600 296 600 171 q 507 436 600 436 q 436 418 472 436 l 436 0 l 200 0 l 200 756 l 32 756 l 32 972 l 693 972 l 693 768 l 435 768 l 435 585 q 571 614 504 614 q 758 532 690 614 q 826 304 826 450 q 759 79 826 160 q 572 -1 692 -1 q 497 6 531 -1 l 497 174 z "},"Ү":{"ha":757,"x_min":13,"x_max":744,"o":"m 258 363 l 13 972 l 267 972 l 379 607 l 492 972 l 744 972 l 499 365 l 499 0 l 258 0 l 258 363 z "},"Ӂ":{"ha":1208,"x_min":38,"x_max":1185,"o":"m 240 499 l 44 972 l 297 972 l 444 606 l 494 606 l 494 972 l 729 972 l 729 606 l 778 606 l 925 972 l 1178 972 l 983 499 l 1185 0 l 931 0 l 779 379 l 729 379 l 729 0 l 494 0 l 494 379 l 443 379 l 292 0 l 38 0 l 240 499 m 567 1264 q 565 1240 565 1256 q 578 1190 565 1208 q 613 1171 590 1171 q 647 1190 635 1171 q 658 1240 658 1208 q 657 1264 658 1256 l 779 1264 q 783 1217 783 1239 q 738 1094 783 1139 q 613 1049 692 1049 q 486 1094 532 1049 q 440 1217 440 1139 q 444 1264 440 1239 l 567 1264 z "},"Ӑ":{"ha":822,"x_min":26,"x_max":783,"o":"m 304 972 l 506 972 l 783 0 l 543 0 l 510 146 l 300 146 l 267 0 l 26 0 l 304 972 m 365 1264 q 364 1240 364 1256 q 376 1190 364 1208 q 411 1171 389 1171 q 445 1190 433 1171 q 457 1240 457 1208 q 456 1264 457 1256 l 578 1264 q 582 1217 582 1239 q 536 1094 582 1139 q 411 1049 490 1049 q 285 1094 331 1049 q 239 1217 239 1139 q 243 1264 239 1239 l 365 1264 m 481 332 l 404 661 l 328 332 l 481 332 z "},"Ӓ":{"ha":822,"x_min":26,"x_max":783,"o":"m 304 972 l 506 972 l 783 0 l 543 0 l 510 146 l 300 146 l 267 0 l 26 0 l 304 972 m 194 1156 q 222 1231 194 1203 q 293 1258 249 1258 q 364 1231 338 1258 q 390 1156 390 1203 q 364 1081 390 1108 q 293 1053 338 1053 q 222 1081 249 1053 q 194 1156 194 1108 m 481 332 l 404 661 l 328 332 l 481 332 m 432 1156 q 459 1231 432 1203 q 531 1258 486 1258 q 601 1231 575 1258 q 628 1156 628 1203 q 601 1081 628 1108 q 531 1053 575 1053 q 459 1081 486 1053 q 432 1156 432 1108 z "},"Ӕ":{"ha":1014,"x_min":-4,"x_max":957,"o":"m 400 972 l 951 972 l 951 775 l 725 775 l 725 585 l 926 585 l 926 399 l 725 399 l 725 199 l 957 199 l 957 0 l 506 0 l 506 157 l 322 157 l 264 0 l -4 0 l 400 972 m 506 333 l 506 665 l 374 333 l 506 333 z "},"Ӗ":{"ha":615,"x_min":76,"x_max":558,"o":"m 76 972 l 554 972 l 554 775 l 317 775 l 317 585 l 529 585 l 529 399 l 317 399 l 317 199 l 558 199 l 558 0 l 76 0 l 76 972 m 271 1264 q 269 1240 269 1256 q 282 1190 269 1208 q 317 1171 294 1171 q 351 1190 339 1171 q 363 1240 363 1208 q 361 1264 363 1256 l 483 1264 q 488 1217 488 1239 q 442 1094 488 1139 q 317 1049 396 1049 q 190 1094 236 1049 q 144 1217 144 1139 q 149 1264 144 1239 l 271 1264 z "},"Ә":{"ha":783,"x_min":43,"x_max":735,"o":"m 385 -12 q 203 44 281 -12 q 84 201 125 100 q 43 435 43 303 q 56 582 43 506 l 488 582 q 433 726 478 676 q 307 775 388 775 q 114 713 218 775 l 114 921 q 351 983 239 983 q 553 922 467 983 q 688 749 640 861 q 735 486 735 636 q 692 222 735 335 q 571 49 650 110 q 385 -12 492 -12 m 281 403 q 307 248 281 299 q 386 197 333 197 q 493 403 493 197 l 281 403 z "},"Ӝ":{"ha":1208,"x_min":38,"x_max":1185,"o":"m 240 499 l 44 972 l 297 972 l 444 606 l 494 606 l 494 972 l 729 972 l 729 606 l 778 606 l 925 972 l 1178 972 l 983 499 l 1185 0 l 931 0 l 779 379 l 729 379 l 729 0 l 494 0 l 494 379 l 443 379 l 292 0 l 38 0 l 240 499 m 394 1156 q 422 1231 394 1203 q 493 1258 449 1258 q 564 1231 538 1258 q 590 1156 590 1203 q 564 1081 590 1108 q 493 1053 538 1053 q 422 1081 449 1053 q 394 1156 394 1108 m 632 1156 q 659 1231 632 1203 q 731 1258 686 1258 q 802 1231 775 1258 q 829 1156 829 1203 q 802 1081 829 1108 q 731 1053 775 1053 q 659 1081 686 1053 q 632 1156 632 1108 z "},"Ӟ":{"ha":658,"x_min":53,"x_max":606,"o":"m 307 -11 q 53 47 182 -11 l 53 256 q 242 201 149 201 q 361 299 361 201 q 244 396 361 396 l 139 396 l 139 585 l 235 585 q 349 678 349 585 q 232 771 349 771 q 57 722 146 771 l 57 929 q 301 983 181 983 q 513 915 438 983 q 588 724 588 847 q 558 591 588 647 q 474 503 529 535 q 571 408 536 472 q 606 257 606 344 q 528 58 606 128 q 307 -11 451 -11 m 103 1156 q 130 1231 103 1203 q 201 1258 157 1258 q 272 1231 246 1258 q 299 1156 299 1203 q 272 1081 299 1108 q 201 1053 246 1053 q 130 1081 157 1053 q 103 1156 103 1108 m 340 1156 q 367 1231 340 1203 q 439 1258 394 1258 q 510 1231 483 1258 q 536 1156 536 1203 q 510 1081 536 1108 q 439 1053 483 1053 q 367 1081 394 1053 q 340 1156 340 1108 z "},"Ӣ":{"ha":804,"x_min":76,"x_max":728,"o":"m 76 972 l 315 972 l 315 521 l 574 972 l 728 972 l 728 0 l 489 0 l 489 457 l 231 0 l 76 0 l 76 972 m 242 1210 l 568 1210 l 568 1075 l 242 1075 l 242 1210 z "},"Ӥ":{"ha":804,"x_min":76,"x_max":728,"o":"m 76 972 l 315 972 l 315 521 l 574 972 l 728 972 l 728 0 l 489 0 l 489 457 l 231 0 l 76 0 l 76 972 m 188 1156 q 215 1231 188 1203 q 286 1258 242 1258 q 358 1231 331 1258 q 385 1156 385 1203 q 358 1081 385 1108 q 286 1053 331 1053 q 215 1081 242 1053 q 188 1156 188 1108 m 426 1156 q 453 1231 426 1203 q 524 1258 479 1258 q 595 1231 568 1258 q 622 1156 622 1203 q 595 1081 622 1108 q 524 1053 568 1053 q 453 1081 479 1053 q 426 1156 426 1108 z "},"Ӭ":{"ha":675,"x_min":54,"x_max":626,"o":"m 265 -12 q 54 46 154 -12 l 54 256 q 211 204 132 204 q 332 254 289 204 q 382 397 375 304 l 164 397 l 164 583 l 381 583 q 328 720 372 672 q 213 768 285 768 q 58 719 136 768 l 58 929 q 267 985 158 985 q 460 925 379 985 q 583 753 540 865 q 626 486 626 640 q 532 119 626 250 q 265 -12 438 -12 m 65 1156 q 92 1231 65 1203 q 163 1258 118 1258 q 234 1231 207 1258 q 261 1156 261 1203 q 234 1081 261 1108 q 163 1053 207 1053 q 92 1081 118 1053 q 65 1156 65 1108 m 303 1156 q 330 1231 303 1203 q 401 1258 357 1258 q 472 1231 446 1258 q 499 1156 499 1203 q 472 1081 499 1108 q 401 1053 446 1053 q 330 1081 357 1053 q 303 1156 303 1108 z "},"Ӯ":{"ha":768,"x_min":13,"x_max":747,"o":"m 268 265 l 13 972 l 267 972 l 388 560 l 493 972 l 747 972 l 425 0 l 168 0 l 268 265 m 217 1210 l 543 1210 l 543 1075 l 217 1075 l 217 1210 z "},"Ӱ":{"ha":768,"x_min":13,"x_max":747,"o":"m 268 265 l 13 972 l 267 972 l 388 560 l 493 972 l 747 972 l 425 0 l 168 0 l 268 265 m 163 1156 q 190 1231 163 1203 q 261 1258 217 1258 q 332 1231 306 1258 q 358 1156 358 1203 q 332 1081 358 1108 q 261 1053 306 1053 q 190 1081 217 1053 q 163 1156 163 1108 m 400 1156 q 427 1231 400 1203 q 499 1258 454 1258 q 569 1231 543 1258 q 596 1156 596 1203 q 569 1081 596 1108 q 499 1053 543 1053 q 427 1081 454 1053 q 400 1156 400 1108 z "},"Ӳ":{"ha":768,"x_min":13,"x_max":747,"o":"m 268 265 l 13 972 l 267 972 l 388 560 l 493 972 l 747 972 l 425 0 l 168 0 l 268 265 m 253 1264 l 426 1264 l 349 1053 l 206 1053 l 253 1264 m 474 1264 l 646 1264 l 549 1053 l 407 1053 l 474 1264 z "},"Ӵ":{"ha":769,"x_min":49,"x_max":693,"o":"m 313 290 q 119 367 190 290 q 49 575 49 444 l 49 972 l 290 972 l 290 603 q 371 510 290 510 q 453 529 407 510 l 453 972 l 693 972 l 693 0 l 453 0 l 453 317 q 313 290 383 290 m 154 1156 q 181 1231 154 1203 q 253 1258 208 1258 q 324 1231 297 1258 q 350 1156 350 1203 q 324 1081 350 1108 q 253 1053 297 1053 q 181 1081 208 1053 q 154 1156 154 1108 m 392 1156 q 419 1231 392 1203 q 490 1258 446 1258 q 561 1231 535 1258 q 588 1156 588 1203 q 561 1081 588 1108 q 490 1053 535 1053 q 419 1081 446 1053 q 392 1156 392 1108 z "},"Ӹ":{"ha":1119,"x_min":76,"x_max":1140,"o":"m 76 972 l 317 972 l 317 671 l 356 671 q 604 584 518 671 q 690 336 690 497 q 604 87 690 174 q 356 0 518 0 l 76 0 l 76 972 m 332 196 q 430 230 399 196 q 461 338 461 264 q 430 446 461 411 q 332 481 399 481 l 306 481 l 306 196 l 332 196 m 706 1156 q 733 1231 706 1203 q 804 1258 760 1258 q 876 1231 849 1258 q 903 1156 903 1203 q 876 1081 903 1108 q 804 1053 849 1053 q 733 1081 760 1053 q 706 1156 706 1108 m 803 972 l 1043 972 l 1043 0 l 803 0 l 803 972 m 944 1156 q 971 1231 944 1203 q 1042 1258 997 1258 q 1113 1231 1086 1258 q 1140 1156 1140 1203 q 1113 1081 1140 1108 q 1042 1053 1086 1053 q 971 1081 997 1053 q 944 1156 944 1108 z "},"Ԝ":{"ha":1185,"x_min":31,"x_max":1156,"o":"m 31 972 l 278 972 l 396 429 l 492 801 l 694 801 l 790 429 l 908 972 l 1156 972 l 928 0 l 721 0 l 593 456 l 465 0 l 258 0 l 31 972 z "},"а":{"ha":696,"x_min":40,"x_max":626,"o":"m 285 -11 q 106 88 171 -11 q 40 358 40 186 q 106 629 40 531 q 285 728 171 728 q 457 639 392 728 l 518 717 l 626 717 l 626 0 l 517 0 l 457 78 q 285 -11 392 -11 m 257 358 q 276 220 257 263 q 335 178 294 178 q 393 220 375 178 q 411 358 411 263 q 393 497 411 454 q 335 540 375 540 q 276 497 294 540 q 257 358 257 454 z "},"б":{"ha":678,"x_min":50,"x_max":638,"o":"m 349 -12 q 128 108 207 -12 q 50 444 50 229 q 78 754 50 646 q 178 924 106 863 q 397 1031 251 986 q 513 1071 468 1053 q 592 1110 558 1089 l 592 908 q 435 844 547 879 q 317 794 358 819 q 255 728 275 768 q 229 624 235 689 q 305 686 261 664 q 400 708 349 708 q 574 614 510 708 q 638 354 638 519 q 602 160 638 243 q 501 32 567 76 q 349 -12 436 -12 m 267 354 q 286 221 267 264 q 344 178 306 178 q 421 354 421 178 q 344 531 421 531 q 267 354 267 531 z "},"в":{"ha":653,"x_min":69,"x_max":608,"o":"m 69 717 l 417 717 q 542 668 496 717 q 589 535 589 619 q 569 438 589 479 q 510 372 549 396 q 583 303 557 350 q 608 193 608 257 q 558 51 608 101 q 417 0 507 0 l 69 0 l 69 717 m 315 142 q 378 160 358 142 q 399 218 399 178 q 378 276 399 257 q 315 294 358 294 l 279 294 l 279 142 l 315 142 m 308 436 q 372 453 353 436 q 392 507 392 469 q 372 559 392 543 q 308 575 351 575 l 279 575 l 279 436 l 308 436 z "},"г":{"ha":488,"x_min":69,"x_max":460,"o":"m 69 717 l 460 717 l 460 524 l 292 524 l 292 0 l 69 0 l 69 717 z "},"ѓ":{"ha":488,"x_min":69,"x_max":460,"o":"m 69 717 l 460 717 l 460 524 l 292 524 l 292 0 l 69 0 l 69 717 m 251 1015 l 426 1015 l 328 811 l 189 811 l 251 1015 z "},"ґ":{"ha":501,"x_min":69,"x_max":474,"o":"m 69 717 l 263 717 l 263 897 l 474 897 l 474 524 l 292 524 l 292 0 l 69 0 l 69 717 z "},"д":{"ha":804,"x_min":35,"x_max":767,"o":"m 35 193 l 54 193 q 113 222 94 193 q 135 321 132 251 l 149 717 l 679 717 l 679 193 l 767 193 l 767 -182 l 564 -182 l 564 0 l 239 0 l 239 -182 l 35 -182 l 35 193 m 465 185 l 465 539 l 353 539 l 346 328 q 317 185 344 232 l 465 185 z "},"е":{"ha":629,"x_min":40,"x_max":603,"o":"m 354 -12 q 124 86 208 -12 q 40 356 40 185 q 75 551 40 467 q 173 683 110 636 q 319 729 236 729 q 468 685 404 729 q 567 562 532 640 q 603 385 603 483 q 593 276 603 329 l 246 276 q 288 186 253 217 q 385 156 324 156 q 551 199 461 156 l 551 32 q 354 -12 453 -12 m 404 425 q 379 526 400 490 q 324 561 358 561 q 244 425 253 561 l 404 425 z "},"ѐ":{"ha":654,"x_min":40,"x_max":603,"o":"m 354 -12 q 124 86 208 -12 q 40 356 40 185 q 75 551 40 467 q 173 683 110 636 q 319 729 236 729 q 468 685 404 729 q 567 562 532 640 q 603 385 603 483 q 593 276 603 329 l 246 276 q 288 186 253 217 q 385 156 324 156 q 551 199 461 156 l 551 32 q 354 -12 453 -12 m 342 1015 l 404 811 l 265 811 l 167 1015 l 342 1015 m 404 425 q 379 526 400 490 q 324 561 358 561 q 244 425 253 561 l 404 425 z "},"ё":{"ha":654,"x_min":40,"x_max":603,"o":"m 354 -12 q 124 86 208 -12 q 40 356 40 185 q 75 551 40 467 q 173 683 110 636 q 319 729 236 729 q 468 685 404 729 q 567 562 532 640 q 603 385 603 483 q 593 276 603 329 l 246 276 q 288 186 253 217 q 385 156 324 156 q 551 199 461 156 l 551 32 q 354 -12 453 -12 m 115 910 q 142 983 115 956 q 213 1011 168 1011 q 283 983 256 1011 q 310 910 310 956 q 283 835 310 864 q 213 807 256 807 q 142 835 168 807 q 115 910 115 863 m 404 425 q 379 526 400 490 q 324 561 358 561 q 244 425 253 561 l 404 425 m 340 910 q 367 983 340 956 q 436 1011 393 1011 q 507 983 481 1011 q 533 910 533 956 q 507 835 533 863 q 436 807 481 807 q 367 835 393 807 q 340 910 340 863 z "},"ж":{"ha":1060,"x_min":32,"x_max":1028,"o":"m 193 369 l 42 717 l 276 717 l 376 463 l 422 463 l 422 717 l 638 717 l 638 463 l 683 463 l 783 717 l 1018 717 l 867 369 l 1028 0 l 790 0 l 681 276 l 638 276 l 638 0 l 422 0 l 422 276 l 379 276 l 269 0 l 32 0 l 193 369 z "},"з":{"ha":533,"x_min":47,"x_max":489,"o":"m 240 -12 q 47 35 135 -12 l 47 210 q 199 169 124 169 q 261 183 242 169 q 281 226 281 196 q 261 270 281 257 q 199 283 242 283 l 119 283 l 119 439 l 197 439 q 272 493 272 439 q 253 533 272 521 q 194 546 235 546 q 51 508 135 546 l 51 683 q 249 729 165 729 q 410 675 351 729 q 468 526 468 621 q 450 434 468 475 q 400 369 432 393 q 465 301 442 346 q 489 199 489 257 q 424 43 489 99 q 240 -12 358 -12 z "},"и":{"ha":704,"x_min":69,"x_max":635,"o":"m 69 717 l 283 717 l 283 404 l 488 717 l 635 717 l 635 0 l 419 0 l 419 311 l 218 0 l 69 0 l 69 717 z "},"й":{"ha":704,"x_min":69,"x_max":635,"o":"m 69 717 l 283 717 l 283 404 l 488 717 l 635 717 l 635 0 l 419 0 l 419 311 l 218 0 l 69 0 l 69 717 m 313 1015 q 311 993 311 1007 q 356 926 311 926 q 392 949 381 926 q 400 1015 404 971 l 521 1015 q 525 971 525 993 q 481 849 525 893 q 356 806 436 806 q 231 849 276 806 q 186 969 186 892 q 190 1015 186 990 l 313 1015 z "},"ѝ":{"ha":704,"x_min":69,"x_max":635,"o":"m 69 717 l 283 717 l 283 404 l 488 717 l 635 717 l 635 0 l 419 0 l 419 311 l 218 0 l 69 0 l 69 717 m 374 1015 l 436 811 l 297 811 l 199 1015 l 374 1015 z "},"к":{"ha":715,"x_min":69,"x_max":683,"o":"m 335 276 l 292 276 l 292 0 l 69 0 l 69 717 l 292 717 l 292 463 l 338 463 l 439 717 l 674 717 l 519 369 l 683 0 l 446 0 l 335 276 z "},"ќ":{"ha":715,"x_min":69,"x_max":683,"o":"m 335 276 l 292 276 l 292 0 l 69 0 l 69 717 l 292 717 l 292 463 l 338 463 l 439 717 l 674 717 l 519 369 l 683 0 l 446 0 l 335 276 m 340 1015 l 515 1015 l 417 811 l 278 811 l 340 1015 z "},"л":{"ha":758,"x_min":35,"x_max":689,"o":"m 35 186 q 57 185 43 185 q 108 206 93 185 q 126 272 124 226 l 143 717 l 689 717 l 689 0 l 467 0 l 467 525 l 356 525 l 343 235 q 278 58 339 118 q 104 -3 217 -3 q 35 3 68 -3 l 35 186 z "},"м":{"ha":842,"x_min":40,"x_max":801,"o":"m 113 717 l 289 717 l 421 389 l 553 717 l 729 717 l 801 0 l 579 0 l 560 329 l 482 139 l 360 139 l 283 326 l 263 0 l 40 0 l 113 717 z "},"н":{"ha":717,"x_min":69,"x_max":647,"o":"m 426 269 l 292 269 l 292 0 l 69 0 l 69 717 l 292 717 l 292 468 l 426 468 l 426 717 l 647 717 l 647 0 l 426 0 l 426 269 z "},"о":{"ha":667,"x_min":40,"x_max":626,"o":"m 333 -12 q 118 86 196 -12 q 40 358 40 185 q 118 631 40 532 q 333 729 196 729 q 549 631 471 729 q 626 358 626 532 q 549 86 626 185 q 333 -12 471 -12 m 256 358 q 274 221 256 264 q 333 178 293 178 q 392 221 374 178 q 411 358 411 264 q 392 497 411 453 q 333 540 374 540 q 274 497 293 540 q 256 358 256 453 z "},"п":{"ha":717,"x_min":69,"x_max":647,"o":"m 69 717 l 647 717 l 647 0 l 426 0 l 426 525 l 292 525 l 292 0 l 69 0 l 69 717 z "},"р":{"ha":696,"x_min":69,"x_max":656,"o":"m 411 728 q 590 629 525 728 q 656 358 656 531 q 592 88 656 188 q 417 -11 528 -11 q 292 33 344 -11 l 292 -256 l 69 -256 l 69 717 l 179 717 l 239 639 q 411 728 304 728 m 285 358 q 303 219 285 263 q 361 176 321 176 q 420 219 401 176 q 439 358 439 263 q 420 497 439 454 q 361 539 401 539 q 303 497 321 539 q 285 358 285 454 z "},"с":{"ha":519,"x_min":40,"x_max":474,"o":"m 319 -12 q 115 86 189 -12 q 40 358 40 185 q 114 631 40 532 q 317 729 188 729 q 469 688 399 729 l 469 514 q 381 540 426 540 q 288 496 318 540 q 257 358 257 451 q 288 221 257 265 q 381 176 318 176 q 474 206 428 176 l 474 31 q 319 -12 401 -12 z "},"т":{"ha":571,"x_min":29,"x_max":542,"o":"m 175 524 l 29 524 l 29 717 l 542 717 l 542 524 l 396 524 l 396 0 l 175 0 l 175 524 z "},"у":{"ha":667,"x_min":18,"x_max":649,"o":"m 226 24 l 18 717 l 246 717 l 336 342 l 421 717 l 649 717 l 365 -256 l 129 -256 l 226 24 z "},"ў":{"ha":667,"x_min":18,"x_max":649,"o":"m 226 24 l 18 717 l 246 717 l 336 342 l 421 717 l 649 717 l 365 -256 l 129 -256 l 226 24 m 289 1015 q 288 993 288 1007 q 332 926 288 926 q 369 949 357 926 q 376 1015 381 971 l 497 1015 q 501 971 501 993 q 457 849 501 893 q 332 806 413 806 q 208 849 253 806 q 163 969 163 892 q 167 1015 163 990 l 289 1015 z "},"ф":{"ha":882,"x_min":40,"x_max":843,"o":"m 333 -8 q 117 99 194 3 q 40 358 40 194 q 118 620 40 525 q 333 726 196 715 l 333 972 l 550 972 l 550 725 q 765 619 688 715 q 843 358 843 524 q 766 99 843 194 q 550 -8 689 3 l 550 -256 l 333 -256 l 333 -8 m 253 358 q 276 226 253 274 q 346 168 300 178 l 346 550 q 253 358 253 531 m 538 168 q 606 226 582 178 q 629 358 629 274 q 606 492 629 443 q 538 550 582 540 l 538 168 z "},"х":{"ha":693,"x_min":33,"x_max":660,"o":"m 201 365 l 42 717 l 263 717 l 347 525 l 431 717 l 651 717 l 490 365 l 660 0 l 432 0 l 346 203 l 260 0 l 33 0 l 201 365 z "},"ч":{"ha":679,"x_min":44,"x_max":610,"o":"m 281 189 q 109 253 174 189 q 44 425 44 318 l 44 717 l 267 717 l 267 453 q 332 376 267 376 q 388 388 354 376 l 388 717 l 610 717 l 610 0 l 388 0 l 388 204 q 281 189 331 189 z "},"ц":{"ha":769,"x_min":69,"x_max":732,"o":"m 529 0 l 69 0 l 69 717 l 292 717 l 292 193 l 422 193 l 422 717 l 644 717 l 644 193 l 732 193 l 732 -182 l 529 -182 l 529 0 z "},"ш":{"ha":1050,"x_min":69,"x_max":981,"o":"m 69 717 l 292 717 l 292 193 l 422 193 l 422 717 l 628 717 l 628 193 l 760 193 l 760 717 l 981 717 l 981 0 l 69 0 l 69 717 z "},"щ":{"ha":1107,"x_min":69,"x_max":1069,"o":"m 867 0 l 69 0 l 69 717 l 292 717 l 292 193 l 422 193 l 422 717 l 628 717 l 628 193 l 760 193 l 760 717 l 981 717 l 981 193 l 1069 193 l 1069 -182 l 867 -182 l 867 0 z "},"џ":{"ha":713,"x_min":69,"x_max":644,"o":"m 256 0 l 69 0 l 69 717 l 292 717 l 292 193 l 422 193 l 422 717 l 644 717 l 644 0 l 457 0 l 457 -182 l 256 -182 l 256 0 z "},"ь":{"ha":663,"x_min":69,"x_max":629,"o":"m 69 717 l 292 717 l 292 524 l 360 524 q 560 456 490 524 q 629 263 629 389 q 560 68 629 136 q 360 0 490 0 l 69 0 l 69 717 m 314 169 q 387 192 364 169 q 410 264 410 215 q 387 335 410 313 q 314 357 364 357 l 288 357 l 288 169 l 314 169 z "},"ы":{"ha":1022,"x_min":69,"x_max":954,"o":"m 69 717 l 292 717 l 292 524 l 360 524 q 560 456 490 524 q 629 263 629 389 q 560 68 629 136 q 360 0 490 0 l 69 0 l 69 717 m 314 169 q 387 192 364 169 q 410 264 410 215 q 387 335 410 313 q 314 357 364 357 l 288 357 l 288 169 l 314 169 m 732 717 l 954 717 l 954 0 l 732 0 l 732 717 z "},"ъ":{"ha":738,"x_min":35,"x_max":704,"o":"m 144 524 l 35 524 l 35 717 l 367 717 l 367 524 l 435 524 q 635 456 565 524 q 704 263 704 389 q 635 68 704 136 q 435 0 565 0 l 144 0 l 144 524 m 389 169 q 462 192 439 169 q 485 264 485 215 q 462 335 485 313 q 389 357 439 357 l 363 357 l 363 169 l 389 169 z "},"љ":{"ha":1051,"x_min":35,"x_max":1018,"o":"m 463 525 l 351 525 l 339 235 q 275 58 335 118 q 104 -3 215 -3 q 35 3 68 -3 l 35 185 q 54 183 42 183 q 108 204 92 183 q 126 272 124 225 l 143 717 l 681 717 l 681 524 l 749 524 q 949 456 879 524 q 1018 263 1018 389 q 949 68 1018 136 q 749 0 879 0 l 463 0 l 463 525 m 703 169 q 776 192 753 169 q 799 264 799 215 q 776 335 799 313 q 703 357 753 357 l 676 357 l 676 169 l 703 169 z "},"њ":{"ha":1019,"x_min":69,"x_max":986,"o":"m 69 717 l 292 717 l 292 468 l 426 468 l 426 717 l 647 717 l 647 524 l 717 524 q 917 456 847 524 q 986 263 986 389 q 917 68 986 136 q 717 0 847 0 l 426 0 l 426 269 l 292 269 l 292 0 l 69 0 l 69 717 m 671 169 q 744 192 721 169 q 767 264 767 215 q 744 335 767 313 q 671 357 721 357 l 644 357 l 644 169 l 671 169 z "},"ѕ":{"ha":547,"x_min":50,"x_max":499,"o":"m 267 -12 q 154 2 211 -12 q 50 42 97 17 l 50 231 q 225 163 153 163 q 271 176 256 163 q 286 215 286 190 q 267 259 286 243 q 206 294 247 275 q 128 337 160 315 q 75 400 97 358 q 53 508 53 442 q 114 671 53 613 q 285 729 175 729 q 482 683 390 729 l 482 499 q 326 556 390 556 q 281 542 297 556 q 265 503 265 528 q 285 459 265 475 q 346 424 304 443 q 423 381 392 403 q 476 317 454 360 q 499 208 499 275 q 438 47 499 106 q 267 -12 376 -12 z "},"є":{"ha":524,"x_min":40,"x_max":475,"o":"m 319 -12 q 114 85 188 -12 q 40 358 40 183 q 115 630 40 531 q 317 729 189 729 q 471 689 397 729 l 471 524 q 369 551 419 551 q 243 438 263 551 l 408 438 l 408 281 l 242 281 q 369 165 261 165 q 475 194 419 165 l 475 29 q 319 -12 400 -12 z "},"э":{"ha":524,"x_min":49,"x_max":483,"o":"m 114 438 l 281 438 q 153 551 263 551 q 53 525 104 551 l 53 688 q 206 729 124 729 q 409 630 335 729 q 483 358 483 531 q 409 85 483 183 q 203 -12 335 -12 q 49 32 124 -12 l 49 194 q 153 165 99 165 q 281 281 261 165 l 114 281 l 114 438 z "},"і":{"ha":421,"x_min":38,"x_max":358,"o":"m 129 525 l 38 525 l 38 717 l 351 717 l 351 0 l 129 0 l 129 525 m 110 921 q 144 1015 110 979 q 235 1050 179 1050 q 324 1015 290 1050 q 358 921 358 979 q 324 827 358 863 q 235 792 290 792 q 144 827 179 792 q 110 921 110 863 z "},"ї":{"ha":421,"x_min":32,"x_max":436,"o":"m 129 525 l 38 525 l 38 717 l 351 717 l 351 0 l 129 0 l 129 525 m 32 910 q 58 983 32 956 q 128 1011 85 1011 q 197 983 171 1011 q 222 910 222 956 q 197 835 222 863 q 128 807 171 807 q 58 835 85 807 q 32 910 32 863 m 247 910 q 273 983 247 956 q 342 1011 299 1011 q 410 983 385 1011 q 436 910 436 956 q 410 835 436 863 q 342 807 385 807 q 273 835 299 807 q 247 910 247 863 z "},"ј":{"ha":429,"x_min":11,"x_max":367,"o":"m 126 -283 q 11 -269 71 -283 l 11 -90 q 65 -97 42 -97 q 122 -79 106 -97 q 139 -15 139 -61 l 139 525 l 46 525 l 46 717 l 361 717 l 361 -24 q 305 -222 361 -160 q 126 -283 249 -283 m 119 921 q 153 1015 119 979 q 243 1050 188 1050 q 333 1015 299 1050 q 367 921 367 979 q 333 827 367 863 q 243 792 299 792 q 153 827 188 792 q 119 921 119 863 z "},"ћ":{"ha":717,"x_min":-3,"x_max":657,"o":"m 76 774 l -3 774 l -3 900 l 76 900 l 76 972 l 299 972 l 299 899 l 421 899 l 421 776 l 299 776 l 299 681 q 428 719 354 719 q 594 651 531 719 q 657 471 657 583 l 657 0 l 435 0 l 435 442 q 417 508 435 485 q 367 531 399 531 q 299 442 299 531 l 299 0 l 76 0 l 76 774 z "},"ю":{"ha":935,"x_min":69,"x_max":896,"o":"m 611 -12 q 426 60 499 -12 q 333 264 353 133 l 290 264 l 290 0 l 69 0 l 69 717 l 290 717 l 290 463 l 335 463 q 428 659 356 589 q 611 729 500 729 q 819 631 743 729 q 896 358 896 532 q 819 87 896 186 q 611 -12 743 -12 m 529 358 q 548 221 529 264 q 607 178 567 178 q 666 221 647 178 q 685 358 685 264 q 666 497 685 453 q 607 540 647 540 q 548 497 567 540 q 529 358 529 453 z "},"я":{"ha":681,"x_min":47,"x_max":611,"o":"m 394 207 l 349 207 l 276 0 l 47 0 l 147 254 q 79 340 103 288 q 56 463 56 393 q 124 649 56 582 q 311 717 192 717 l 611 717 l 611 0 l 393 0 l 394 207 m 271 457 q 360 363 271 363 l 397 363 l 397 551 l 360 551 q 271 457 271 551 z "},"ђ":{"ha":717,"x_min":-3,"x_max":657,"o":"m 442 -283 q 329 -269 386 -283 l 329 -90 q 376 -99 357 -99 q 435 -24 435 -99 l 435 444 q 417 510 435 488 q 367 532 399 532 q 316 510 333 532 q 299 444 299 488 l 299 0 l 76 0 l 76 774 l -3 774 l -3 900 l 76 900 l 76 972 l 299 972 l 299 899 l 421 899 l 421 776 l 299 776 l 299 683 q 428 722 354 722 q 594 653 531 722 q 657 472 657 585 l 657 -44 q 602 -223 657 -162 q 442 -283 547 -283 z "},"ү":{"ha":664,"x_min":18,"x_max":647,"o":"m 221 71 l 18 717 l 247 717 l 333 350 l 418 717 l 647 717 l 443 71 l 443 -256 l 221 -256 l 221 71 z "},"ӂ":{"ha":1060,"x_min":32,"x_max":1028,"o":"m 193 369 l 42 717 l 276 717 l 376 463 l 422 463 l 422 717 l 638 717 l 638 463 l 683 463 l 783 717 l 1018 717 l 867 369 l 1028 0 l 790 0 l 681 276 l 638 276 l 638 0 l 422 0 l 422 276 l 379 276 l 269 0 l 32 0 l 193 369 m 486 1015 q 485 993 485 1007 q 529 926 485 926 q 566 949 554 926 q 574 1015 578 971 l 694 1015 q 699 971 699 993 q 654 849 699 893 q 529 806 610 806 q 405 849 450 806 q 360 969 360 892 q 364 1015 360 990 l 486 1015 z "},"ӑ":{"ha":696,"x_min":40,"x_max":651,"o":"m 285 -11 q 106 88 171 -11 q 40 358 40 186 q 106 629 40 531 q 285 728 171 728 q 457 639 392 728 l 518 717 l 626 717 l 626 0 l 517 0 l 457 78 q 285 -11 392 -11 m 257 358 q 276 220 257 263 q 335 178 294 178 q 393 220 375 178 q 411 358 411 263 q 393 497 411 454 q 335 540 375 540 q 276 497 294 540 q 257 358 257 454 z "},"ӓ":{"ha":696,"x_min":40,"x_max":626,"o":"m 285 -11 q 106 88 171 -11 q 40 358 40 186 q 106 629 40 531 q 285 728 171 728 q 457 639 392 728 l 518 717 l 626 717 l 626 0 l 517 0 l 457 78 q 285 -11 392 -11 m 135 910 q 161 983 135 956 q 231 1011 188 1011 q 301 983 275 1011 q 328 910 328 956 q 301 835 328 863 q 231 807 275 807 q 161 835 188 807 q 135 910 135 863 m 257 358 q 276 220 257 263 q 335 178 294 178 q 393 220 375 178 q 411 358 411 263 q 393 497 411 454 q 335 540 375 540 q 276 497 294 540 q 257 358 257 454 m 358 910 q 385 983 358 956 q 456 1011 411 1011 q 525 983 499 1011 q 551 910 551 956 q 525 835 551 863 q 456 807 499 807 q 385 835 411 807 q 358 910 358 863 z "},"ӕ":{"ha":1050,"x_min":40,"x_max":1024,"o":"m 285 -11 q 106 88 171 -11 q 40 358 40 186 q 106 629 40 531 q 285 728 171 728 q 450 647 389 728 l 472 717 l 579 717 l 601 644 q 768 728 669 728 q 903 685 844 728 q 992 565 961 642 q 1024 393 1024 489 q 1013 276 1024 331 l 661 276 q 705 187 669 218 q 801 156 740 156 q 969 201 878 156 l 969 31 q 797 -11 886 -11 q 601 74 674 -11 l 575 0 l 472 0 l 450 69 q 285 -11 386 -11 m 256 358 q 274 221 256 264 q 335 178 293 178 q 394 221 375 178 q 413 358 413 264 q 394 497 413 453 q 335 540 375 540 q 275 497 294 540 q 256 358 256 454 m 818 425 q 793 525 814 490 q 738 560 772 560 q 660 425 668 560 l 818 425 z "},"ӗ":{"ha":654,"x_min":40,"x_max":603,"o":"m 354 -12 q 124 86 208 -12 q 40 356 40 185 q 75 551 40 467 q 173 683 110 636 q 319 729 236 729 q 468 685 404 729 q 567 562 532 640 q 603 385 603 483 q 593 276 603 329 l 246 276 q 288 186 253 217 q 385 156 324 156 q 551 199 461 156 l 551 32 q 354 -12 453 -12 m 281 1015 q 279 993 279 1007 q 324 926 279 926 q 360 949 349 926 q 368 1015 372 971 l 489 1015 q 493 971 493 993 q 449 849 493 893 q 324 806 404 806 q 199 849 244 806 q 154 969 154 892 q 158 1015 154 990 l 281 1015 m 404 425 q 379 526 400 490 q 324 561 358 561 q 244 425 253 561 l 404 425 z "},"ә":{"ha":629,"x_min":26,"x_max":589,"o":"m 275 729 q 505 631 421 729 q 589 361 589 532 q 554 165 589 250 q 456 34 519 81 q 310 -12 393 -12 q 161 32 225 -12 q 62 155 97 76 q 26 332 26 233 q 36 440 26 388 l 383 440 q 341 531 376 500 q 244 561 306 561 q 78 518 168 561 l 78 685 q 275 729 176 729 m 225 292 q 250 191 229 226 q 306 156 271 156 q 385 292 376 156 l 225 292 z "},"ӝ":{"ha":1060,"x_min":32,"x_max":1028,"o":"m 193 369 l 42 717 l 276 717 l 376 463 l 422 463 l 422 717 l 638 717 l 638 463 l 683 463 l 783 717 l 1018 717 l 867 369 l 1028 0 l 790 0 l 681 276 l 638 276 l 638 0 l 422 0 l 422 276 l 379 276 l 269 0 l 32 0 l 193 369 m 321 910 q 347 983 321 956 q 418 1011 374 1011 q 488 983 461 1011 q 515 910 515 956 q 488 835 515 864 q 418 807 461 807 q 347 835 374 807 q 321 910 321 863 m 546 910 q 572 983 546 956 q 642 1011 599 1011 q 713 983 686 1011 q 739 910 739 956 q 713 835 739 863 q 642 807 686 807 q 572 835 599 807 q 546 910 546 863 z "},"ӟ":{"ha":538,"x_min":44,"x_max":489,"o":"m 240 -12 q 47 35 135 -12 l 47 210 q 199 169 124 169 q 261 183 242 169 q 281 226 281 196 q 261 270 281 257 q 199 283 242 283 l 119 283 l 119 439 l 197 439 q 272 493 272 439 q 253 533 272 521 q 194 546 235 546 q 51 508 135 546 l 51 683 q 249 729 165 729 q 410 675 351 729 q 468 526 468 621 q 450 434 468 475 q 400 369 432 393 q 465 301 442 346 q 489 199 489 257 q 424 43 489 99 q 240 -12 358 -12 m 44 910 q 71 983 44 956 q 140 1011 97 1011 q 211 983 185 1011 q 238 910 238 956 q 211 835 238 863 q 140 807 185 807 q 71 835 97 807 q 44 910 44 863 m 268 910 q 294 983 268 956 q 365 1011 321 1011 q 435 983 408 1011 q 461 910 461 956 q 435 835 461 863 q 365 807 408 807 q 294 835 321 807 q 268 910 268 863 z "},"ӣ":{"ha":704,"x_min":69,"x_max":635,"o":"m 69 717 l 283 717 l 283 404 l 488 717 l 635 717 l 635 0 l 419 0 l 419 311 l 218 0 l 69 0 l 69 717 m 199 960 l 513 960 l 513 832 l 199 832 l 199 960 z "},"ӥ":{"ha":704,"x_min":69,"x_max":635,"o":"m 69 717 l 283 717 l 283 404 l 488 717 l 635 717 l 635 0 l 419 0 l 419 311 l 218 0 l 69 0 l 69 717 m 147 910 q 174 983 147 956 q 243 1011 200 1011 q 314 983 288 1011 q 340 910 340 956 q 314 835 340 863 q 243 807 288 807 q 174 835 200 807 q 147 910 147 863 m 371 910 q 397 983 371 956 q 468 1011 424 1011 q 538 983 511 1011 q 564 910 564 956 q 538 835 564 863 q 468 807 511 807 q 397 835 424 807 q 371 910 371 863 z "},"ӭ":{"ha":522,"x_min":24,"x_max":483,"o":"m 114 438 l 281 438 q 153 551 263 551 q 53 525 104 551 l 53 688 q 206 729 124 729 q 409 630 335 729 q 483 358 483 531 q 409 85 483 183 q 203 -12 335 -12 q 49 32 124 -12 l 49 194 q 153 165 99 165 q 281 281 261 165 l 114 281 l 114 438 m 24 910 q 50 983 24 956 q 121 1011 76 1011 q 190 983 164 1011 q 217 910 217 956 q 190 835 217 863 q 121 807 164 807 q 50 835 76 807 q 24 910 24 863 m 249 910 q 275 983 249 956 q 344 1011 301 1011 q 415 983 389 1011 q 442 910 442 956 q 415 835 442 863 q 344 807 389 807 q 275 835 301 807 q 249 910 249 863 z "},"ӯ":{"ha":667,"x_min":18,"x_max":649,"o":"m 226 24 l 18 717 l 246 717 l 336 342 l 421 717 l 649 717 l 365 -256 l 129 -256 l 226 24 m 176 960 l 490 960 l 490 832 l 176 832 l 176 960 z "},"ӱ":{"ha":667,"x_min":18,"x_max":649,"o":"m 226 24 l 18 717 l 246 717 l 336 342 l 421 717 l 649 717 l 365 -256 l 129 -256 l 226 24 m 124 910 q 151 983 124 956 q 221 1011 178 1011 q 292 983 265 1011 q 318 910 318 956 q 292 835 318 863 q 221 807 265 807 q 151 835 178 807 q 124 910 124 864 m 349 910 q 375 983 349 956 q 444 1011 401 1011 q 515 983 489 1011 q 542 910 542 956 q 515 835 542 863 q 444 807 489 807 q 375 835 401 807 q 349 910 349 863 z "},"ӳ":{"ha":667,"x_min":18,"x_max":649,"o":"m 226 24 l 18 717 l 246 717 l 336 342 l 421 717 l 649 717 l 365 -256 l 129 -256 l 226 24 m 208 1015 l 374 1015 l 294 811 l 157 811 l 208 1015 m 422 1015 l 586 1015 l 486 811 l 351 811 l 422 1015 z "},"ӵ":{"ha":679,"x_min":44,"x_max":610,"o":"m 281 189 q 109 253 174 189 q 44 425 44 318 l 44 717 l 267 717 l 267 453 q 332 376 267 376 q 388 388 354 376 l 388 717 l 610 717 l 610 0 l 388 0 l 388 204 q 281 189 331 189 m 119 910 q 146 983 119 956 q 215 1011 172 1011 q 286 983 260 1011 q 313 910 313 956 q 286 835 313 863 q 215 807 260 807 q 146 835 172 807 q 119 910 119 863 m 343 910 q 369 983 343 956 q 439 1011 396 1011 q 510 983 483 1011 q 536 910 536 956 q 510 835 536 863 q 439 807 483 807 q 369 835 396 807 q 343 910 343 863 z "},"ӹ":{"ha":1022,"x_min":69,"x_max":1051,"o":"m 69 717 l 292 717 l 292 524 l 360 524 q 560 456 490 524 q 629 263 629 389 q 560 68 629 136 q 360 0 490 0 l 69 0 l 69 717 m 314 169 q 387 192 364 169 q 410 264 410 215 q 387 335 410 313 q 314 357 364 357 l 288 357 l 288 169 l 314 169 m 633 910 q 660 983 633 956 q 731 1011 686 1011 q 801 983 775 1011 q 828 910 828 956 q 801 835 828 863 q 731 807 775 807 q 660 835 686 807 q 633 910 633 863 m 732 717 l 953 717 l 953 0 l 732 0 l 732 717 m 858 910 q 885 983 858 956 q 954 1011 911 1011 q 1025 983 999 1011 q 1051 910 1051 956 q 1025 835 1051 863 q 954 807 999 807 q 885 835 911 807 q 858 910 858 863 z "},"ԝ":{"ha":947,"x_min":22,"x_max":925,"o":"m 22 717 l 243 717 l 319 358 l 397 606 l 550 606 l 628 363 l 703 717 l 925 717 l 744 0 l 578 0 l 474 317 l 369 0 l 203 0 l 22 717 z "},"Α":{"ha":810,"x_min":26,"x_max":783,"o":"m 304 972 l 506 972 l 783 0 l 543 0 l 510 146 l 300 146 l 267 0 l 26 0 l 304 972 m 481 332 l 404 661 l 328 332 l 481 332 z "},"Β":{"ha":746,"x_min":76,"x_max":696,"o":"m 76 972 l 419 972 q 610 907 543 972 q 676 722 676 842 q 643 588 676 643 q 546 504 610 533 q 657 414 618 476 q 696 263 696 351 q 624 69 696 139 q 426 0 553 0 l 76 0 l 76 972 m 356 168 q 468 289 468 168 q 356 408 468 408 l 303 408 l 303 168 l 356 168 m 350 576 q 457 690 457 576 q 350 804 457 804 l 303 804 l 303 576 l 350 576 z "},"Γ":{"ha":581,"x_min":76,"x_max":551,"o":"m 76 972 l 551 972 l 551 750 l 317 750 l 317 0 l 76 0 l 76 972 z "},"Δ":{"ha":821,"x_min":26,"x_max":794,"o":"m 307 972 l 514 972 l 794 0 l 26 0 l 307 972 m 507 192 l 411 596 l 314 192 l 507 192 z "},"Ε":{"ha":615,"x_min":76,"x_max":558,"o":"m 76 972 l 554 972 l 554 775 l 317 775 l 317 585 l 529 585 l 529 399 l 317 399 l 317 199 l 558 199 l 558 0 l 76 0 l 76 972 z "},"Ζ":{"ha":643,"x_min":54,"x_max":592,"o":"m 54 124 l 306 760 l 60 760 l 60 972 l 581 972 l 581 849 l 329 213 l 592 213 l 592 0 l 54 0 l 54 124 z "},"Η":{"ha":815,"x_min":76,"x_max":739,"o":"m 499 379 l 317 379 l 317 0 l 76 0 l 76 972 l 317 972 l 317 606 l 499 606 l 499 972 l 739 972 l 739 0 l 499 0 l 499 379 z "},"Θ":{"ha":832,"x_min":49,"x_max":783,"o":"m 417 -12 q 145 119 242 -12 q 49 486 49 250 q 145 853 49 722 q 417 985 242 985 q 687 853 590 985 q 783 486 783 722 q 687 119 783 250 q 417 -12 590 -12 m 269 486 q 307 269 269 344 q 417 194 344 194 q 524 270 486 194 q 563 486 563 346 q 524 702 563 626 q 417 778 486 778 q 307 703 344 778 q 269 486 269 628 m 318 560 l 514 560 l 514 414 l 318 414 l 318 560 z "},"Ι":{"ha":571,"x_min":54,"x_max":515,"o":"m 54 201 l 165 201 l 165 771 l 63 771 l 63 972 l 507 972 l 507 771 l 406 771 l 406 201 l 515 201 l 515 0 l 54 0 l 54 201 z "},"Κ":{"ha":819,"x_min":76,"x_max":782,"o":"m 76 972 l 317 972 l 317 581 l 510 972 l 774 972 l 539 518 l 782 0 l 517 0 l 369 331 l 317 250 l 317 0 l 76 0 l 76 972 z "},"Λ":{"ha":807,"x_min":26,"x_max":781,"o":"m 781 0 l 531 0 l 403 571 l 276 0 l 26 0 l 300 972 l 508 972 l 781 0 z "},"Μ":{"ha":1017,"x_min":42,"x_max":975,"o":"m 142 972 l 308 972 l 508 506 l 708 972 l 875 972 l 975 0 l 735 0 l 692 465 l 575 188 l 440 188 l 324 464 l 282 0 l 42 0 l 142 972 z "},"Ν":{"ha":804,"x_min":76,"x_max":728,"o":"m 76 972 l 243 972 l 493 514 l 493 972 l 728 972 l 728 0 l 563 0 l 311 461 l 311 0 l 76 0 l 76 972 z "},"Ξ":{"ha":607,"x_min":57,"x_max":549,"o":"m 65 972 l 542 972 l 542 757 l 65 757 l 65 972 m 57 217 l 549 217 l 549 0 l 57 0 l 57 217 m 107 588 l 499 588 l 499 394 l 107 394 l 107 588 z "},"Ο":{"ha":818,"x_min":49,"x_max":769,"o":"m 408 -12 q 143 119 238 -12 q 49 486 49 250 q 143 853 49 722 q 408 985 238 985 q 675 853 581 985 q 769 486 769 722 q 675 119 769 250 q 408 -12 581 -12 m 297 486 q 324 274 297 343 q 408 206 351 206 q 493 274 465 206 q 521 486 521 343 q 493 698 521 629 q 408 767 465 767 q 324 698 351 767 q 297 486 297 629 z "},"Π":{"ha":815,"x_min":76,"x_max":739,"o":"m 76 972 l 739 972 l 739 0 l 499 0 l 499 756 l 317 756 l 317 0 l 76 0 l 76 972 z "},"Ρ":{"ha":736,"x_min":76,"x_max":700,"o":"m 76 972 l 368 972 q 613 882 526 972 q 700 625 700 792 q 613 368 700 458 q 368 278 526 278 l 317 278 l 317 0 l 76 0 l 76 972 m 333 471 q 436 507 404 471 q 468 621 468 543 q 436 735 468 699 q 333 771 404 771 l 304 771 l 304 471 l 333 471 z "},"Σ":{"ha":625,"x_min":51,"x_max":571,"o":"m 51 126 l 251 492 l 60 850 l 60 972 l 563 972 l 563 764 l 344 764 l 460 539 l 460 446 l 340 208 l 571 208 l 571 0 l 51 0 l 51 126 z "},"Τ":{"ha":661,"x_min":32,"x_max":628,"o":"m 210 751 l 32 751 l 32 972 l 628 972 l 628 751 l 450 751 l 450 0 l 210 0 l 210 751 z "},"Υ":{"ha":757,"x_min":13,"x_max":744,"o":"m 258 363 l 13 972 l 267 972 l 379 607 l 492 972 l 744 972 l 499 365 l 499 0 l 258 0 l 258 363 z "},"Φ":{"ha":1018,"x_min":49,"x_max":969,"o":"m 393 -11 q 209 62 286 -1 q 90 233 132 125 q 49 486 49 342 q 90 739 49 631 q 209 910 132 847 q 393 983 286 974 l 393 1167 l 625 1167 l 625 983 q 809 910 732 974 q 928 739 886 847 q 969 486 969 631 q 928 233 969 342 q 809 62 886 125 q 625 -11 732 -1 l 625 -194 l 393 -194 l 393 -11 m 282 486 q 403 200 282 221 l 403 772 q 282 486 282 751 m 614 200 q 705 281 675 211 q 735 486 735 351 q 705 691 735 621 q 614 772 675 761 l 614 200 z "},"Χ":{"ha":828,"x_min":39,"x_max":789,"o":"m 263 499 l 51 972 l 297 972 l 417 689 l 532 972 l 776 972 l 572 499 l 789 0 l 542 0 l 417 308 l 288 0 l 39 0 l 263 499 z "},"Ψ":{"ha":999,"x_min":51,"x_max":946,"o":"m 379 246 q 135 337 218 251 q 51 579 51 422 l 51 972 l 276 972 l 276 582 q 392 453 276 454 l 392 972 l 607 972 l 607 453 q 722 582 722 454 l 722 972 l 946 972 l 946 579 q 863 337 946 422 q 619 246 779 251 l 619 0 l 379 0 l 379 246 z "},"Ω":{"ha":861,"x_min":58,"x_max":803,"o":"m 58 193 l 153 193 q 89 335 110 257 q 68 515 68 414 q 163 862 68 739 q 431 985 258 985 q 699 862 604 985 q 793 515 793 739 q 772 335 793 414 q 708 193 751 257 l 803 193 l 803 0 l 461 0 l 461 153 q 547 485 547 247 q 519 697 547 628 q 431 767 490 767 q 342 697 371 767 q 314 485 314 628 q 335 281 314 363 q 401 153 357 200 l 401 0 l 58 0 l 58 193 z "},"Ά":{"ha":810,"x_min":-10,"x_max":783,"o":"m 304 972 l 506 972 l 783 0 l 543 0 l 510 146 l 300 146 l 267 0 l 26 0 l 304 972 m 481 332 l 404 661 l 328 332 l 481 332 m 24 972 l 192 972 l 122 722 l -10 722 l 24 972 z "},"Έ":{"ha":615,"x_min":-151,"x_max":558,"o":"m 76 972 l 554 972 l 554 775 l 317 775 l 317 585 l 529 585 l 529 399 l 317 399 l 317 199 l 558 199 l 558 0 l 76 0 l 76 972 m -118 972 l 50 972 l -19 722 l -151 722 l -118 972 z "},"Ή":{"ha":815,"x_min":-160,"x_max":739,"o":"m 499 379 l 317 379 l 317 0 l 76 0 l 76 972 l 317 972 l 317 606 l 499 606 l 499 972 l 739 972 l 739 0 l 499 0 l 499 379 m -126 972 l 42 972 l -28 722 l -160 722 l -126 972 z "},"Ί":{"ha":571,"x_min":-167,"x_max":515,"o":"m 54 201 l 165 201 l 165 771 l 63 771 l 63 972 l 507 972 l 507 771 l 406 771 l 406 201 l 515 201 l 515 0 l 54 0 l 54 201 m -133 972 l 35 972 l -35 722 l -167 722 l -133 972 z "},"Ό":{"ha":818,"x_min":-101,"x_max":769,"o":"m 408 -12 q 143 119 238 -12 q 49 486 49 250 q 143 853 49 722 q 408 985 238 985 q 675 853 581 985 q 769 486 769 722 q 675 119 769 250 q 408 -12 581 -12 m 297 486 q 324 274 297 343 q 408 206 351 206 q 493 274 465 206 q 521 486 521 343 q 493 698 521 629 q 408 767 465 767 q 324 698 351 767 q 297 486 297 629 m -68 972 l 100 972 l 31 722 l -101 722 l -68 972 z "},"Ύ":{"ha":757,"x_min":-201,"x_max":744,"o":"m 258 363 l 13 972 l 267 972 l 379 607 l 492 972 l 744 972 l 499 365 l 499 0 l 258 0 l 258 363 m -168 972 l 0 972 l -69 722 l -201 722 l -168 972 z "},"Ώ":{"ha":861,"x_min":-79,"x_max":803,"o":"m 58 193 l 153 193 q 89 335 110 257 q 68 515 68 414 q 163 862 68 739 q 431 985 258 985 q 699 862 604 985 q 793 515 793 739 q 772 335 793 414 q 708 193 751 257 l 803 193 l 803 0 l 461 0 l 461 153 q 547 485 547 247 q 519 697 547 628 q 431 767 490 767 q 342 697 371 767 q 314 485 314 628 q 335 281 314 363 q 401 153 357 200 l 401 0 l 58 0 l 58 193 m -46 972 l 122 972 l 53 722 l -79 722 l -46 972 z "},"Ϊ":{"ha":571,"x_min":54,"x_max":515,"o":"m 54 201 l 165 201 l 165 771 l 63 771 l 63 972 l 507 972 l 507 771 l 406 771 l 406 201 l 515 201 l 515 0 l 54 0 l 54 201 m 68 1156 q 95 1231 68 1203 q 167 1258 122 1258 q 238 1231 211 1258 q 264 1156 264 1203 q 238 1081 264 1108 q 167 1053 211 1053 q 95 1081 122 1053 q 68 1156 68 1108 m 306 1156 q 333 1231 306 1203 q 404 1258 360 1258 q 475 1231 449 1258 q 501 1156 501 1203 q 475 1081 501 1108 q 404 1053 449 1053 q 333 1081 360 1053 q 306 1156 306 1108 z "},"Ϋ":{"ha":757,"x_min":13,"x_max":744,"o":"m 258 363 l 13 972 l 267 972 l 379 607 l 492 972 l 744 972 l 499 365 l 499 0 l 258 0 l 258 363 m 163 1156 q 189 1231 163 1203 q 260 1258 215 1258 q 331 1231 304 1258 q 358 1156 358 1203 q 331 1081 358 1108 q 260 1053 304 1053 q 189 1081 215 1053 q 163 1156 163 1108 m 400 1156 q 426 1231 400 1203 q 497 1258 453 1258 q 569 1231 542 1258 q 596 1156 596 1203 q 569 1081 596 1108 q 497 1053 542 1053 q 426 1081 453 1053 q 400 1156 400 1108 z "},"Ϗ":{"ha":846,"x_min":76,"x_max":806,"o":"m 76 972 l 317 972 l 317 581 l 508 972 l 775 972 l 540 519 l 654 276 q 698 211 675 231 q 757 192 721 192 q 806 197 769 192 l 806 0 q 742 -221 806 -142 q 569 -300 679 -300 q 460 -282 515 -300 l 460 -117 q 522 -125 496 -125 q 592 -94 571 -125 q 614 6 614 -64 q 523 36 560 7 q 460 126 486 65 l 369 332 l 317 250 l 317 0 l 76 0 l 76 972 z "},"α":{"ha":729,"x_min":40,"x_max":690,"o":"m 285 -11 q 106 88 171 -11 q 40 358 40 186 q 106 629 40 531 q 285 728 171 728 q 457 639 392 728 l 518 717 l 626 717 l 626 221 q 667 174 626 174 q 690 176 682 174 l 690 7 q 603 -6 643 -6 q 513 15 550 -6 q 457 78 475 36 q 285 -11 392 -11 m 257 358 q 276 220 257 263 q 335 178 294 178 q 393 220 375 178 q 411 358 411 263 q 393 497 411 454 q 335 540 375 540 q 276 497 294 540 q 257 358 257 454 z "},"β":{"ha":692,"x_min":69,"x_max":644,"o":"m 69 696 q 147 906 69 828 q 351 985 224 985 q 494 951 432 985 q 592 854 557 917 q 626 711 626 792 q 600 589 626 643 q 525 501 574 535 q 613 410 581 472 q 644 267 644 347 q 612 123 644 186 q 520 24 579 60 q 386 -11 461 -11 q 292 7 333 -11 l 292 -256 l 69 -256 l 69 696 m 275 271 q 296 190 275 218 q 356 163 317 163 q 415 192 396 163 q 433 285 433 222 q 350 406 433 406 l 324 406 l 324 576 l 351 576 q 421 693 421 576 q 403 781 421 753 q 349 808 386 808 q 275 704 275 808 l 275 271 z "},"γ":{"ha":664,"x_min":18,"x_max":647,"o":"m 221 71 l 18 717 l 247 717 l 333 350 l 418 717 l 647 717 l 443 71 l 443 -256 l 221 -256 l 221 71 z "},"δ":{"ha":663,"x_min":40,"x_max":622,"o":"m 331 -12 q 117 81 194 -12 q 40 338 40 174 q 92 556 40 468 q 239 672 144 644 l 64 856 l 64 972 l 579 972 l 579 799 l 363 799 l 463 697 q 587 526 551 607 q 622 338 622 446 q 544 81 622 174 q 331 -12 467 -12 m 256 343 q 274 208 256 250 q 332 167 292 167 q 389 208 371 167 q 407 343 407 250 q 389 479 407 438 q 332 521 371 521 q 274 479 292 521 q 256 343 256 438 z "},"ε":{"ha":538,"x_min":47,"x_max":489,"o":"m 297 -12 q 113 44 179 -12 q 47 199 47 100 q 71 301 47 257 q 136 369 94 346 q 86 434 104 393 q 68 526 68 475 q 129 676 68 622 q 300 729 190 729 q 485 692 396 729 l 485 511 q 347 550 415 550 q 264 493 264 550 q 343 436 264 436 l 417 436 l 417 286 l 343 286 q 256 225 256 286 q 342 164 256 164 q 489 206 414 164 l 489 29 q 297 -12 392 -12 z "},"ζ":{"ha":549,"x_min":42,"x_max":536,"o":"m 313 -256 q 340 -101 340 -168 q 326 -39 340 -62 q 289 -3 311 -15 q 228 24 267 10 q 135 72 171 47 q 73 152 99 96 q 47 306 47 208 q 94 538 47 424 q 240 781 140 653 l 42 781 l 42 972 l 533 972 l 533 851 q 328 550 390 671 q 267 333 267 429 q 283 252 267 283 q 324 203 300 221 q 392 165 349 186 q 468 119 440 140 q 516 58 496 99 q 536 -50 536 17 q 489 -256 536 -143 l 313 -256 z "},"η":{"ha":743,"x_min":39,"x_max":683,"o":"m 461 451 q 443 517 461 494 q 393 540 425 540 q 342 517 360 540 q 325 451 325 494 l 325 0 l 103 0 l 103 496 q 64 543 103 543 q 39 539 54 543 l 39 710 q 124 722 85 722 q 215 701 176 722 q 274 640 254 679 q 351 706 306 683 q 454 729 397 729 q 620 660 557 729 q 683 479 683 592 l 683 -256 l 461 -256 l 461 451 z "},"θ":{"ha":722,"x_min":51,"x_max":671,"o":"m 361 -12 q 133 119 214 -12 q 51 486 51 250 q 133 853 51 722 q 361 985 214 985 q 590 853 508 985 q 671 486 671 722 q 590 119 671 250 q 361 -12 508 -12 m 261 404 q 292 226 267 283 q 361 169 317 169 q 431 226 406 169 q 461 404 456 283 l 261 404 m 461 568 q 431 746 456 689 q 361 803 406 803 q 292 746 317 803 q 261 568 267 689 l 461 568 z "},"ι":{"ha":422,"x_min":63,"x_max":388,"o":"m 276 -7 q 117 49 171 -7 q 63 215 63 106 l 63 717 l 285 717 l 285 239 q 297 192 285 206 q 338 179 308 179 q 388 189 367 179 l 388 8 q 276 -7 329 -7 z "},"κ":{"ha":714,"x_min":69,"x_max":682,"o":"m 69 717 l 292 717 l 292 440 l 428 717 l 674 717 l 490 369 l 682 0 l 433 0 l 329 226 l 292 161 l 292 0 l 69 0 l 69 717 z "},"λ":{"ha":699,"x_min":18,"x_max":671,"o":"m 671 3 q 578 -10 621 -10 q 399 136 432 -10 l 342 368 l 249 0 l 18 0 l 238 724 l 233 739 q 206 786 224 771 q 157 801 188 801 q 106 793 135 801 l 106 968 q 214 985 164 985 q 346 946 293 985 q 419 832 399 907 l 596 207 q 640 167 606 167 q 671 172 656 167 l 671 3 z "},"μ":{"ha":753,"x_min":69,"x_max":713,"o":"m 69 717 l 292 717 l 292 268 q 309 203 292 225 q 360 181 326 181 q 410 203 392 181 q 428 268 428 225 l 428 717 l 649 717 l 649 221 q 689 174 649 174 q 713 176 696 174 l 713 8 q 625 -4 667 -4 q 490 58 532 -4 q 438 10 467 25 q 374 -6 410 -6 q 292 22 324 -6 l 292 -256 l 69 -256 l 69 717 z "},"ν":{"ha":665,"x_min":18,"x_max":647,"o":"m 18 717 l 247 717 l 333 343 l 418 717 l 647 717 l 421 0 l 243 0 l 18 717 z "},"ξ":{"ha":572,"x_min":47,"x_max":549,"o":"m 322 -256 q 351 -104 351 -171 q 335 -41 351 -65 q 295 -2 319 -17 q 226 32 271 13 q 134 81 169 57 q 73 151 99 104 q 47 278 47 199 q 82 426 47 365 q 182 515 117 486 q 71 725 71 578 q 143 915 71 846 q 340 985 215 985 q 549 932 446 985 l 549 754 q 467 790 501 779 q 399 800 432 800 q 313 773 343 800 q 283 694 283 746 q 311 618 283 644 q 390 592 339 592 l 475 592 l 475 418 l 381 418 q 296 388 325 418 q 267 301 267 357 q 282 240 267 264 q 320 202 297 215 q 383 171 343 189 q 468 128 435 150 q 524 62 501 106 q 547 -56 547 18 q 499 -256 547 -149 l 322 -256 z "},"ο":{"ha":667,"x_min":40,"x_max":626,"o":"m 333 -12 q 118 86 196 -12 q 40 358 40 185 q 118 631 40 532 q 333 729 196 729 q 549 631 471 729 q 626 358 626 532 q 549 86 626 185 q 333 -12 471 -12 m 256 358 q 274 221 256 264 q 333 178 293 178 q 392 221 374 178 q 411 358 411 264 q 392 497 411 453 q 333 540 374 540 q 274 497 293 540 q 256 358 256 453 z "},"π":{"ha":825,"x_min":38,"x_max":774,"o":"m 653 -8 q 514 42 563 -8 q 465 188 465 93 l 465 529 l 342 529 l 342 0 l 119 0 l 119 528 l 38 528 l 38 717 l 774 717 l 774 532 l 688 532 l 688 218 q 731 174 688 174 q 767 179 750 174 l 767 10 q 653 -8 704 -8 z "},"ρ":{"ha":688,"x_min":60,"x_max":647,"o":"m 60 357 q 138 630 60 531 q 354 729 215 729 q 569 631 492 729 q 647 358 647 533 q 616 163 647 247 q 528 33 585 79 q 397 -12 472 -12 q 282 24 329 -12 l 282 -256 l 60 -256 l 60 357 m 276 358 q 295 220 276 263 q 354 178 314 178 q 413 220 394 178 q 431 358 431 263 q 413 497 431 454 q 354 540 394 540 q 295 497 314 540 q 276 358 276 454 z "},"ς":{"ha":515,"x_min":40,"x_max":479,"o":"m 256 -256 q 283 -104 283 -168 q 263 -32 283 -57 q 197 22 243 -7 q 117 85 149 53 q 63 183 86 117 q 40 358 40 250 q 114 631 40 532 q 317 729 188 729 q 469 688 399 729 l 469 513 q 379 540 426 540 q 257 358 257 540 q 272 260 257 297 q 308 202 288 222 q 367 156 329 182 q 426 111 404 132 q 464 51 449 90 q 479 -51 479 11 q 432 -256 479 -149 l 256 -256 z "},"σ":{"ha":714,"x_min":40,"x_max":672,"o":"m 333 -12 q 118 85 196 -12 q 40 353 40 182 q 119 619 40 522 q 336 717 197 717 l 672 717 l 672 532 l 571 532 q 628 335 628 457 q 592 151 628 231 q 489 30 556 72 q 333 -12 422 -12 m 256 353 q 274 219 256 260 q 333 178 293 178 q 392 219 374 178 q 411 353 411 260 q 392 486 411 444 q 333 528 374 528 q 274 486 293 528 q 256 353 256 444 z "},"τ":{"ha":589,"x_min":28,"x_max":542,"o":"m 392 -12 q 226 48 282 -12 q 171 226 171 108 l 171 528 l 28 528 l 28 717 l 542 717 l 542 532 l 393 532 l 393 244 q 458 176 393 176 q 517 189 486 176 l 517 4 q 392 -12 450 -12 z "},"υ":{"ha":697,"x_min":60,"x_max":638,"o":"m 350 -12 q 136 63 213 -12 q 60 278 60 138 l 60 717 l 282 717 l 282 268 q 349 178 282 178 q 415 268 415 178 l 415 717 l 638 717 l 638 278 q 562 63 638 139 q 350 -12 486 -12 z "},"φ":{"ha":882,"x_min":40,"x_max":843,"o":"m 333 -8 q 117 99 194 3 q 40 358 40 194 q 118 620 40 525 q 333 726 196 715 l 333 972 l 550 972 l 550 725 q 765 619 688 715 q 843 358 843 524 q 766 99 843 194 q 550 -8 689 3 l 550 -256 l 333 -256 l 333 -8 m 253 358 q 276 226 253 274 q 346 168 300 178 l 346 550 q 253 358 253 531 m 538 168 q 606 226 582 178 q 629 358 629 274 q 606 492 629 443 q 538 550 582 540 l 538 168 z "},"χ":{"ha":685,"x_min":28,"x_max":657,"o":"m 650 -250 q 558 -265 606 -265 q 450 -232 496 -265 q 382 -136 404 -199 l 339 -1 l 251 -256 l 28 -256 l 222 250 l 132 496 q 110 532 124 521 q 72 543 96 543 q 39 539 58 543 l 39 711 q 131 726 83 726 q 240 693 194 726 q 307 597 286 660 l 347 471 l 433 717 l 657 717 l 465 218 l 557 -35 q 578 -71 565 -60 q 614 -82 592 -82 q 650 -76 632 -82 l 650 -250 z "},"ψ":{"ha":965,"x_min":60,"x_max":906,"o":"m 372 -7 q 142 77 224 -1 q 60 299 60 156 l 60 717 l 279 717 l 279 306 q 302 217 279 244 q 379 188 325 190 l 379 972 l 586 972 l 586 188 q 663 217 640 190 q 686 306 686 244 l 686 717 l 906 717 l 906 299 q 824 77 906 156 q 593 -7 742 -1 l 593 -256 l 372 -256 l 372 -7 z "},"ω":{"ha":969,"x_min":47,"x_max":922,"o":"m 282 -12 q 107 76 167 -12 q 47 339 47 165 q 62 523 47 424 q 103 717 76 622 l 319 717 q 282 519 294 608 q 269 344 269 431 q 283 219 269 256 q 331 183 297 183 q 379 219 365 183 q 393 344 393 254 l 393 531 l 576 531 l 576 344 q 590 219 576 254 q 639 183 604 183 q 686 219 672 183 q 700 344 700 256 q 650 717 700 513 l 867 717 q 908 523 893 622 q 922 339 922 424 q 863 76 922 165 q 688 -12 803 -12 q 561 24 614 -12 q 485 124 508 60 q 408 24 461 60 q 282 -12 356 -12 z "},"ί":{"ha":422,"x_min":63,"x_max":388,"o":"m 276 -7 q 117 49 171 -7 q 63 215 63 106 l 63 717 l 285 717 l 285 239 q 297 192 285 206 q 338 179 308 179 q 388 189 367 179 l 388 8 q 276 -7 329 -7 m 156 1015 l 331 1015 l 232 811 l 93 811 l 156 1015 z "},"ϊ":{"ha":422,"x_min":-29,"x_max":388,"o":"m 276 -7 q 117 49 171 -7 q 63 215 63 106 l 63 717 l 285 717 l 285 239 q 297 192 285 206 q 338 179 308 179 q 388 189 367 179 l 388 8 q 276 -7 329 -7 m -29 910 q -3 983 -29 956 q 67 1011 24 1011 q 135 983 110 1011 q 161 910 161 956 q 135 835 161 863 q 67 807 110 807 q -3 835 24 807 q -29 910 -29 863 m 186 910 q 212 983 186 956 q 281 1011 238 1011 q 349 983 324 1011 q 375 910 375 956 q 349 835 375 863 q 281 807 324 807 q 212 835 238 807 q 186 910 186 863 z "},"ΐ":{"ha":422,"x_min":-82,"x_max":446,"o":"m 276 -7 q 117 49 171 -7 q 63 215 63 106 l 63 717 l 285 717 l 285 239 q 297 192 285 206 q 338 179 308 179 q 388 189 367 179 l 388 8 q 276 -7 329 -7 m -82 911 q -56 982 -82 954 q 10 1010 -31 1010 q 76 982 50 1010 q 101 911 101 954 q 76 839 101 867 q 10 811 50 811 q -56 839 -31 811 q -82 911 -82 867 m 131 1018 l 260 1018 l 224 811 l 118 811 l 131 1018 m 264 911 q 290 982 264 954 q 356 1010 315 1010 q 420 982 394 1010 q 446 911 446 954 q 421 839 446 867 q 356 811 396 811 q 290 839 315 811 q 264 911 264 867 z "},"ύ":{"ha":697,"x_min":60,"x_max":638,"o":"m 350 -12 q 136 63 213 -12 q 60 278 60 138 l 60 717 l 282 717 l 282 268 q 349 178 282 178 q 415 268 415 178 l 415 717 l 638 717 l 638 278 q 562 63 638 139 q 350 -12 486 -12 m 331 1015 l 506 1015 l 407 811 l 268 811 l 331 1015 z "},"ϋ":{"ha":697,"x_min":60,"x_max":638,"o":"m 350 -12 q 136 63 213 -12 q 60 278 60 138 l 60 717 l 282 717 l 282 268 q 349 178 282 178 q 415 268 415 178 l 415 717 l 638 717 l 638 278 q 562 63 638 139 q 350 -12 486 -12 m 140 910 q 167 983 140 956 q 238 1011 193 1011 q 307 983 281 1011 q 333 910 333 956 q 307 835 333 863 q 238 807 281 807 q 167 835 193 807 q 140 910 140 863 m 364 910 q 390 983 364 956 q 461 1011 417 1011 q 531 983 504 1011 q 557 910 557 956 q 531 835 557 863 q 461 807 504 807 q 390 835 417 807 q 364 910 364 863 z "},"ΰ":{"ha":697,"x_min":60,"x_max":638,"o":"m 350 -12 q 136 63 213 -12 q 60 278 60 138 l 60 717 l 282 717 l 282 268 q 349 178 282 178 q 415 268 415 178 l 415 717 l 638 717 l 638 278 q 562 63 638 139 q 350 -12 486 -12 m 94 911 q 119 982 94 954 q 185 1010 144 1010 q 251 982 225 1010 q 276 911 276 954 q 251 839 276 867 q 185 811 226 811 q 119 839 144 811 q 94 911 94 867 m 307 1018 l 435 1018 l 399 811 l 294 811 l 307 1018 m 440 911 q 465 982 440 954 q 531 1010 490 1010 q 597 982 571 1010 q 622 911 622 954 q 597 839 622 867 q 531 811 571 811 q 465 839 490 811 q 440 911 440 867 z "},"ό":{"ha":667,"x_min":40,"x_max":626,"o":"m 333 -12 q 118 86 196 -12 q 40 358 40 185 q 118 631 40 532 q 333 729 196 729 q 549 631 471 729 q 626 358 626 532 q 549 86 626 185 q 333 -12 471 -12 m 315 1015 l 490 1015 l 392 811 l 253 811 l 315 1015 m 256 358 q 274 221 256 264 q 333 178 293 178 q 392 221 374 178 q 411 358 411 264 q 392 497 411 453 q 333 540 374 540 q 274 497 293 540 q 256 358 256 453 z "},"ώ":{"ha":969,"x_min":47,"x_max":922,"o":"m 282 -12 q 107 76 167 -12 q 47 339 47 165 q 62 523 47 424 q 103 717 76 622 l 319 717 q 282 519 294 608 q 269 344 269 431 q 283 219 269 256 q 331 183 297 183 q 379 219 365 183 q 393 344 393 254 l 393 531 l 576 531 l 576 344 q 590 219 576 254 q 639 183 604 183 q 686 219 672 183 q 700 344 700 256 q 650 717 700 513 l 867 717 q 908 523 893 622 q 922 339 922 424 q 863 76 922 165 q 688 -12 803 -12 q 561 24 614 -12 q 485 124 508 60 q 408 24 461 60 q 282 -12 356 -12 m 467 1015 l 642 1015 l 543 811 l 404 811 l 467 1015 z "},"ά":{"ha":729,"x_min":40,"x_max":690,"o":"m 285 -11 q 106 88 171 -11 q 40 358 40 186 q 106 629 40 531 q 285 728 171 728 q 457 639 392 728 l 518 717 l 626 717 l 626 221 q 667 174 626 174 q 690 176 682 174 l 690 7 q 603 -6 643 -6 q 513 15 550 -6 q 457 78 475 36 q 285 -11 392 -11 m 257 358 q 276 220 257 263 q 335 178 294 178 q 393 220 375 178 q 411 358 411 263 q 393 497 411 454 q 335 540 375 540 q 276 497 294 540 q 257 358 257 454 m 325 1015 l 500 1015 l 401 811 l 263 811 l 325 1015 z "},"έ":{"ha":538,"x_min":47,"x_max":489,"o":"m 297 -12 q 113 44 179 -12 q 47 199 47 100 q 71 301 47 257 q 136 369 94 346 q 86 434 104 393 q 68 526 68 475 q 129 676 68 622 q 300 729 190 729 q 485 692 396 729 l 485 511 q 347 550 415 550 q 264 493 264 550 q 343 436 264 436 l 417 436 l 417 286 l 343 286 q 256 225 256 286 q 342 164 256 164 q 489 206 414 164 l 489 29 q 297 -12 392 -12 m 267 1015 l 442 1015 l 343 811 l 204 811 l 267 1015 z "},"ή":{"ha":743,"x_min":39,"x_max":683,"o":"m 461 451 q 443 517 461 494 q 393 540 425 540 q 342 517 360 540 q 325 451 325 494 l 325 0 l 103 0 l 103 496 q 64 543 103 543 q 39 539 54 543 l 39 710 q 124 722 85 722 q 215 701 176 722 q 274 640 254 679 q 351 706 306 683 q 454 729 397 729 q 620 660 557 729 q 683 479 683 592 l 683 -256 l 461 -256 l 461 451 m 356 1015 l 531 1015 l 432 811 l 293 811 l 356 1015 z "},"ϗ":{"ha":726,"x_min":69,"x_max":692,"o":"m 396 -119 q 442 -126 426 -126 q 500 -97 482 -126 q 521 -1 518 -67 q 383 97 421 7 l 331 224 l 292 169 l 292 0 l 69 0 l 69 717 l 292 717 l 292 446 l 425 717 l 672 717 l 497 382 l 558 243 q 599 183 575 201 q 660 164 624 164 q 692 167 681 164 l 692 0 q 640 -209 692 -139 q 485 -279 588 -279 q 396 -268 447 -279 l 396 -119 z "},"⓪":{"ha":1300,"x_min":69,"x_max":1231,"o":"m 650 -79 q 351 -6 483 -79 q 144 195 219 67 q 69 486 69 324 q 144 777 69 649 q 351 978 219 906 q 650 1051 483 1051 q 949 978 817 1051 q 1156 777 1081 906 q 1231 486 1231 649 q 1156 195 1231 324 q 949 -6 1081 67 q 650 -79 817 -79 m 182 486 q 242 248 182 353 q 408 84 301 143 q 650 25 515 25 q 892 84 786 25 q 1058 248 999 143 q 1118 486 1118 353 q 1058 724 1118 619 q 892 888 999 829 q 650 947 786 947 q 408 888 515 947 q 242 724 301 829 q 182 486 182 619 m 488 486 q 529 665 488 603 q 650 726 571 726 q 770 665 728 726 q 813 486 813 603 q 770 308 813 369 q 650 246 728 246 q 529 308 571 246 q 488 486 488 369 m 600 486 q 612 381 600 414 q 650 347 624 347 q 688 381 676 347 q 700 486 700 415 q 688 591 700 557 q 650 625 676 625 q 612 592 624 625 q 600 486 600 558 z "},"①":{"ha":1300,"x_min":69,"x_max":1231,"o":"m 650 -79 q 351 -6 483 -79 q 144 195 219 67 q 69 486 69 324 q 144 777 69 649 q 351 978 219 906 q 650 1051 483 1051 q 949 978 817 1051 q 1156 777 1081 906 q 1231 486 1231 649 q 1156 195 1231 324 q 949 -6 1081 67 q 650 -79 817 -79 m 182 486 q 242 248 182 353 q 408 84 301 143 q 650 25 515 25 q 892 84 786 25 q 1058 248 999 143 q 1118 486 1118 353 q 1058 724 1118 619 q 892 888 999 829 q 650 947 786 947 q 408 888 515 947 q 242 724 301 829 q 182 486 182 619 m 525 351 l 596 351 l 596 582 l 533 551 l 533 664 l 639 721 l 710 721 l 710 351 l 779 351 l 779 251 l 525 251 l 525 351 z "},"②":{"ha":1300,"x_min":69,"x_max":1231,"o":"m 650 -79 q 351 -6 483 -79 q 144 195 219 67 q 69 486 69 324 q 144 777 69 649 q 351 978 219 906 q 650 1051 483 1051 q 949 978 817 1051 q 1156 777 1081 906 q 1231 486 1231 649 q 1156 195 1231 324 q 949 -6 1081 67 q 650 -79 817 -79 m 182 486 q 242 248 182 353 q 408 84 301 143 q 650 25 515 25 q 892 84 786 25 q 1058 248 999 143 q 1118 486 1118 353 q 1058 724 1118 619 q 892 888 999 829 q 650 947 786 947 q 408 888 515 947 q 242 724 301 829 q 182 486 182 619 m 517 329 l 621 493 q 654 582 654 549 q 608 624 654 624 q 526 589 568 624 l 526 692 q 638 726 581 726 q 731 690 696 726 q 765 593 765 654 q 711 428 765 514 l 663 351 l 776 351 l 776 251 l 517 251 l 517 329 z "},"③":{"ha":1300,"x_min":69,"x_max":1231,"o":"m 650 -79 q 351 -6 483 -79 q 144 195 219 67 q 69 486 69 324 q 144 777 69 649 q 351 978 219 906 q 650 1051 483 1051 q 949 978 817 1051 q 1156 777 1081 906 q 1231 486 1231 649 q 1156 195 1231 324 q 949 -6 1081 67 q 650 -79 817 -79 m 182 486 q 242 248 182 353 q 408 84 301 143 q 650 25 515 25 q 892 84 786 25 q 1058 248 999 143 q 1118 486 1118 353 q 1058 724 1118 619 q 892 888 999 829 q 650 947 786 947 q 408 888 515 947 q 242 724 301 829 q 182 486 182 619 m 529 721 l 758 721 l 758 649 l 683 531 q 753 485 728 519 q 778 399 778 451 q 738 287 778 328 q 629 246 699 246 q 532 265 576 246 l 532 368 q 610 347 574 347 q 652 363 638 347 q 667 406 667 378 q 600 461 667 461 q 568 458 590 461 l 568 525 l 629 621 l 529 621 l 529 721 z "},"④":{"ha":1300,"x_min":69,"x_max":1231,"o":"m 650 -79 q 351 -6 483 -79 q 144 195 219 67 q 69 486 69 324 q 144 777 69 649 q 351 978 219 906 q 650 1051 483 1051 q 949 978 817 1051 q 1156 777 1081 906 q 1231 486 1231 649 q 1156 195 1231 324 q 949 -6 1081 67 q 650 -79 817 -79 m 182 486 q 242 248 182 353 q 408 84 301 143 q 650 25 515 25 q 892 84 786 25 q 1058 248 999 143 q 1118 486 1118 353 q 1058 724 1118 619 q 892 888 999 829 q 650 947 786 947 q 408 888 515 947 q 242 724 301 829 q 182 486 182 619 m 499 403 l 583 721 l 701 721 l 621 429 l 668 429 l 688 560 l 771 560 l 771 432 l 803 432 l 803 331 l 771 331 l 771 251 l 658 251 l 658 331 l 499 331 l 499 403 z "},"⑤":{"ha":1300,"x_min":69,"x_max":1231,"o":"m 650 -79 q 351 -6 483 -79 q 144 195 219 67 q 69 486 69 324 q 144 777 69 649 q 351 978 219 906 q 650 1051 483 1051 q 949 978 817 1051 q 1156 777 1081 906 q 1231 486 1231 649 q 1156 195 1231 324 q 949 -6 1081 67 q 650 -79 817 -79 m 182 486 q 242 248 182 353 q 408 84 301 143 q 650 25 515 25 q 892 84 786 25 q 1058 248 999 143 q 1118 486 1118 353 q 1058 724 1118 619 q 892 888 999 829 q 650 947 786 947 q 408 888 515 947 q 242 724 301 829 q 182 486 182 619 m 532 368 q 608 347 574 347 q 667 404 667 347 q 647 447 667 433 q 583 461 628 461 q 535 458 571 461 l 550 721 l 764 721 l 764 622 l 644 622 l 640 544 q 742 504 706 542 q 778 399 778 467 q 738 287 778 328 q 629 246 699 246 q 532 265 586 246 l 532 368 z "},"⑥":{"ha":1300,"x_min":69,"x_max":1231,"o":"m 650 -79 q 351 -6 483 -79 q 144 195 219 67 q 69 486 69 324 q 144 777 69 649 q 351 978 219 906 q 650 1051 483 1051 q 949 978 817 1051 q 1156 777 1081 906 q 1231 486 1231 649 q 1156 195 1231 324 q 949 -6 1081 67 q 650 -79 817 -79 m 182 486 q 242 248 182 353 q 408 84 301 143 q 650 25 515 25 q 892 84 786 25 q 1058 248 999 143 q 1118 486 1118 353 q 1058 724 1118 619 q 892 888 999 829 q 650 947 786 947 q 408 888 515 947 q 242 724 301 829 q 182 486 182 619 m 500 482 q 547 662 500 597 q 676 726 593 726 q 768 704 724 726 l 768 606 q 686 626 722 626 q 604 536 614 626 q 678 568 633 568 q 767 525 733 568 q 800 410 800 482 q 761 290 800 335 q 654 246 722 246 q 500 482 500 246 m 611 410 q 622 360 611 378 q 651 342 632 342 q 680 360 669 342 q 690 410 690 378 q 680 458 690 440 q 651 476 669 476 q 622 458 632 476 q 611 410 611 440 z "},"⑦":{"ha":1300,"x_min":69,"x_max":1231,"o":"m 650 -79 q 351 -6 483 -79 q 144 195 219 67 q 69 486 69 324 q 144 777 69 649 q 351 978 219 906 q 650 1051 483 1051 q 949 978 817 1051 q 1156 777 1081 906 q 1231 486 1231 649 q 1156 195 1231 324 q 949 -6 1081 67 q 650 -79 817 -79 m 182 486 q 242 248 182 353 q 408 84 301 143 q 650 25 515 25 q 892 84 786 25 q 1058 248 999 143 q 1118 486 1118 353 q 1058 724 1118 619 q 892 888 999 829 q 650 947 786 947 q 408 888 515 947 q 242 724 301 829 q 182 486 182 619 m 521 721 l 778 721 l 778 646 l 689 251 l 572 251 l 657 621 l 521 621 l 521 721 z "},"⑧":{"ha":1300,"x_min":69,"x_max":1231,"o":"m 650 -79 q 351 -6 483 -79 q 144 195 219 67 q 69 486 69 324 q 144 777 69 649 q 351 978 219 906 q 650 1051 483 1051 q 949 978 817 1051 q 1156 777 1081 906 q 1231 486 1231 649 q 1156 195 1231 324 q 949 -6 1081 67 q 650 -79 817 -79 m 182 486 q 242 248 182 353 q 408 84 301 143 q 650 25 515 25 q 892 84 786 25 q 1058 248 999 143 q 1118 486 1118 353 q 1058 724 1118 619 q 892 888 999 829 q 650 947 786 947 q 408 888 515 947 q 242 724 301 829 q 182 486 182 619 m 501 386 q 551 497 501 458 q 513 596 513 539 q 549 691 513 656 q 650 726 586 726 q 751 691 714 726 q 788 596 788 656 q 749 497 788 539 q 799 386 799 458 q 759 283 799 321 q 650 246 719 246 q 541 283 581 246 q 501 386 501 321 m 611 397 q 622 353 611 369 q 650 338 632 338 q 678 353 668 338 q 689 397 689 369 q 678 440 689 424 q 650 456 668 456 q 622 440 632 456 q 611 397 611 424 m 619 585 q 628 550 619 563 q 650 538 636 538 q 672 550 664 538 q 681 585 681 563 q 672 621 681 608 q 650 633 664 633 q 628 621 636 633 q 619 585 619 608 z "},"⑨":{"ha":1300,"x_min":69,"x_max":1231,"o":"m 650 -79 q 351 -6 483 -79 q 144 195 219 67 q 69 486 69 324 q 144 777 69 649 q 351 978 219 906 q 650 1051 483 1051 q 949 978 817 1051 q 1156 777 1081 906 q 1231 486 1231 649 q 1156 195 1231 324 q 949 -6 1081 67 q 650 -79 817 -79 m 182 486 q 242 248 182 353 q 408 84 301 143 q 650 25 515 25 q 892 84 786 25 q 1058 248 999 143 q 1118 486 1118 353 q 1058 724 1118 619 q 892 888 999 829 q 650 947 786 947 q 408 888 515 947 q 242 724 301 829 q 182 486 182 619 m 499 563 q 538 682 499 638 q 646 726 578 726 q 799 490 799 726 q 752 310 799 375 q 622 246 706 246 q 531 268 575 246 l 531 367 q 613 346 576 346 q 669 367 649 346 q 694 436 689 389 q 621 404 667 404 q 532 447 565 404 q 499 563 499 490 m 608 563 q 619 514 608 532 q 649 496 629 496 q 677 514 667 496 q 688 563 688 532 q 677 613 688 594 q 649 631 667 631 q 619 613 629 631 q 608 563 608 594 z "},"⑩":{"ha":1300,"x_min":69,"x_max":1231,"o":"m 363 351 l 433 351 l 433 582 l 371 551 l 371 664 l 476 721 l 547 721 l 547 351 l 617 351 l 617 251 l 363 251 l 363 351 m 69 486 q 144 777 69 649 q 351 978 219 906 q 650 1051 483 1051 q 949 978 817 1051 q 1156 777 1081 906 q 1231 486 1231 649 q 1156 195 1231 324 q 949 -6 1081 67 q 650 -79 817 -79 q 351 -6 483 -79 q 144 195 219 67 q 69 486 69 324 m 182 486 q 242 248 182 353 q 408 84 301 143 q 650 25 515 25 q 892 84 786 25 q 1058 248 999 143 q 1118 486 1118 353 q 1058 724 1118 619 q 892 888 999 829 q 650 947 786 947 q 408 888 515 947 q 242 724 301 829 q 182 486 182 619 m 654 486 q 696 665 654 603 q 815 726 738 726 q 935 665 893 726 q 978 486 978 603 q 935 308 978 369 q 815 246 893 246 q 696 308 738 246 q 654 486 654 369 m 765 486 q 777 381 765 414 q 815 347 789 347 q 867 486 867 347 q 815 625 867 625 q 777 592 789 625 q 765 486 765 558 z "},"⁄":{"ha":200,"x_min":-169,"x_max":369,"o":"m 247 972 l 369 972 l -46 0 l -169 0 l 247 972 z "},"½":{"ha":838,"x_min":31,"x_max":799,"o":"m 31 603 l 101 603 l 101 833 l 39 803 l 39 915 l 144 972 l 215 972 l 215 603 l 285 603 l 285 503 l 31 503 l 31 603 m 557 972 l 679 972 l 264 0 l 140 0 l 557 972 m 539 78 l 643 242 q 676 331 676 296 q 631 372 676 372 q 549 339 590 372 l 549 442 q 660 475 607 475 q 753 439 718 475 q 788 342 788 403 q 733 176 788 264 l 685 100 l 799 100 l 799 0 l 539 0 l 539 78 z "},"⅓":{"ha":829,"x_min":31,"x_max":796,"o":"m 31 603 l 101 603 l 101 833 l 39 803 l 39 915 l 144 972 l 215 972 l 215 603 l 285 603 l 285 503 l 31 503 l 31 603 m 557 972 l 679 972 l 264 0 l 140 0 l 557 972 m 647 -6 q 550 15 596 -6 l 550 117 q 628 96 596 96 q 685 154 685 96 q 668 195 685 182 q 617 208 651 208 q 586 207 597 208 l 586 274 l 647 369 l 547 369 l 547 469 l 776 469 l 776 397 l 701 279 q 772 235 747 268 q 796 147 796 201 q 756 35 796 76 q 647 -6 717 -6 z "},"⅔":{"ha":847,"x_min":29,"x_max":814,"o":"m 29 581 l 133 744 q 167 833 167 799 q 121 875 167 875 q 39 842 81 875 l 39 944 q 150 978 97 978 q 243 942 208 978 q 278 844 278 906 q 224 679 278 767 l 175 603 l 289 603 l 289 503 l 29 503 l 29 581 m 575 972 l 697 972 l 282 0 l 158 0 l 575 972 m 665 -6 q 568 15 614 -6 l 568 117 q 646 96 614 96 q 703 154 703 96 q 686 195 703 182 q 635 208 669 208 q 604 207 615 208 l 604 274 l 665 369 l 565 369 l 565 469 l 794 469 l 794 397 l 719 279 q 790 235 765 268 q 814 147 814 201 q 774 35 814 76 q 665 -6 735 -6 z "},"¼":{"ha":865,"x_min":31,"x_max":840,"o":"m 31 603 l 101 603 l 101 833 l 39 803 l 39 915 l 144 972 l 215 972 l 215 603 l 285 603 l 285 503 l 31 503 l 31 603 m 557 972 l 679 972 l 264 0 l 140 0 l 557 972 m 536 151 l 621 469 l 739 469 l 658 178 l 706 178 l 725 308 l 808 308 l 808 181 l 840 181 l 840 79 l 808 79 l 808 0 l 696 0 l 696 79 l 536 79 l 536 151 z "},"¾":{"ha":856,"x_min":38,"x_max":831,"o":"m 138 497 q 40 518 86 497 l 40 619 q 118 599 86 599 q 175 657 175 599 q 158 698 175 685 q 107 711 142 711 q 76 710 88 711 l 76 776 l 138 872 l 38 872 l 38 972 l 267 972 l 267 900 l 192 782 q 262 738 238 771 q 286 650 286 704 q 247 538 286 579 q 138 497 207 497 m 547 972 l 669 972 l 254 0 l 131 0 l 547 972 m 526 151 l 611 469 l 729 469 l 649 178 l 696 178 l 715 308 l 799 308 l 799 181 l 831 181 l 831 79 l 799 79 l 799 0 l 686 0 l 686 79 l 526 79 l 526 151 z "},"⅕":{"ha":831,"x_min":31,"x_max":799,"o":"m 31 603 l 101 603 l 101 833 l 39 803 l 39 915 l 144 972 l 215 972 l 215 603 l 285 603 l 285 503 l 31 503 l 31 603 m 557 972 l 679 972 l 264 0 l 140 0 l 557 972 m 650 -6 q 551 14 607 -6 l 551 117 q 629 96 597 96 q 672 110 657 96 q 688 153 688 125 q 667 196 688 182 q 603 210 647 210 q 556 207 592 210 l 571 469 l 783 469 l 783 371 l 664 371 l 660 293 q 763 253 726 290 q 799 147 799 215 q 758 35 799 76 q 650 -6 718 -6 z "},"⅖":{"ha":849,"x_min":29,"x_max":817,"o":"m 29 581 l 133 744 q 167 833 167 799 q 121 875 167 875 q 39 842 81 875 l 39 944 q 150 978 97 978 q 243 942 208 978 q 278 844 278 906 q 224 679 278 767 l 175 603 l 289 603 l 289 503 l 29 503 l 29 581 m 575 972 l 697 972 l 282 0 l 158 0 l 575 972 m 668 -6 q 569 14 625 -6 l 569 117 q 647 96 615 96 q 690 110 675 96 q 706 153 706 125 q 685 196 706 182 q 621 210 665 210 q 574 207 610 210 l 589 469 l 801 469 l 801 371 l 682 371 l 678 293 q 781 253 744 290 q 817 147 817 215 q 776 35 817 76 q 668 -6 736 -6 z "},"⅗":{"ha":821,"x_min":38,"x_max":789,"o":"m 138 497 q 40 518 86 497 l 40 619 q 118 599 86 599 q 175 657 175 599 q 158 698 175 685 q 107 711 142 711 q 76 710 88 711 l 76 776 l 138 872 l 38 872 l 38 972 l 267 972 l 267 900 l 192 782 q 262 738 238 771 q 286 650 286 704 q 247 538 286 579 q 138 497 207 497 m 547 972 l 669 972 l 254 0 l 131 0 l 547 972 m 640 -6 q 542 14 597 -6 l 542 117 q 619 96 588 96 q 663 110 647 96 q 678 153 678 125 q 658 196 678 182 q 593 210 638 210 q 546 207 582 210 l 561 469 l 774 469 l 774 371 l 654 371 l 650 293 q 753 253 717 290 q 789 147 789 215 q 749 35 789 76 q 640 -6 708 -6 z "},"⅘":{"ha":886,"x_min":26,"x_max":854,"o":"m 26 654 l 111 972 l 229 972 l 149 681 l 196 681 l 215 811 l 299 811 l 299 683 l 331 683 l 331 582 l 299 582 l 299 503 l 186 503 l 186 582 l 26 582 l 26 654 m 613 972 l 735 972 l 319 0 l 196 0 l 613 972 m 706 -6 q 607 14 663 -6 l 607 117 q 685 96 653 96 q 728 110 713 96 q 743 153 743 125 q 723 196 743 182 q 658 210 703 210 q 611 207 647 210 l 626 469 l 839 469 l 839 371 l 719 371 l 715 293 q 818 253 782 290 q 854 147 854 215 q 814 35 854 76 q 706 -6 774 -6 z "},"⅙":{"ha":808,"x_min":31,"x_max":778,"o":"m 31 603 l 101 603 l 101 833 l 39 803 l 39 915 l 144 972 l 215 972 l 215 603 l 285 603 l 285 503 l 31 503 l 31 603 m 557 972 l 679 972 l 264 0 l 140 0 l 557 972 m 635 -6 q 523 56 563 -6 q 483 231 483 118 q 531 410 483 344 q 660 475 578 475 q 751 453 706 475 l 751 353 q 669 375 707 375 q 589 292 601 375 q 660 318 617 318 q 745 274 713 318 q 778 158 778 231 q 739 39 778 83 q 635 -6 700 -6 m 592 158 q 602 109 592 128 q 631 90 613 90 q 659 108 649 90 q 669 158 669 126 q 659 207 669 189 q 631 225 649 225 q 602 207 613 225 q 592 158 592 189 z "},"⅚":{"ha":800,"x_min":42,"x_max":769,"o":"m 140 497 q 42 517 97 497 l 42 619 q 119 599 88 599 q 163 613 147 599 q 178 656 178 628 q 158 699 178 685 q 93 713 138 713 q 46 710 82 713 l 61 972 l 274 972 l 274 874 l 154 874 l 150 796 q 253 756 217 793 q 289 650 289 718 q 249 538 289 579 q 140 497 208 497 m 549 972 l 671 972 l 256 0 l 132 0 l 549 972 m 626 -6 q 515 56 554 -6 q 475 231 475 118 q 522 410 475 344 q 651 475 569 475 q 743 453 697 475 l 743 353 q 661 375 699 375 q 581 292 593 375 q 651 318 608 318 q 737 274 704 318 q 769 158 769 231 q 731 39 769 83 q 626 -6 692 -6 m 583 158 q 594 109 583 128 q 622 90 604 90 q 651 108 640 90 q 661 158 661 126 q 651 207 661 189 q 622 225 640 225 q 594 207 604 225 q 583 158 583 189 z "},"⅐":{"ha":819,"x_min":31,"x_max":793,"o":"m 31 603 l 101 603 l 101 833 l 39 803 l 39 915 l 144 972 l 215 972 l 215 603 l 285 603 l 285 503 l 31 503 l 31 603 m 557 972 l 679 972 l 264 0 l 140 0 l 557 972 m 672 369 l 536 369 l 536 469 l 793 469 l 793 394 l 704 0 l 588 0 l 672 369 z "},"⅛":{"ha":879,"x_min":31,"x_max":843,"o":"m 31 603 l 101 603 l 101 833 l 39 803 l 39 915 l 144 972 l 215 972 l 215 603 l 285 603 l 285 503 l 31 503 l 31 603 m 557 972 l 679 972 l 264 0 l 140 0 l 557 972 m 694 -6 q 585 32 625 -6 q 546 135 546 69 q 596 246 546 207 q 557 344 557 288 q 594 440 557 404 q 694 475 631 475 q 795 440 758 475 q 832 344 832 404 q 793 246 832 288 q 843 135 843 207 q 803 32 843 69 q 694 -6 764 -6 m 656 146 q 666 102 656 118 q 694 86 676 86 q 723 102 713 86 q 733 146 733 118 q 723 188 733 172 q 694 204 713 204 q 666 188 676 204 q 656 146 656 172 m 664 333 q 672 299 664 311 q 694 286 681 286 q 717 299 708 286 q 725 333 725 311 q 717 369 725 357 q 694 382 708 382 q 672 369 681 382 q 664 333 664 357 z "},"⅜":{"ha":869,"x_min":38,"x_max":833,"o":"m 138 497 q 40 518 86 497 l 40 619 q 118 599 86 599 q 175 657 175 599 q 158 698 175 685 q 107 711 142 711 q 76 710 88 711 l 76 776 l 138 872 l 38 872 l 38 972 l 267 972 l 267 900 l 192 782 q 262 738 238 771 q 286 650 286 704 q 247 538 286 579 q 138 497 207 497 m 547 972 l 669 972 l 254 0 l 131 0 l 547 972 m 685 -6 q 576 32 615 -6 q 536 135 536 69 q 586 246 536 207 q 547 344 547 288 q 584 440 547 404 q 685 475 621 475 q 785 440 749 475 q 822 344 822 404 q 783 246 822 288 q 833 135 833 207 q 794 32 833 69 q 685 -6 754 -6 m 646 146 q 656 102 646 118 q 685 86 667 86 q 713 102 703 86 q 724 146 724 118 q 713 188 724 172 q 685 204 703 204 q 656 188 667 204 q 646 146 646 172 m 654 333 q 663 299 654 311 q 685 286 671 286 q 707 299 699 286 q 715 333 715 311 q 707 369 715 357 q 685 382 699 382 q 663 369 671 382 q 654 333 654 357 z "},"⅝":{"ha":871,"x_min":42,"x_max":835,"o":"m 140 497 q 42 517 97 497 l 42 619 q 119 599 88 599 q 163 613 147 599 q 178 656 178 628 q 158 699 178 685 q 93 713 138 713 q 46 710 82 713 l 61 972 l 274 972 l 274 874 l 154 874 l 150 796 q 253 756 217 793 q 289 650 289 718 q 249 538 289 579 q 140 497 208 497 m 549 972 l 671 972 l 256 0 l 132 0 l 549 972 m 686 -6 q 577 32 617 -6 q 538 135 538 69 q 588 246 538 207 q 549 344 549 288 q 585 440 549 404 q 686 475 622 475 q 787 440 750 475 q 824 344 824 404 q 785 246 824 288 q 835 135 835 207 q 795 32 835 69 q 686 -6 756 -6 m 647 146 q 658 102 647 118 q 686 86 668 86 q 715 102 704 86 q 725 146 725 118 q 715 188 725 172 q 686 204 704 204 q 658 188 668 204 q 647 146 647 172 m 656 333 q 664 299 656 311 q 686 286 672 286 q 708 299 700 286 q 717 333 717 311 q 708 369 717 357 q 686 382 700 382 q 664 369 672 382 q 656 333 656 357 z "},"⅞":{"ha":799,"x_min":26,"x_max":763,"o":"m 163 872 l 26 872 l 26 972 l 283 972 l 283 897 l 194 503 l 78 503 l 163 872 m 476 972 l 599 972 l 183 0 l 60 0 l 476 972 m 614 -6 q 505 32 544 -6 q 465 135 465 69 q 515 246 465 207 q 476 344 476 288 q 513 440 476 404 q 614 475 550 475 q 715 440 678 475 q 751 344 751 404 q 713 246 751 288 q 763 135 763 207 q 723 32 763 69 q 614 -6 683 -6 m 575 146 q 585 102 575 118 q 614 86 596 86 q 642 102 632 86 q 653 146 653 118 q 642 188 653 172 q 614 204 632 204 q 585 188 596 204 q 575 146 575 172 m 583 333 q 592 299 583 311 q 614 286 600 286 q 636 299 628 286 q 644 333 644 311 q 636 369 644 357 q 614 382 628 382 q 592 369 600 382 q 583 333 583 357 z "},"⅑":{"ha":881,"x_min":31,"x_max":835,"o":"m 31 603 l 101 603 l 101 833 l 39 803 l 39 915 l 144 972 l 215 972 l 215 603 l 285 603 l 285 503 l 31 503 l 31 603 m 557 972 l 679 972 l 264 0 l 140 0 l 557 972 m 683 475 q 795 413 756 475 q 835 239 835 351 q 788 60 835 125 q 658 -6 740 -6 q 567 17 613 -6 l 567 117 q 649 94 611 94 q 729 178 717 94 q 658 151 701 151 q 573 195 606 151 q 540 311 540 239 q 579 431 540 386 q 683 475 618 475 m 649 311 q 659 263 649 281 q 688 244 669 244 q 716 263 706 244 q 726 311 726 281 q 716 360 726 342 q 688 379 706 379 q 659 361 669 379 q 649 311 649 343 z "},"₀":{"ha":396,"x_min":36,"x_max":360,"o":"m 197 -158 q 78 -97 119 -158 q 36 82 36 -35 q 78 260 36 199 q 197 322 119 322 q 318 260 276 322 q 360 82 360 199 q 318 -97 360 -35 q 197 -158 276 -158 m 147 82 q 197 -57 147 -57 q 249 82 249 -57 q 197 221 249 221 q 147 82 147 221 z "},"₁":{"ha":310,"x_min":31,"x_max":285,"o":"m 31 -53 l 101 -53 l 101 178 l 39 147 l 39 260 l 144 317 l 215 317 l 215 -53 l 285 -53 l 285 -153 l 31 -153 l 31 -53 z "},"₂":{"ha":328,"x_min":29,"x_max":289,"o":"m 29 -75 l 133 89 q 167 178 167 143 q 121 219 167 219 q 39 186 81 219 l 39 289 q 150 322 97 322 q 243 286 208 322 q 278 189 278 250 q 224 24 278 111 l 175 -53 l 289 -53 l 289 -153 l 29 -153 l 29 -75 z "},"₃":{"ha":319,"x_min":38,"x_max":286,"o":"m 138 -158 q 40 -137 86 -158 l 40 -36 q 118 -57 86 -57 q 175 1 175 -57 q 158 42 175 29 q 107 56 142 56 q 76 54 88 56 l 76 121 l 138 217 l 38 217 l 38 317 l 267 317 l 267 244 l 192 126 q 262 82 238 115 q 286 -6 286 49 q 247 -117 286 -76 q 138 -158 207 -158 z "},"₄":{"ha":356,"x_min":26,"x_max":331,"o":"m 26 -1 l 111 317 l 229 317 l 149 25 l 196 25 l 215 156 l 299 156 l 299 28 l 331 28 l 331 -74 l 299 -74 l 299 -153 l 186 -153 l 186 -74 l 26 -74 l 26 -1 z "},"₅":{"ha":321,"x_min":42,"x_max":289,"o":"m 140 -158 q 42 -139 97 -158 l 42 -36 q 119 -57 88 -57 q 163 -42 147 -57 q 178 0 178 -28 q 158 43 178 29 q 93 57 138 57 q 46 54 82 57 l 61 317 l 274 317 l 274 218 l 154 218 l 150 140 q 253 100 217 138 q 289 -6 289 63 q 249 -117 289 -76 q 140 -158 208 -158 z "},"₆":{"ha":363,"x_min":38,"x_max":332,"o":"m 189 -158 q 77 -97 117 -158 q 38 78 38 -35 q 85 257 38 192 q 214 322 132 322 q 306 300 260 322 l 306 200 q 224 222 261 222 q 143 139 156 222 q 214 165 171 165 q 299 122 267 165 q 332 6 332 78 q 293 -114 332 -69 q 189 -158 254 -158 m 146 6 q 156 -44 146 -25 q 185 -62 167 -62 q 213 -44 203 -62 q 224 6 224 -26 q 213 54 224 36 q 185 72 203 72 q 156 54 167 72 q 146 6 146 36 z "},"₇":{"ha":310,"x_min":26,"x_max":283,"o":"m 163 217 l 26 217 l 26 317 l 283 317 l 283 242 l 194 -153 l 78 -153 l 163 217 z "},"₈":{"ha":369,"x_min":36,"x_max":333,"o":"m 185 -158 q 76 -121 115 -158 q 36 -18 36 -83 q 86 93 36 54 q 47 192 47 135 q 84 287 47 251 q 185 322 121 322 q 285 287 249 322 q 322 192 322 251 q 283 93 322 135 q 333 -18 333 54 q 294 -121 333 -83 q 185 -158 254 -158 m 146 -7 q 156 -51 146 -35 q 185 -67 167 -67 q 213 -51 203 -67 q 224 -7 224 -35 q 213 35 224 19 q 185 51 203 51 q 156 35 167 51 q 146 -7 146 19 m 154 181 q 163 146 154 158 q 185 133 171 133 q 207 146 199 133 q 215 181 215 158 q 207 217 215 204 q 185 229 199 229 q 163 217 171 229 q 154 181 154 204 z "},"₉":{"ha":371,"x_min":31,"x_max":325,"o":"m 174 322 q 285 260 246 322 q 325 86 325 199 q 278 -93 325 -28 q 149 -158 231 -158 q 57 -136 103 -158 l 57 -36 q 139 -58 101 -58 q 219 25 207 -58 q 149 -1 192 -1 q 63 42 96 -1 q 31 158 31 86 q 69 278 31 233 q 174 322 108 322 m 139 158 q 149 110 139 128 q 178 92 160 92 q 206 110 196 92 q 217 158 217 128 q 206 208 217 189 q 178 226 196 226 q 149 208 160 226 q 139 158 139 190 z "},"⁰":{"ha":396,"x_min":36,"x_max":360,"o":"m 197 650 q 78 712 119 650 q 36 890 36 774 q 78 1069 36 1007 q 197 1131 119 1131 q 318 1069 276 1131 q 360 890 360 1007 q 318 712 360 774 q 197 650 276 650 m 147 890 q 197 751 147 751 q 249 890 249 751 q 197 1029 249 1029 q 147 890 147 1029 z "},"¹":{"ha":310,"x_min":31,"x_max":285,"o":"m 31 756 l 101 756 l 101 986 l 39 956 l 39 1068 l 144 1125 l 215 1125 l 215 756 l 285 756 l 285 656 l 31 656 l 31 756 z "},"²":{"ha":328,"x_min":29,"x_max":289,"o":"m 29 733 l 133 897 q 167 986 167 951 q 121 1028 167 1028 q 39 994 81 1028 l 39 1097 q 150 1131 97 1131 q 243 1094 208 1131 q 278 997 278 1058 q 224 832 278 919 l 175 756 l 289 756 l 289 656 l 29 656 l 29 733 z "},"³":{"ha":319,"x_min":38,"x_max":286,"o":"m 138 650 q 40 671 86 650 l 40 772 q 118 751 86 751 q 175 810 175 751 q 158 851 175 838 q 107 864 142 864 q 76 863 88 864 l 76 929 l 138 1025 l 38 1025 l 38 1125 l 267 1125 l 267 1053 l 192 935 q 262 890 238 924 q 286 803 286 857 q 247 691 286 732 q 138 650 207 650 z "},"⁴":{"ha":356,"x_min":26,"x_max":331,"o":"m 26 807 l 111 1125 l 229 1125 l 149 833 l 196 833 l 215 964 l 299 964 l 299 836 l 331 836 l 331 735 l 299 735 l 299 656 l 186 656 l 186 735 l 26 735 l 26 807 z "},"⁵":{"ha":321,"x_min":42,"x_max":289,"o":"m 140 650 q 42 669 97 650 l 42 772 q 119 751 88 751 q 163 766 147 751 q 178 808 178 781 q 158 851 178 838 q 93 865 138 865 q 46 863 82 865 l 61 1125 l 274 1125 l 274 1026 l 154 1026 l 150 949 q 253 908 217 946 q 289 803 289 871 q 249 691 289 732 q 140 650 208 650 z "},"⁶":{"ha":363,"x_min":38,"x_max":332,"o":"m 189 650 q 77 712 117 650 q 38 886 38 774 q 85 1065 38 1000 q 214 1131 132 1131 q 306 1108 260 1131 l 306 1008 q 224 1031 261 1031 q 143 947 156 1031 q 214 974 171 974 q 299 930 267 974 q 332 814 332 886 q 293 694 332 739 q 189 650 254 650 m 146 814 q 156 765 146 783 q 185 746 167 746 q 213 764 203 746 q 224 814 224 782 q 213 863 224 844 q 185 881 203 881 q 156 863 167 881 q 146 814 146 844 z "},"⁷":{"ha":310,"x_min":26,"x_max":283,"o":"m 163 1025 l 26 1025 l 26 1125 l 283 1125 l 283 1050 l 194 656 l 78 656 l 163 1025 z "},"⁸":{"ha":369,"x_min":36,"x_max":333,"o":"m 185 650 q 76 688 115 650 q 36 790 36 725 q 86 901 36 863 q 47 1000 47 943 q 84 1095 47 1060 q 185 1131 121 1131 q 285 1095 249 1131 q 322 1000 322 1060 q 283 901 322 943 q 333 790 333 863 q 294 688 333 725 q 185 650 254 650 m 146 801 q 156 758 146 774 q 185 742 167 742 q 213 758 203 742 q 224 801 224 774 q 213 844 224 828 q 185 860 203 860 q 156 844 167 860 q 146 801 146 828 m 154 989 q 163 954 154 967 q 185 942 171 942 q 207 954 199 942 q 215 989 215 967 q 207 1025 215 1013 q 185 1038 199 1038 q 163 1025 171 1038 q 154 989 154 1013 z "},"⁹":{"ha":363,"x_min":31,"x_max":325,"o":"m 174 1131 q 285 1069 246 1131 q 325 894 325 1007 q 278 715 325 781 q 149 650 231 650 q 57 672 103 650 l 57 772 q 139 750 101 750 q 219 833 207 750 q 149 807 192 807 q 63 851 96 807 q 31 967 31 894 q 69 1086 31 1042 q 174 1131 108 1131 m 139 967 q 149 918 139 936 q 178 900 160 900 q 206 918 196 900 q 217 967 217 936 q 206 1016 217 997 q 178 1035 196 1035 q 149 1017 160 1035 q 139 967 139 999 z "}," ":{"ha":207,"x_min":0,"x_max":0,"o":""}," ":{"ha":124,"x_min":0,"x_max":0,"o":""},"​":{"ha":0,"x_min":0,"x_max":0,"o":""},"·":{"ha":346,"x_min":46,"x_max":278,"o":"z "},";":{"ha":329,"x_min":49,"x_max":281,"o":"z "},".":{"ha":329,"x_min":49,"x_max":281,"o":"m 164 -11 q 81 22 113 -11 q 49 110 49 56 q 81 197 49 164 q 164 229 113 229 q 249 197 217 229 q 281 110 281 164 q 249 22 281 56 q 164 -11 217 -11 z "},",":{"ha":329,"x_min":49,"x_max":281,"o":"m 94 -194 q 135 -91 122 -133 q 151 -11 149 -49 q 78 26 107 -7 q 49 110 49 60 q 81 196 49 163 q 161 229 113 229 q 249 189 217 229 q 281 79 281 149 q 201 -194 281 -47 l 94 -194 z "},":":{"ha":329,"x_min":49,"x_max":281,"o":"m 164 -11 q 81 22 113 -11 q 49 110 49 56 q 81 197 49 164 q 164 229 113 229 q 249 197 217 229 q 281 110 281 164 q 249 22 281 56 q 164 -11 217 -11 m 164 489 q 81 522 113 489 q 49 610 49 556 q 81 697 49 664 q 164 729 113 729 q 249 697 217 729 q 281 610 281 664 q 249 522 281 556 q 164 489 217 489 z "},";":{"ha":329,"x_min":49,"x_max":281,"o":"m 94 -194 q 135 -91 122 -133 q 151 -11 149 -49 q 78 26 107 -7 q 49 110 49 60 q 81 196 49 163 q 161 229 113 229 q 249 189 217 229 q 281 79 281 149 q 201 -194 281 -47 l 94 -194 m 164 489 q 81 522 113 489 q 49 610 49 556 q 81 697 49 664 q 164 729 113 729 q 249 697 217 729 q 281 610 281 664 q 249 522 281 556 q 164 489 217 489 z "},"…":{"ha":939,"x_min":49,"x_max":890,"o":"m 164 -11 q 81 22 113 -11 q 49 110 49 56 q 81 197 49 164 q 164 229 113 229 q 249 197 217 229 q 281 110 281 164 q 249 22 281 56 q 164 -11 217 -11 m 469 -11 q 386 22 418 -11 q 354 110 354 56 q 386 197 354 164 q 469 229 418 229 q 554 197 522 229 q 586 110 586 164 q 554 22 586 56 q 469 -11 522 -11 m 774 -11 q 690 22 722 -11 q 658 110 658 56 q 690 197 658 164 q 774 229 722 229 q 858 197 826 229 q 890 110 890 164 q 858 22 890 56 q 774 -11 826 -11 z "}}}
